<?xml version="1.0" encoding="UTF-8"?>
<svg xmlns="http://www.w3.org/2000/svg" xmlns:xlink="http://www.w3.org/1999/xlink" version="1.1" height="492" width="800" font-family="Helvetica,sans-serif" viewBox="0 0 887 545">
<defs>
	<linearGradient id="spectrum" y2="328.2" gradientUnits="userSpaceOnUse" x2="1002" gradientTransform="matrix(.1516 0 0 1 204.9 13.41)" y1="328.2" x1="78.11">
		<stop stop-color="#D0051" offset="0"/>
		<stop stop-color="#38005A" offset=".006410"/>
		<stop stop-color="#320062" offset=".01282"/>
		<stop stop-color="#2E0066" offset=".01923"/>
		<stop stop-color="#D0073" offset=".02564"/>
		<stop stop-color="#260085" offset=".03205"/>
		<stop stop-color="#4F0096" offset=".03846"/>
		<stop stop-color="#5100A7" offset=".04487"/>
		<stop stop-color="#6000BB" offset=".05128"/>
		<stop stop-color="#5F00CB" offset=".05769"/>
		<stop stop-color="#6500E1" offset=".06410"/>
		<stop stop-color="#8000F9" offset=".07051"/>
		<stop stop-color="#8200FF" offset=".07692"/>
		<stop stop-color="#8200FF" offset=".08333"/>
		<stop stop-color="#7F00FF" offset=".08974"/>
		<stop stop-color="#7C00FF" offset=".09615"/>
		<stop stop-color="#7E00FF" offset=".1090"/>
		<stop stop-color="#7C00FF" offset=".1154"/>
		<stop stop-color="#70f" offset=".1218"/>
		<stop stop-color="#70f" offset=".1346"/>
		<stop stop-color="#7600FF" offset=".1410"/>
		<stop stop-color="#7600FF" offset=".1474"/>
		<stop stop-color="#6C00FF" offset=".1603"/>
		<stop stop-color="#60f" offset=".1667"/>
		<stop stop-color="#5F00FF" offset=".1731"/>
		<stop stop-color="#5A00FF" offset=".1795"/>
		<stop stop-color="#4B00FF" offset=".1859"/>
		<stop stop-color="#4700FF" offset=".1923"/>
		<stop stop-color="#3500FF" offset=".1987"/>
		<stop stop-color="#1600FF" offset=".2051"/>
		<stop stop-color="#0038FF" offset=".2115"/>
		<stop stop-color="#0047FF" offset=".2179"/>
		<stop stop-color="#005DFF" offset=".2244"/>
		<stop stop-color="#0087FF" offset=".2372"/>
		<stop stop-color="#0097FF" offset=".2436"/>
		<stop stop-color="#00A6FF" offset=".25"/>
		<stop stop-color="#00B1FF" offset=".2564"/>
		<stop stop-color="#00C0FF" offset=".2628"/>
		<stop stop-color="#00DCFD" offset=".2756"/>
		<stop stop-color="#00E2F7" offset=".2821"/>
		<stop stop-color="#00EDF5" offset=".2885"/>
		<stop stop-color="#00F7F3" offset=".2949"/>
		<stop stop-color="#00FBED" offset=".3013"/>
		<stop stop-color="#00FFE7" offset=".3077"/>
		<stop stop-color="#00FFDE" offset=".3141"/>
		<stop stop-color="#00FFD7" offset=".3205"/>
		<stop stop-color="#00FFD2" offset=".3269"/>
		<stop stop-color="#00FFCB" offset=".3333"/>
		<stop stop-color="#00FFC5" offset=".3397"/>
		<stop stop-color="#00FFBD" offset=".3526"/>
		<stop stop-color="#00FFB7" offset=".3590"/>
		<stop stop-color="#00FFB4" offset=".3654"/>
		<stop stop-color="#00FFAF" offset=".3718"/>
		<stop stop-color="#00FFAC" offset=".3782"/>
		<stop stop-color="#00FFA9" offset=".3846"/>
		<stop stop-color="#00FFA5" offset=".3910"/>
		<stop stop-color="#00FFA1" offset=".3974"/>
		<stop stop-color="#00FF9D" offset=".4038"/>
		<stop stop-color="#00FF9B" offset=".4103"/>
		<stop stop-color="#00FF94" offset=".4167"/>
		<stop stop-color="#00FF8C" offset=".4295"/>
		<stop stop-color="#00FF85" offset=".4359"/>
		<stop stop-color="#00FF80" offset=".4423"/>
		<stop stop-color="#0f7" offset=".4487"/>
		<stop stop-color="#00FF6D" offset=".4551"/>
		<stop stop-color="#00FF5D" offset=".4615"/>
		<stop stop-color="#00FF4F" offset=".4679"/>
		<stop stop-color="#00FF42" offset=".4744"/>
		<stop stop-color="#0f0" offset=".4808"/>
		<stop stop-color="#40FF00" offset=".4872"/>
		<stop stop-color="#5FFF00" offset=".4936"/>
		<stop stop-color="#75FF00" offset="0.5"/>
		<stop stop-color="#8AFF00" offset=".5064"/>
		<stop stop-color="#9FFF00" offset=".5128"/>
		<stop stop-color="#BEFF00" offset=".5256"/>
		<stop stop-color="#D1FF00" offset=".5321"/>
		<stop stop-color="#E0FF00" offset=".5385"/>
		<stop stop-color="#F4FF00" offset=".5449"/>
		<stop stop-color="#FFFB00" offset=".5513"/>
		<stop stop-color="#FFEA00" offset=".5577"/>
		<stop stop-color="#fd0" offset=".5641"/>
		<stop stop-color="#FFCF00" offset=".5705"/>
		<stop stop-color="#FFC200" offset=".5769"/>
		<stop stop-color="#FFB400" offset=".5833"/>
		<stop stop-color="#FFA800" offset=".5897"/>
		<stop stop-color="#FF9F00" offset=".5962"/>
		<stop stop-color="#FF9300" offset=".6026"/>
		<stop stop-color="#FF8900" offset=".6090"/>
		<stop stop-color="#FF7F00" offset=".6154"/>
		<stop stop-color="#FF7500" offset=".6218"/>
		<stop stop-color="#FF6900" offset=".6282"/>
		<stop stop-color="#FF6300" offset=".6346"/>
		<stop stop-color="#FF5800" offset=".6410"/>
		<stop stop-color="#FF4F00" offset=".6474"/>
		<stop stop-color="#FF4200" offset=".6538"/>
		<stop stop-color="#FF3B00" offset=".6603"/>
		<stop stop-color="#FF2E00" offset=".6667"/>
		<stop stop-color="#FF2600" offset=".6731"/>
		<stop stop-color="#f00" offset=".6795"/>
		<stop stop-color="#FF0016" offset=".6859"/>
		<stop stop-color="#FF0026" offset=".6923"/>
		<stop stop-color="#FF002A" offset=".6987"/>
		<stop stop-color="#FF0035" offset=".7051"/>
		<stop stop-color="#FF0038" offset=".7115"/>
		<stop stop-color="#FF003D" offset=".7179"/>
		<stop stop-color="#FF0040" offset=".7244"/>
		<stop stop-color="#FF0040" offset=".7372"/>
		<stop stop-color="#FF0049" offset=".7436"/>
		<stop stop-color="#FF0045" offset="0.75"/>
		<stop stop-color="#FF0047" offset=".7564"/>
		<stop stop-color="#FF0049" offset=".7628"/>
		<stop stop-color="#FF004F" offset=".7692"/>
		<stop stop-color="#FF004B" offset=".7756"/>
		<stop stop-color="#FF004F" offset=".7821"/>
		<stop stop-color="#F90049" offset=".7949"/>
		<stop stop-color="#F2004F" offset=".8013"/>
		<stop stop-color="#E7004B" offset=".8077"/>
		<stop stop-color="#DA0045" offset=".8141"/>
		<stop stop-color="#D40045" offset=".8205"/>
		<stop stop-color="#CC0045" offset=".8269"/>
		<stop stop-color="#BD0040" offset=".8333"/>
		<stop stop-color="#AD0038" offset=".8462"/>
		<stop stop-color="#A30038" offset=".8526"/>
		<stop stop-color="#9B0032" offset=".8590"/>
		<stop stop-color="#900032" offset=".8654"/>
		<stop stop-color="#850026" offset=".8718"/>
		<stop stop-color="#790016" offset=".8782"/>
		<stop stop-color="#770026" offset=".8910"/>
		<stop stop-color="#690016" offset=".8974"/>
		<stop stop-color="#5A0000" offset=".9038"/>
		<stop stop-color="#660026" offset=".9103"/>
		<stop stop-color="#56001C" offset=".9167"/>
		<stop stop-color="#56001C" offset=".9231"/>
		<stop stop-color="#400000" offset=".9487"/>
		<stop stop-color="#3B001C" offset="1"/>
	</linearGradient>
</defs>
<switch allowReorder="yes">
	<g systemLanguage="de">
		<g font-size="24">
			<text y="511" x="886" text-anchor="end">Wellenlänge</text>
			<g text-anchor="middle" font-weight="bold">
				<text y="505" x="288">sichtbares</text>
				<text y="535" x="288">Licht</text>
			</g>
		</g>
		<g font-size="20">
			<text y="117" x="449.3">idealer Schwarzer Körper</text>
			<text y="142" x="449.3">(Temperatur 5900 K)</text>
			<text y="171" x="471.3">extraterrestrische Sonnenstrahlung</text>
			<text y="196" x="471.3">(Luftmasse AM0)</text>
			<text y="225" x="497.3">terrestrische Sonnenstrahlung</text>
			<text y="250" x="497.3">(Luftmasse AM1,5)</text>
		</g>
	</g>
	<g systemLanguage="fr">
		<g font-size="24">
			<text y="511" x="886" text-anchor="end">Longueur d'onde</text>
			<g text-anchor="middle" font-weight="bold">
				<text y="505" x="288">Domaine</text>
				<text y="535" x="288">visible</text>
			</g>
		</g>
		<g font-size="20">
			<text y="117" x="449.3">Corps noir parfait</text>
			<text y="142" x="449.3">(température 5900 K)</text>
			<text y="171" x="471.3">Rayonnement solaire extraterrestre</text>
			<text y="196" x="471.3">(masse d'air AM0)</text>
			<text y="225" x="497.3">Rayonnement solaire terrestre</text>
			<text y="250" x="497.3">(masse d'air AM1,5)</text>
		</g>
	</g>
	<g systemLanguage="nl">
		<g font-size="24">
			<text y="511" x="886" text-anchor="end">Golflengte</text>
			<g text-anchor="middle" font-weight="bold">
				<text y="505" x="288">Zichtbaar</text>
				<text y="535" x="288">licht</text>
			</g>
		</g>
		<g font-size="20">
			<text y="117" x="449.3">Ideale zwarte straler van 5900 K</text>
			<text y="142" x="449.3"></text>
			<text y="171" x="471.3">Zonnestraling buiten de atmosfeer</text>
			<text y="196" x="471.3">(luchtmassa AM0)</text>
			<text y="225" x="497.3">Zonnestraling op zeeniveau</text>
			<text y="250" x="497.3">(luchtmassa AM1,5)</text>
		</g>
	</g>
	<g systemLanguage="en">
		<g font-size="24">
			<text y="511" x="886" text-anchor="end">wavelength</text>
			<g text-anchor="middle" font-weight="bold">
				<text y="505" x="288">visible</text>
				<text y="535" x="288">light</text>
			</g>
		</g>
		<g font-size="20">
			<text y="117" x="449.3">ideal black body</text>
			<text y="142" x="449.3">(temperature 5900 K)</text>
			<text y="171" x="471.3">extraterrestrical sunlight</text>
			<text y="196" x="471.3">(air mass AM0)</text>
			<text y="225" x="497.3">terrestrical sunlight</text>
			<text y="250" x="497.3">(air mass AM1.5)</text>
		</g>
	</g>
</switch>
<g font-size="24" text-anchor="end" transform="matrix(0-1 1 0 26.1 24.8)">
	<switch allowReorder="yes">
		<text systemLanguage="de">Strahlungsintensität</text>
		<text systemLanguage="fr">Intensité lumineuse</text>
		<text systemLanguage="nl">Stralingintensiteit</text>
		<text systemLanguage="en">radiant intensity</text>
	</switch>
</g>
<g stroke="#000">
	<path stroke-dasharray="3 1" d="m161.7 449.8c0-9.25.44-27.83.5-28 2.58-11.13 7-22.1 9.76-32.78 2.94-11.43 4.78-19.41 6.46-28.6 4.56-24.92 12.78-57.69 16.1-84.3 2.1-16.7 5.37-34.77 7.35-50.2 1.45-11.33 5.85-23.2 7.09-33.3.96-10.17 6.07-22.54 8-29.3 4.07-14.1 11.23-27.45 15.26-33.65 4.06-6.25 6.18-10.19 14.51-15.64 2.22-1.45.17-.17.25-.25.68-.68 8.13-1.46 9.13-.75 4.75 3.36 6.31 4.2 11.38 9.88 4.85 5.43 11.1 13.61 15.51 21.1 5.99 10.24 10.93 17.1 17.26 26.77 8.4 11.22 13.53 21.95 23.52 38 9.58 15.43 20.49 29.67 31.53 43.78 6.3 8.1 12.41 14.42 18.51 22 7.77 9.66 14.62 19.54 22.5 29.1 5.71 6.9 9.52 12.47 17 22.74" fill="#ff0"/>
	<path d="m249.19 106.8c-1.38 1.08-3.26 1.39-4.31.25-.97-1.05-1.11-3.35-1.88-3.38-1-.04-1.47 2.41-1.75 4.09-1.8 10.79-.57 20.5-2.25 30.78-.74 2.96-.91 5.9-.91 9 .06 3.97-1.08 7.79-.84 11.75.58 5.74.09 6.89-2 9.28-1.03 1.03-2.97 4.68-2.97 3.22-.26-3.67-.51-6.77-.03-10.5 0-2.65.25-7.42-2.63-8.22-2.43 0-2.57 2.49-2.88 4.97-2.15 17.44.7 36.1-2 53.81-.88 17.1-.43 35.3-2.41 49.84-.22 1.64-.86 4.46-1.13 4.44-.33-.03-.33-2.09-.56-2.5-.17-.3-3.33-3.05-3.31-6.81 0-.11-2.94-.13-2.94-.19 0-1.62-.56-4.18-.56-4.13 0 4.64-.31 11.38-1.38 15.94-.05.3-3.1-.18-3.13.19-.14 2.16-1.02 6.19-1.19 6.38-.05.06-.45-1.91-.41-2.19.04-.25-2.61.25-2.72.16-.13-.1-.28-2.51-.31-2.34-.74 3.41-1.94 6-2.25 9.53-.53 6-.25 12.22-1.25 18.25-.78 8.92-1.79 17.77-3.75 26.53-.86 9.36-1.61 19.47-2.97 28.75-.68 4.63-1.69 11.53-2.28 13.78-.14.54-.75-13.93-.75-13.28 0 .39-1.13 11.5-1.25 14-.67 13.88-1.6 26.87-3.88 40-.35 1.86-.95 8.66-1.13 8.5-.11-.1-.5-9.1-.5-9 .14 4.33-3 17.51-3.53 18.75-4.36 10.71-4.15 17.36-18 23l718.7.72v-12.1c-7.47-.82-49.4-1.72-51.5-1.72-29.83 0-58.96-1.76-88.8-3.41-17.71-1.35-43.55-3.92-61.6-6.88-11.99-2.19-23.1-3.52-34.53-6.63-9.42-2.86-18.76-5.68-28.2-8.25-8.84-1.23-15.56-6.21-24-6.75-10.35-.66-21.2-2.37-31.78-4.5-16.63-3.33-30.88-8.77-46.3-13.5-19.1-5.85-37.1-13.49-54-24.28-20.83-11.59-38.96-27.2-49.81-38-4.54-4.53-9.12-8.84-13.25-13.78-.71-.74-3.27-1.08-4.75-2-15.69-9.77-26.44-24.88-37.78-38-12.26-12.72-23.95-30.41-34.2-44.56-7.1-7.92-16.93-28.49-18.31-30-8.54-9.33-5.52-18.57-16-23.53-.65-.31.15-5-.38-5.38-3.52-2.45-2.31-2.65-7.47-6.25-.44-.31-.36.95-3.94 3.59-2.07.52-2.37 1.07-3.25-.69-.6-1.2-.31-3.61-.81-6.1-.27-1.3-3.17-4.57-3.44-5.63-1.3-5.17-.52-8.1-3.16-13.44-.15-.3-1.25 3.33-1.34 3.09-.77-1.95-2.53-.11-2.66-1.5-.51-5.78-1.97-5.9-3.28-7.22-.64-.64-1.35-11.71-2.06-11.72-.77 0-2.99.75-3.53.16-.86-.95-.3-3.35-.5-5.25-.49-4.61-.39-8.9-.75-13.25-.37-.02-.92 3.85-1.28 4.11z" fill="#f90"/>
	<path stroke="#003" d="m191.1 449.6c3.45.4 7.46-2.64 8.26-6.51 3.53-17.1 8-37.67 12.51-40.53 1.18-.75-1-9.75 5.25-15.26 2.11-1.86 2.47-1.27 3.5-5 .9-3.23 1.64-10.58 2.79-13.78 2.09-5.8 1.47-42.5 3.96-57.78 11-4 6.53-26.87 10-39.53 6.73-.43 3.4 5.73 6.25-18.76.53-4.54.86-.89 3.83-1.65 1.03-.26-.09-7.22 2.56-.03.58 1.56 2.56-9.68 4.83-8.95 8.32 2.69-1.48 8.26 13.6-8.65 1.54-1.73 1.99 8.49 8.74.2.65-.8 4.83-.72 6.97 3.87.56 1.2 3.54-.8 4.14-.24 3.23 3 2.8 3.8 8.75 3.41 2.45-.16 2.63 2.34 3.8 3.51 1.4 1.4.15 6.46 1.23 6.45 1.46 0 3.11-5.62 4.88-5.51 1.23.07 10.24 7.55 10.22 8.6-.07 4.3-1.86 32.85-1.12 32.85.55 0 2.05-26.5 3.27-32.5.26-1.26.71 5.36 3.53 7.77 2.04 1.75 1.64 27.3 2.56 27.1 1.18-.21.98-25.96 1.06-24.76.27 4.11 3.83 4.05 4.74 5 4.57 4.81 3.8 55.1 5.41 56.74 1.48 1.49 1.61-50 2.44-50.1 2.65-.12 4.12-.77 5.06 4.77.43 2.5 3.88-.65 3.86 2.37 0 1.8 1.88 19.2 2.3 21 .19.85 5.6-8.43 7.77-8.18 3.72.43 3.31 84.7 5.65 85.5.54.18.99-71 1.76-74.2.67-2.77 18.1 11.17 20.49 12.68 1.11.71 1.93 92.6 2.68 100.7-.06-2.42.89-12.78 6.98-8.6.78.53 3.91-4.21 6-8.87.38-.84 1.09-23.1 1.22-27.83.28-10.82.64-20.68 2.65-6.89.05.37 9.19-16.31 10.33-15.81 8.28 3.61 22.26 15.1 23.93 22.79.47 2.17 2.88-6.93 3.5-7.51 4.82-4.44 5.78 62.73 10.15 61.84 3.41-.69 3.06-3.96 4.06-5.41 6.59-9.47 7.18-33.93 13.87-44.4 1.23-1.93 7.11 5.79 8.57 6.97 1.41 1.12.93-2.37 6.88 1.99 5.15 3.31 9.1 10.48 12.89 3.24.51-.96 9.76 11.55 10.41 12.28 7.15 8.11 7.6 42.68 7.78 42.68 3.57-.03 26.86-2.31 29.86-2.53 2.59-.19 3.58-6.25 6.12-6.54 3.87-.09 6.23.03 6.53-.43 7.26-8.85 22.92-27.69 24.56-27.8 1.81-.12 3.16 1.34 6.44 2.89 4.45 2.1 15.24-.23 18.42 0 1.94.14 7 6.27 11.6 6.27 4.95 0 8.43 3.5 13.51 3.5 3.84 0 7.55 1 12 1 6.4 2.18 12.36 5.64 17.48 10.24 3.44 3.08 10.79 10.1 12.87 12.46.18.21 36.75-3.89 37.2-3.97 8.73-1.43 14-7.3 18-7.11 3.15.15 4.11 1.75 6.44 1.76 5.66.03 92.2-1.3 99.2 1.53 7.77 4.12 12.84 4.91 21.2 1.44 2.3-.95 1.51 2.19 14.4 2.95 3.99.23 3.16-2.14 8.16 2.86v5" fill="#003"/>
	<path stroke="none" d="m268.7 233c-.09.02-.18.08-.28.19-15.1 16.92-5.28 11.34-13.59 8.66-2.26-.73-4.27 10.53-4.84 8.97-2.65-7.19-1.53-.23-2.56.03-2.96.75-3.28-2.91-3.81 1.63-2.85 24.49.48 18.35-6.25 18.78-3.48 12.66 1 35.53-10 39.53-2.49 15.32-1.88 51.98-3.97 57.78-1.15 3.2-1.92 10.55-2.81 13.78-1.04 3.73-1.39 3.14-3.5 5-.07.06-.12.13-.19.19v62.2l140 .53v-154.2c-2.51 1.83-6.46 8.44-6.63 7.72-.42-1.84-2.3-19.23-2.28-21 .02-3-3.45.13-3.88-2.38-.94-5.53-2.38-4.87-5-4.75-.83.04-.99 51.6-2.47 50.1-1.61-1.63-.84-51.91-5.41-56.72-.92-.96-4.45-.92-4.72-5-.08-1.2.12 24.57-1.06 24.78-.91.16-.52-25.41-2.56-27.2-2.82-2.41-3.28-9-3.53-7.75-1.22 6-2.73 32.5-3.28 32.5-.74 0 1.05-28.57 1.13-32.88.02-1.05-8.99-8.52-10.22-8.59-1.77-.11-3.41 5.52-4.88 5.53-1.08 0 .15-5.07-1.25-6.47-1.17-1.17-1.33-3.66-3.78-3.5-5.95.39-5.52-.41-8.75-3.41-.6-.56-3.6 1.45-4.16.25-2.14-4.59-6.32-4.67-6.97-3.88-6.33 7.77-7.12-.74-8.47-.41" fill="url(#spectrum)"/>
	<g fill="none">
		<path d="m298.9 168.3c50-60 48-58 48-58h90"/>
		<path d="m321.4 225.3c50.2-60 50.2-60 50.2-60h90.3"/>
		<path d="m345.9 281.3c50-60 51.5-61.5 51.5-61.5h90"/>
		<path d="m92.9 32.3h5v83h-5 5v84h-5 5v84h-5 5v84h-5 5v83h78v5-5h79v5-5h79v5-5h78v5-5h78v5-5h79v5-5h78v5-5h78v5-5h79v5-5h78"/>
		<path stroke-width="2" d="M219.2 450.4v98.6M354.6 450.4v98.6M112 31.98h82.3"/>
	</g>
</g>
<g font-size="20">
	<g transform="translate(86)" text-anchor="end">
		<text y="372.7">500</text>
		<text y="289.6">1000</text>
		<text y="206.5">1500</text>
		<text y="123.4">2000</text>
		<text y="40.4">2500</text>
	</g>
	<g transform="translate(0 478)">
		<text x="159.2">250</text>
		<text x="238.4">500</text>
		<text x="317.6">750</text>
		<text x="389.5">1000</text>
		<text x="467.6">1250</text>
		<text x="546.3">1500</text>
		<text x="623.7">1750</text>
		<text x="702.8">2000</text>
		<text x="781.2">2250</text>
	</g>
</g>
<g font-size="24" text-anchor="middle">
	<g font-weight="bold">
		<text x="190" y="520.5">UV</text>
		<text x="380" y="520.5">IR</text>
	</g>
		<text y="478.2" x="862.5">nm</text>
		<text y="57.6" x="153.2">m² μm</text>
		<text y="24" x="153.2">W</text>
</g>
</svg>