<?xml version="1.0" encoding="UTF-8" standalone="no"?>
<svg
   xmlns:dc="http://purl.org/dc/elements/1.1/"
   xmlns:cc="http://creativecommons.org/ns#"
   xmlns:rdf="http://www.w3.org/1999/02/22-rdf-syntax-ns#"
   xmlns:svg="http://www.w3.org/2000/svg"
   xmlns="http://www.w3.org/2000/svg"
   viewBox="0 0 345.32577 224.88936"
   height="224.88936"
   width="345.32578"
   xml:space="preserve"
   id="svg833"
   version="1.1">
  <metadata
     id="metadata839">
    <rdf:RDF>
      <cc:Work
         rdf:about="">
        <dc:format>image/svg+xml</dc:format>
        <dc:type
           rdf:resource="http://purl.org/dc/dcmitype/StillImage" />
        <dc:title></dc:title>
      </cc:Work>
    </rdf:RDF>
  </metadata>
  <defs
     id="defs837" />
  <g
     transform="matrix(1.3333333,0,0,-1.3333333,-191.15119,1096.5907)"
     id="g841">
    <g
       id="g843" />
    <g
       id="g845">
      <g
         transform="matrix(0.5454546,0,0,-0.5454546,65.83008,793.1904)"
         id="g847">
        <path
           id="path849"
           style="fill:none;stroke:#f59a23;stroke-width:1.8189;stroke-linecap:round;stroke-linejoin:round;stroke-miterlimit:10;stroke-dasharray:none;stroke-opacity:1"
           d="M 142.1444,52.59943 V 231.9955" />
      </g>
      <g
         transform="matrix(0.5454546,0,0,-0.5454546,65.83008,793.1904)"
         id="g851">
        <path
           id="path853"
           style="fill:none;stroke:#f59a23;stroke-width:1.8189;stroke-linecap:round;stroke-linejoin:round;stroke-miterlimit:10;stroke-dasharray:none;stroke-opacity:1"
           d="m 142.1444,52.59943 h 177.999" />
      </g>
      <g
         transform="matrix(0.5454546,0,0,-0.5454546,65.83008,793.1904)"
         id="g855">
        <path
           id="path857"
           style="fill:none;stroke:#f59a23;stroke-width:1.8189;stroke-linecap:round;stroke-linejoin:round;stroke-miterlimit:10;stroke-dasharray:none;stroke-opacity:1"
           d="M 320.1434,52.59943 V 230.8469" />
      </g>
      <g
         transform="matrix(0.5454546,0,0,-0.5454546,65.83008,793.1904)"
         id="g859">
        <path
           id="path861"
           style="fill:none;stroke:#f59a23;stroke-width:1.8189;stroke-linecap:round;stroke-linejoin:round;stroke-miterlimit:10;stroke-dasharray:none;stroke-opacity:1"
           d="m 142.1444,231.9955 177.999,-1.1486" />
      </g>
      <g
         transform="matrix(0.5454546,0,0,-0.5454546,65.83008,793.1904)"
         id="g863">
        <path
           id="path865"
           style="fill:none;stroke:#f59a23;stroke-width:1.8189;stroke-linecap:round;stroke-linejoin:round;stroke-miterlimit:10;stroke-dasharray:none;stroke-opacity:1"
           d="M 201.4403,53.27195 V 231.1651" />
      </g>
      <g
         transform="matrix(0.5454546,0,0,-0.5454546,65.83008,793.1904)"
         id="g867">
        <path
           id="path869"
           style="fill:none;stroke:#f59a23;stroke-width:1.8189;stroke-linecap:round;stroke-linejoin:round;stroke-miterlimit:10;stroke-dasharray:none;stroke-opacity:1"
           d="m 261.5975,53.18873 0.4117,177.24997" />
      </g>
      <g
         transform="matrix(0.5454546,0,0,-0.5454546,65.83008,793.1904)"
         id="g871">
        <path
           id="path873"
           style="fill:none;stroke:#f59a23;stroke-width:1.8189;stroke-linecap:round;stroke-linejoin:round;stroke-miterlimit:10;stroke-dasharray:none;stroke-opacity:1"
           d="m 143.784,111.6834 176.0838,-0.3243" />
      </g>
      <g
         transform="matrix(0.5454546,0,0,-0.5454546,65.83008,793.1904)"
         id="g875">
        <path
           id="path877"
           style="fill:none;stroke:#f59a23;stroke-width:1.8189;stroke-linecap:round;stroke-linejoin:round;stroke-miterlimit:10;stroke-dasharray:none;stroke-opacity:1"
           d="m 143.3731,172.3602 176.8696,-0.6486" />
      </g>
      <g
         transform="matrix(0.5454546,0,0,-0.5454546,65.83008,793.1904)"
         id="g879">
        <path
           id="path881"
           style="fill:none;stroke:#f59a23;stroke-width:1.8189;stroke-linecap:round;stroke-linejoin:round;stroke-miterlimit:10;stroke-dasharray:none;stroke-opacity:1"
           d="m 169.5352,79.10476 c -0.2623,-0.22811 -0.3859,-0.32153 -0.3708,-0.28024 0.0107,0.0294 0.0375,0.10289 0.0804,0.22048 0.0428,0.11758 0.1347,0.26347 0.2757,0.43766 0.141,0.17419 0.3177,0.43514 0.5302,0.78286 0.2125,0.34772 0.5092,0.92671 0.8901,1.73697 0.3809,0.81025 0.7556,1.47789 1.124,2.0029 0.3683,0.52501 0.6145,0.85808 0.7386,0.99923 0.1876,0.21335 0.3604,0.31738 0.5186,0.3121" />
      </g>
      <g
         transform="matrix(0.5454546,0,0,-0.5454546,65.83008,793.1904)"
         id="g883">
        <path
           id="path885"
           style="fill:none;stroke:#f59a23;stroke-width:1.8189;stroke-linecap:round;stroke-linejoin:round;stroke-miterlimit:10;stroke-dasharray:none;stroke-opacity:1"
           d="m 168.1063,86.02192 c 0.0915,-0.39245 0.318,-0.78886 0.6795,-1.18922 0.3615,-0.40036 0.7196,-0.76444 1.0742,-1.09224 0.3547,-0.32779 0.8539,-0.73773 1.4975,-1.22982 0.9506,-0.72675 2.1336,-1.49962 3.5489,-2.3186" />
      </g>
      <g
         transform="matrix(0.5454546,0,0,-0.5454546,65.83008,793.1904)"
         id="g887">
        <path
           id="path889"
           style="fill:none;stroke:#f59a23;stroke-width:1.8189;stroke-linecap:round;stroke-linejoin:round;stroke-miterlimit:10;stroke-dasharray:none;stroke-opacity:1"
           d="m 229.5742,79.19518 c 0.4184,0.54808 0.8359,1.23629 1.2524,2.06462 0.4165,0.82834 0.8301,1.63831 1.2409,2.42991 0.4107,0.79161 0.7155,1.39196 0.9142,1.80107 0.1988,0.4091 0.3503,0.59097 0.4546,0.54562" />
      </g>
      <g
         transform="matrix(0.5454546,0,0,-0.5454546,65.83008,793.1904)"
         id="g891">
        <path
           id="path893"
           style="fill:none;stroke:#f59a23;stroke-width:1.8189;stroke-linecap:round;stroke-linejoin:round;stroke-miterlimit:10;stroke-dasharray:none;stroke-opacity:1"
           d="m 229.3169,86.21413 c -0.1803,-0.11451 -0.2735,-0.26858 -0.2796,-0.46222 -0.004,-0.13279 0.0717,-0.34236 0.2277,-0.62871 0.1559,-0.28635 0.3911,-0.61713 0.7054,-0.99236 0.3143,-0.37522 0.6711,-0.73672 1.0702,-1.0845 0.3991,-0.34778 0.8409,-0.68939 1.3253,-1.02481 0.7049,-0.48809 1.775,-1.28262 3.2101,-2.38359" />
      </g>
      <g
         transform="matrix(0.5454546,0,0,-0.5454546,65.83008,793.1904)"
         id="g895">
        <path
           id="path897"
           style="fill:none;stroke:#f59a23;stroke-width:1.8189;stroke-linecap:round;stroke-linejoin:round;stroke-miterlimit:10;stroke-dasharray:none;stroke-opacity:1"
           d="m 289.1283,79.22435 c -0.1006,0.30355 0.0511,0.66238 0.455,1.07651 0.4039,0.41412 0.7023,0.73062 0.8952,0.94951 0.1928,0.21887 0.4309,0.57587 0.7142,1.071 0.2834,0.49511 0.4958,0.91371 0.6373,1.2558 0.1414,0.34209 0.2668,0.60552 0.3762,0.79028 0.159,0.26843 0.3896,0.38964 0.692,0.36361" />
      </g>
      <g
         transform="matrix(0.5454546,0,0,-0.5454546,65.83008,793.1904)"
         id="g899">
        <path
           id="path901"
           style="fill:none;stroke:#f59a23;stroke-width:1.8189;stroke-linecap:round;stroke-linejoin:round;stroke-miterlimit:10;stroke-dasharray:none;stroke-opacity:1"
           d="m 288.8726,86.02469 c -0.1861,-0.11668 -0.2809,-0.28139 -0.2845,-0.49413 -0.002,-0.14572 0.0605,-0.37641 0.1886,-0.69206 0.1281,-0.31565 0.4752,-0.88627 1.0413,-1.71184 0.5661,-0.82557 1.028,-1.43407 1.3859,-1.8255 0.5188,-0.56747 1.5298,-1.36319 3.0331,-2.38715" />
      </g>
      <g
         transform="matrix(0.5454546,0,0,-0.5454546,65.83008,793.1904)"
         id="g903">
        <path
           id="path905"
           style="fill:none;stroke:#f59a23;stroke-width:1.8189;stroke-linecap:round;stroke-linejoin:round;stroke-miterlimit:10;stroke-dasharray:none;stroke-opacity:1"
           d="m 169.142,140.3807 c -0.073,-0.5547 -0.0274,-0.9002 0.1369,-1.0366 0.1148,-0.0952 0.3007,0.0506 0.5578,0.4373 0.2571,0.3867 0.5034,0.7943 0.7389,1.2229 0.2355,0.4286 0.4224,0.7406 0.5605,0.9361 0.2008,0.2842 0.5774,0.6741 1.1296,1.1699" />
      </g>
      <g
         transform="matrix(0.5454546,0,0,-0.5454546,65.83008,793.1904)"
         id="g907">
        <path
           id="path909"
           style="fill:none;stroke:#f59a23;stroke-width:1.8189;stroke-linecap:round;stroke-linejoin:round;stroke-miterlimit:10;stroke-dasharray:none;stroke-opacity:1"
           d="m 169.6623,145.6655 c -0.1793,-0.0791 -0.2695,-0.2285 -0.2706,-0.448 -10e-4,-0.2196 0.0967,-0.4792 0.2934,-0.779 0.1968,-0.2998 0.5682,-0.7489 1.1142,-1.3474 0.5461,-0.5984 1.1466,-1.2242 1.8016,-1.8774 0.655,-0.6532 1.0782,-1.0805 1.2695,-1.282 0.2752,-0.2898 0.9974,-0.8298 2.1669,-1.62" />
      </g>
      <g
         transform="matrix(0.5454546,0,0,-0.5454546,65.83008,793.1904)"
         id="g911">
        <path
           id="path913"
           style="fill:none;stroke:#f59a23;stroke-width:1.8189;stroke-linecap:round;stroke-linejoin:round;stroke-miterlimit:10;stroke-dasharray:none;stroke-opacity:1"
           d="m 172.6108,142.8706 c 0.2135,0.2843 0.3892,0.6135 0.5272,0.9878 0.2106,0.5713 0.4701,0.9774 0.7784,1.2185" />
      </g>
      <g
         transform="matrix(0.5454546,0,0,-0.5454546,65.83008,793.1904)"
         id="g915">
        <path
           id="path917"
           style="fill:none;stroke:#f59a23;stroke-width:1.8189;stroke-linecap:round;stroke-linejoin:round;stroke-miterlimit:10;stroke-dasharray:none;stroke-opacity:1"
           d="m 229.4575,144.0842 c -0.2113,0.1259 -0.3258,0.194 -0.3435,0.2045 -0.0124,0.007 -0.0112,0.003 0.004,-0.0143 0.0149,-0.0169 0.0872,-0.0991 0.2168,-0.2466 0.1296,-0.1475 0.5011,-0.7071 1.1145,-1.6787 0.6134,-0.9716 1.1224,-1.7303 1.5269,-2.2762 0.4046,-0.5458 0.7202,-0.9082 0.9469,-1.0871 0.3428,-0.2706 0.6757,-0.4252 0.9989,-0.4641" />
      </g>
      <g
         transform="matrix(0.5454546,0,0,-0.5454546,65.83008,793.1904)"
         id="g919">
        <path
           id="path921"
           style="fill:none;stroke:#f59a23;stroke-width:1.8189;stroke-linecap:round;stroke-linejoin:round;stroke-miterlimit:10;stroke-dasharray:none;stroke-opacity:1"
           d="m 228.2983,139.0196 c -0.2556,0 -0.0658,0.3629 0.5694,1.0887 0.6353,0.7259 1.0992,1.2628 1.3917,1.6108 0.2925,0.348 0.6572,0.8148 1.0941,1.4002 0.4368,0.5855 0.7464,0.9735 0.9286,1.1641 0.2622,0.2743 0.8013,0.3792 1.6171,0.3149" />
      </g>
      <g
         transform="matrix(0.5454546,0,0,-0.5454546,65.83008,793.1904)"
         id="g923">
        <path
           id="path925"
           style="fill:none;stroke:#f59a23;stroke-width:1.8189;stroke-linecap:round;stroke-linejoin:round;stroke-miterlimit:10;stroke-dasharray:none;stroke-opacity:1"
           d="m 289.7118,140.4433 c 0.0887,-0.1203 0.3006,0.0866 0.6358,0.6209 0.3352,0.5343 0.6547,0.9902 0.9586,1.3679 0.4542,0.5645 0.8527,1.1854 1.1955,1.8628" />
      </g>
      <g
         transform="matrix(0.5454546,0,0,-0.5454546,65.83008,793.1904)"
         id="g927">
        <path
           id="path929"
           style="fill:none;stroke:#f59a23;stroke-width:1.8189;stroke-linecap:round;stroke-linejoin:round;stroke-miterlimit:10;stroke-dasharray:none;stroke-opacity:1"
           d="m 289.0931,145.0254 c -0.2297,-0.3483 -0.2192,-0.6362 0.0316,-0.8636 0.176,-0.1596 0.5856,-0.3713 1.2287,-0.6351 0.6431,-0.2638 1.1567,-0.5074 1.5407,-0.7308 0.384,-0.2234 0.7432,-0.4641 1.0776,-0.722 0.4855,-0.3743 1.1566,-1.1029 2.0134,-2.1858" />
      </g>
      <g
         transform="matrix(0.5454546,0,0,-0.5454546,65.83008,793.1904)"
         id="g931">
        <path
           id="path933"
           style="fill:none;stroke:#f59a23;stroke-width:1.8189;stroke-linecap:round;stroke-linejoin:round;stroke-miterlimit:10;stroke-dasharray:none;stroke-opacity:1"
           d="m 290.3037,199.8954 c 0.3842,0.3091 0.6726,0.6301 0.8651,0.9628 0.1304,0.2254 0.2569,0.4902 0.3796,0.7946 0.1227,0.3043 0.2311,0.6179 0.3251,0.9406 0.0939,0.3228 0.1853,0.6852 0.274,1.0872 0.0888,0.4021 0.2449,0.7017 0.4683,0.8987" />
      </g>
      <g
         transform="matrix(0.5454546,0,0,-0.5454546,65.83008,793.1904)"
         id="g935">
        <path
           id="path937"
           style="fill:none;stroke:#f59a23;stroke-width:1.8189;stroke-linecap:round;stroke-linejoin:round;stroke-miterlimit:10;stroke-dasharray:none;stroke-opacity:1"
           d="m 289.1804,205.6613 c -0.1624,-0.0884 -0.1925,-0.2431 -0.0904,-0.4641 0.0718,-0.1554 0.2618,-0.4273 0.5701,-0.8157 0.3083,-0.3884 0.6284,-0.7657 0.9603,-1.1319 0.3319,-0.3661 0.916,-0.9192 1.7524,-1.6592 1.3011,-1.1511 2.2301,-2.1361 2.7869,-2.9549" />
      </g>
      <g
         transform="matrix(0.5454546,0,0,-0.5454546,65.83008,793.1904)"
         id="g939">
        <path
           id="path941"
           style="fill:none;stroke:#f59a23;stroke-width:1.8189;stroke-linecap:round;stroke-linejoin:round;stroke-miterlimit:10;stroke-dasharray:none;stroke-opacity:1"
           d="m 229.6676,199.9059 -0.2927,-0.1873 0.008,0.005 c 0.0275,0.0171 0.0963,0.0598 0.2063,0.1282 0.11,0.0684 0.3977,0.4671 0.863,1.1961 0.4653,0.7291 0.8109,1.2487 1.0369,1.5587 0.2261,0.3101 0.435,0.5775 0.627,0.8023 0.2819,0.3301 0.6787,0.7213 1.1904,1.1733" />
      </g>
      <g
         transform="matrix(0.5454546,0,0,-0.5454546,65.83008,793.1904)"
         id="g943">
        <path
           id="path945"
           style="fill:none;stroke:#f59a23;stroke-width:1.8189;stroke-linecap:round;stroke-linejoin:round;stroke-miterlimit:10;stroke-dasharray:none;stroke-opacity:1"
           d="m 229.0702,204.2677 c 0.3056,-0.6024 0.822,-1.299 1.5493,-2.0899 0.4715,-0.5126 0.9053,-0.9217 1.3014,-1.2273 0.5799,-0.4473 1.4213,-0.9818 2.5243,-1.6035" />
      </g>
      <g
         transform="matrix(0.5454546,0,0,-0.5454546,65.83008,793.1904)"
         id="g947">
        <path
           id="path949"
           style="fill:none;stroke:#f59a23;stroke-width:1.8189;stroke-linecap:round;stroke-linejoin:round;stroke-miterlimit:10;stroke-dasharray:none;stroke-opacity:1"
           d="m 169.1721,200.0285 c -0.0994,-0.2574 -0.1542,-0.3994 -0.1645,-0.4262 -0.007,-0.0188 -0.008,-0.0155 -0.003,0.01 0.005,0.0255 0.027,0.1278 0.0648,0.3071 0.0378,0.1794 0.2201,0.5406 0.5469,1.0838 0.3268,0.5432 0.5962,1.0102 0.8084,1.4012 0.2121,0.3909 0.4151,0.7381 0.609,1.0415 0.2833,0.4432 0.7933,0.928 1.5298,1.4543" />
      </g>
      <g
         transform="matrix(0.5454546,0,0,-0.5454546,65.83008,793.1904)"
         id="g951">
        <path
           id="path953"
           style="fill:none;stroke:#f59a23;stroke-width:1.8189;stroke-linecap:round;stroke-linejoin:round;stroke-miterlimit:10;stroke-dasharray:none;stroke-opacity:1"
           d="m 168.4901,205.5323 c -0.2472,0.0628 -0.3296,-0.0614 -0.2471,-0.3726 0.0604,-0.2282 0.3618,-0.6097 0.9042,-1.1443 0.5424,-0.5347 1.0479,-0.9837 1.5165,-1.3469 0.4687,-0.3633 0.978,-0.7885 1.5282,-1.2758 0.8017,-0.7101 1.9811,-1.8046 3.5382,-3.2834" />
      </g>
      <g
         transform="matrix(0.5454546,0,0,-0.5454546,212.6541,793.1707)"
         id="g955">
        <path
           id="path957"
           style="fill:none;stroke:#007aff;stroke-width:1.8189;stroke-linecap:round;stroke-linejoin:round;stroke-miterlimit:10;stroke-dasharray:none;stroke-opacity:1"
           d="M 142.1444,52.59943 V 231.9955" />
      </g>
      <g
         transform="matrix(0.5454546,0,0,-0.5454546,212.6541,793.1707)"
         id="g959">
        <path
           id="path961"
           style="fill:none;stroke:#007aff;stroke-width:1.8189;stroke-linecap:round;stroke-linejoin:round;stroke-miterlimit:10;stroke-dasharray:none;stroke-opacity:1"
           d="m 142.1444,52.59943 h 177.999" />
      </g>
      <g
         transform="matrix(0.5454546,0,0,-0.5454546,212.6541,793.1707)"
         id="g963">
        <path
           id="path965"
           style="fill:none;stroke:#007aff;stroke-width:1.8189;stroke-linecap:round;stroke-linejoin:round;stroke-miterlimit:10;stroke-dasharray:none;stroke-opacity:1"
           d="M 320.1434,52.59943 V 230.8469" />
      </g>
      <g
         transform="matrix(0.5454546,0,0,-0.5454546,212.6541,793.1707)"
         id="g967">
        <path
           id="path969"
           style="fill:none;stroke:#007aff;stroke-width:1.8189;stroke-linecap:round;stroke-linejoin:round;stroke-miterlimit:10;stroke-dasharray:none;stroke-opacity:1"
           d="m 142.1444,231.9955 177.999,-1.1486" />
      </g>
      <g
         transform="matrix(0.5454546,0,0,-0.5454546,212.6541,793.1707)"
         id="g971">
        <path
           id="path973"
           style="fill:none;stroke:#007aff;stroke-width:1.8189;stroke-linecap:round;stroke-linejoin:round;stroke-miterlimit:10;stroke-dasharray:none;stroke-opacity:1"
           d="M 201.4403,53.27195 V 231.1651" />
      </g>
      <g
         transform="matrix(0.5454546,0,0,-0.5454546,212.6541,793.1707)"
         id="g975">
        <path
           id="path977"
           style="fill:none;stroke:#007aff;stroke-width:1.8189;stroke-linecap:round;stroke-linejoin:round;stroke-miterlimit:10;stroke-dasharray:none;stroke-opacity:1"
           d="m 261.5975,53.18873 0.4117,177.24997" />
      </g>
      <g
         transform="matrix(0.5454546,0,0,-0.5454546,212.6541,793.1707)"
         id="g979">
        <path
           id="path981"
           style="fill:none;stroke:#007aff;stroke-width:1.8189;stroke-linecap:round;stroke-linejoin:round;stroke-miterlimit:10;stroke-dasharray:none;stroke-opacity:1"
           d="m 143.784,111.6834 176.0838,-0.3243" />
      </g>
      <g
         transform="matrix(0.5454546,0,0,-0.5454546,212.6541,793.1707)"
         id="g983">
        <path
           id="path985"
           style="fill:none;stroke:#007aff;stroke-width:1.8189;stroke-linecap:round;stroke-linejoin:round;stroke-miterlimit:10;stroke-dasharray:none;stroke-opacity:1"
           d="m 143.3731,172.3602 176.8696,-0.6486" />
      </g>
      <g
         transform="matrix(0.5454546,0,0,-0.5454546,212.6541,793.1707)"
         id="g987">
        <path
           id="path989"
           style="fill:none;stroke:#007aff;stroke-width:1.8189;stroke-linecap:round;stroke-linejoin:round;stroke-miterlimit:10;stroke-dasharray:none;stroke-opacity:1"
           d="m 169.5352,79.10476 c -0.2623,-0.22811 -0.3859,-0.32153 -0.3708,-0.28024 0.0107,0.0294 0.0375,0.10289 0.0804,0.22048 0.0428,0.11758 0.1347,0.26347 0.2757,0.43766 0.141,0.17419 0.3177,0.43514 0.5302,0.78286 0.2125,0.34772 0.5092,0.92671 0.8901,1.73697 0.3809,0.81025 0.7556,1.47789 1.124,2.0029 0.3683,0.52501 0.6145,0.85808 0.7386,0.99923 0.1876,0.21335 0.3604,0.31738 0.5186,0.3121" />
      </g>
      <g
         transform="matrix(0.5454546,0,0,-0.5454546,212.6541,793.1707)"
         id="g991">
        <path
           id="path993"
           style="fill:none;stroke:#007aff;stroke-width:1.8189;stroke-linecap:round;stroke-linejoin:round;stroke-miterlimit:10;stroke-dasharray:none;stroke-opacity:1"
           d="m 168.1063,86.02192 c 0.0915,-0.39245 0.318,-0.78886 0.6795,-1.18922 0.3615,-0.40036 0.7196,-0.76444 1.0742,-1.09224 0.3547,-0.32779 0.8539,-0.73773 1.4975,-1.22982 0.9506,-0.72675 2.1336,-1.49962 3.5489,-2.3186" />
      </g>
      <g
         transform="matrix(0.5454546,0,0,-0.5454546,212.6541,793.1707)"
         id="g995">
        <path
           id="path997"
           style="fill:none;stroke:#007aff;stroke-width:1.8189;stroke-linecap:round;stroke-linejoin:round;stroke-miterlimit:10;stroke-dasharray:none;stroke-opacity:1"
           d="m 229.5742,79.19518 c 0.4184,0.54808 0.8359,1.23629 1.2524,2.06462 0.4165,0.82834 0.8301,1.63831 1.2409,2.42991 0.4107,0.79161 0.7155,1.39196 0.9142,1.80107 0.1988,0.4091 0.3503,0.59097 0.4546,0.54562" />
      </g>
      <g
         transform="matrix(0.5454546,0,0,-0.5454546,212.6541,793.1707)"
         id="g999">
        <path
           id="path1001"
           style="fill:none;stroke:#007aff;stroke-width:1.8189;stroke-linecap:round;stroke-linejoin:round;stroke-miterlimit:10;stroke-dasharray:none;stroke-opacity:1"
           d="m 229.3169,86.21413 c -0.1803,-0.11451 -0.2735,-0.26858 -0.2796,-0.46222 -0.004,-0.13279 0.0717,-0.34236 0.2277,-0.62871 0.1559,-0.28635 0.3911,-0.61713 0.7054,-0.99236 0.3143,-0.37522 0.6711,-0.73672 1.0702,-1.0845 0.3991,-0.34778 0.8409,-0.68939 1.3253,-1.02481 0.7049,-0.48809 1.775,-1.28262 3.2101,-2.38359" />
      </g>
      <g
         transform="matrix(0.5454546,0,0,-0.5454546,212.6541,793.1707)"
         id="g1003">
        <path
           id="path1005"
           style="fill:none;stroke:#007aff;stroke-width:1.8189;stroke-linecap:round;stroke-linejoin:round;stroke-miterlimit:10;stroke-dasharray:none;stroke-opacity:1"
           d="m 289.1283,79.22435 c -0.1006,0.30355 0.0511,0.66238 0.455,1.07651 0.4039,0.41412 0.7023,0.73062 0.8952,0.94951 0.1928,0.21887 0.4309,0.57587 0.7142,1.071 0.2834,0.49511 0.4958,0.91371 0.6373,1.2558 0.1414,0.34209 0.2668,0.60552 0.3762,0.79028 0.159,0.26843 0.3896,0.38964 0.692,0.36361" />
      </g>
      <g
         transform="matrix(0.5454546,0,0,-0.5454546,212.6541,793.1707)"
         id="g1007">
        <path
           id="path1009"
           style="fill:none;stroke:#007aff;stroke-width:1.8189;stroke-linecap:round;stroke-linejoin:round;stroke-miterlimit:10;stroke-dasharray:none;stroke-opacity:1"
           d="m 288.8726,86.02469 c -0.1861,-0.11668 -0.2809,-0.28139 -0.2845,-0.49413 -0.002,-0.14572 0.0605,-0.37641 0.1886,-0.69206 0.1281,-0.31565 0.4752,-0.88627 1.0413,-1.71184 0.5661,-0.82557 1.028,-1.43407 1.3859,-1.8255 0.5188,-0.56747 1.5298,-1.36319 3.0331,-2.38715" />
      </g>
      <g
         transform="matrix(0.5454546,0,0,-0.5454546,212.6541,793.1707)"
         id="g1011">
        <path
           id="path1013"
           style="fill:none;stroke:#007aff;stroke-width:1.8189;stroke-linecap:round;stroke-linejoin:round;stroke-miterlimit:10;stroke-dasharray:none;stroke-opacity:1"
           d="m 169.142,140.3807 c -0.073,-0.5547 -0.0274,-0.9002 0.1369,-1.0366 0.1148,-0.0952 0.3007,0.0506 0.5578,0.4373 0.2571,0.3867 0.5034,0.7943 0.7389,1.2229 0.2355,0.4286 0.4224,0.7406 0.5605,0.9361 0.2008,0.2842 0.5774,0.6741 1.1296,1.1699" />
      </g>
      <g
         transform="matrix(0.5454546,0,0,-0.5454546,212.6541,793.1707)"
         id="g1015">
        <path
           id="path1017"
           style="fill:none;stroke:#007aff;stroke-width:1.8189;stroke-linecap:round;stroke-linejoin:round;stroke-miterlimit:10;stroke-dasharray:none;stroke-opacity:1"
           d="m 169.6623,145.6655 c -0.1793,-0.0791 -0.2695,-0.2285 -0.2706,-0.448 -10e-4,-0.2196 0.0967,-0.4792 0.2934,-0.779 0.1968,-0.2998 0.5682,-0.7489 1.1142,-1.3474 0.5461,-0.5984 1.1466,-1.2242 1.8016,-1.8774 0.655,-0.6532 1.0782,-1.0805 1.2695,-1.282 0.2752,-0.2898 0.9974,-0.8298 2.1669,-1.62" />
      </g>
      <g
         transform="matrix(0.5454546,0,0,-0.5454546,212.6541,793.1707)"
         id="g1019">
        <path
           id="path1021"
           style="fill:none;stroke:#007aff;stroke-width:1.8189;stroke-linecap:round;stroke-linejoin:round;stroke-miterlimit:10;stroke-dasharray:none;stroke-opacity:1"
           d="m 172.6108,142.8706 c 0.2135,0.2843 0.3892,0.6135 0.5272,0.9878 0.2106,0.5713 0.4701,0.9774 0.7784,1.2185" />
      </g>
      <g
         transform="matrix(0.5454546,0,0,-0.5454546,212.6541,793.1707)"
         id="g1023">
        <path
           id="path1025"
           style="fill:none;stroke:#007aff;stroke-width:1.8189;stroke-linecap:round;stroke-linejoin:round;stroke-miterlimit:10;stroke-dasharray:none;stroke-opacity:1"
           d="m 229.4575,144.0842 c -0.2113,0.1259 -0.3258,0.194 -0.3435,0.2045 -0.0124,0.007 -0.0112,0.003 0.004,-0.0143 0.0149,-0.0169 0.0872,-0.0991 0.2168,-0.2466 0.1296,-0.1475 0.5011,-0.7071 1.1145,-1.6787 0.6134,-0.9716 1.1224,-1.7303 1.5269,-2.2762 0.4046,-0.5458 0.7202,-0.9082 0.9469,-1.0871 0.3428,-0.2706 0.6757,-0.4252 0.9989,-0.4641" />
      </g>
      <g
         transform="matrix(0.5454546,0,0,-0.5454546,212.6541,793.1707)"
         id="g1027">
        <path
           id="path1029"
           style="fill:none;stroke:#007aff;stroke-width:1.8189;stroke-linecap:round;stroke-linejoin:round;stroke-miterlimit:10;stroke-dasharray:none;stroke-opacity:1"
           d="m 228.2983,139.0196 c -0.2556,0 -0.0658,0.3629 0.5694,1.0887 0.6353,0.7259 1.0992,1.2628 1.3917,1.6108 0.2925,0.348 0.6572,0.8148 1.0941,1.4002 0.4368,0.5855 0.7464,0.9735 0.9286,1.1641 0.2622,0.2743 0.8013,0.3792 1.6171,0.3149" />
      </g>
      <g
         transform="matrix(0.5454546,0,0,-0.5454546,212.6541,793.1707)"
         id="g1031">
        <path
           id="path1033"
           style="fill:none;stroke:#007aff;stroke-width:1.8189;stroke-linecap:round;stroke-linejoin:round;stroke-miterlimit:10;stroke-dasharray:none;stroke-opacity:1"
           d="m 289.7118,140.4433 c 0.0887,-0.1203 0.3006,0.0866 0.6358,0.6209 0.3352,0.5343 0.6547,0.9902 0.9586,1.3679 0.4542,0.5645 0.8527,1.1854 1.1955,1.8628" />
      </g>
      <g
         transform="matrix(0.5454546,0,0,-0.5454546,212.6541,793.1707)"
         id="g1035">
        <path
           id="path1037"
           style="fill:none;stroke:#007aff;stroke-width:1.8189;stroke-linecap:round;stroke-linejoin:round;stroke-miterlimit:10;stroke-dasharray:none;stroke-opacity:1"
           d="m 289.0931,145.0254 c -0.2297,-0.3483 -0.2192,-0.6362 0.0316,-0.8636 0.176,-0.1596 0.5856,-0.3713 1.2287,-0.6351 0.6431,-0.2638 1.1567,-0.5074 1.5407,-0.7308 0.384,-0.2234 0.7432,-0.4641 1.0776,-0.722 0.4855,-0.3743 1.1566,-1.1029 2.0134,-2.1858" />
      </g>
      <g
         transform="matrix(0.5454546,0,0,-0.5454546,212.6541,793.1707)"
         id="g1039">
        <path
           id="path1041"
           style="fill:none;stroke:#007aff;stroke-width:1.8189;stroke-linecap:round;stroke-linejoin:round;stroke-miterlimit:10;stroke-dasharray:none;stroke-opacity:1"
           d="m 290.3037,199.8954 c 0.3842,0.3091 0.6726,0.6301 0.8651,0.9628 0.1304,0.2254 0.2569,0.4902 0.3796,0.7946 0.1227,0.3043 0.2311,0.6179 0.3251,0.9406 0.0939,0.3228 0.1853,0.6852 0.274,1.0872 0.0888,0.4021 0.2449,0.7017 0.4683,0.8987" />
      </g>
      <g
         transform="matrix(0.5454546,0,0,-0.5454546,212.6541,793.1707)"
         id="g1043">
        <path
           id="path1045"
           style="fill:none;stroke:#007aff;stroke-width:1.8189;stroke-linecap:round;stroke-linejoin:round;stroke-miterlimit:10;stroke-dasharray:none;stroke-opacity:1"
           d="m 289.1804,205.6613 c -0.1624,-0.0884 -0.1925,-0.2431 -0.0904,-0.4641 0.0718,-0.1554 0.2618,-0.4273 0.5701,-0.8157 0.3083,-0.3884 0.6284,-0.7657 0.9603,-1.1319 0.3319,-0.3661 0.916,-0.9192 1.7524,-1.6592 1.3011,-1.1511 2.2301,-2.1361 2.7869,-2.9549" />
      </g>
      <g
         transform="matrix(0.5454546,0,0,-0.5454546,212.6541,793.1707)"
         id="g1047">
        <path
           id="path1049"
           style="fill:none;stroke:#007aff;stroke-width:1.8189;stroke-linecap:round;stroke-linejoin:round;stroke-miterlimit:10;stroke-dasharray:none;stroke-opacity:1"
           d="m 229.6676,199.9059 -0.2927,-0.1873 0.008,0.005 c 0.0275,0.0171 0.0963,0.0598 0.2063,0.1282 0.11,0.0684 0.3977,0.4671 0.863,1.1961 0.4653,0.7291 0.8109,1.2487 1.0369,1.5587 0.2261,0.3101 0.435,0.5775 0.627,0.8023 0.2819,0.3301 0.6787,0.7213 1.1904,1.1733" />
      </g>
      <g
         transform="matrix(0.5454546,0,0,-0.5454546,212.6541,793.1707)"
         id="g1051">
        <path
           id="path1053"
           style="fill:none;stroke:#007aff;stroke-width:1.8189;stroke-linecap:round;stroke-linejoin:round;stroke-miterlimit:10;stroke-dasharray:none;stroke-opacity:1"
           d="m 229.0702,204.2677 c 0.3056,-0.6024 0.822,-1.299 1.5493,-2.0899 0.4715,-0.5126 0.9053,-0.9217 1.3014,-1.2273 0.5799,-0.4473 1.4213,-0.9818 2.5243,-1.6035" />
      </g>
      <g
         transform="matrix(0.5454546,0,0,-0.5454546,212.6541,793.1707)"
         id="g1055">
        <path
           id="path1057"
           style="fill:none;stroke:#007aff;stroke-width:1.8189;stroke-linecap:round;stroke-linejoin:round;stroke-miterlimit:10;stroke-dasharray:none;stroke-opacity:1"
           d="m 169.1721,200.0285 c -0.0994,-0.2574 -0.1542,-0.3994 -0.1645,-0.4262 -0.007,-0.0188 -0.008,-0.0155 -0.003,0.01 0.005,0.0255 0.027,0.1278 0.0648,0.3071 0.0378,0.1794 0.2201,0.5406 0.5469,1.0838 0.3268,0.5432 0.5962,1.0102 0.8084,1.4012 0.2121,0.3909 0.4151,0.7381 0.609,1.0415 0.2833,0.4432 0.7933,0.928 1.5298,1.4543" />
      </g>
      <g
         transform="matrix(0.5454546,0,0,-0.5454546,212.6541,793.1707)"
         id="g1059">
        <path
           id="path1061"
           style="fill:none;stroke:#007aff;stroke-width:1.8189;stroke-linecap:round;stroke-linejoin:round;stroke-miterlimit:10;stroke-dasharray:none;stroke-opacity:1"
           d="m 168.4901,205.5323 c -0.2472,0.0628 -0.3296,-0.0614 -0.2471,-0.3726 0.0604,-0.2282 0.3618,-0.6097 0.9042,-1.1443 0.5424,-0.5347 1.0479,-0.9837 1.5165,-1.3469 0.4687,-0.3633 0.978,-0.7885 1.5282,-1.2758 0.8017,-0.7101 1.9811,-1.8046 3.5382,-3.2834" />
      </g>
      <g
         transform="matrix(0.5454546,0,0,-0.5454546,65.83008,793.1904)"
         id="g1063">
        <path
           id="path1065"
           style="fill:none;stroke:#f59a23;stroke-width:1.83907;stroke-linecap:round;stroke-linejoin:round;stroke-miterlimit:10;stroke-dasharray:none;stroke-opacity:1"
           d="M 453.808,16.25049 377.2564,180.6904" />
      </g>
      <g
         transform="matrix(0.5454546,0,0,-0.5454546,65.83008,793.1904)"
         id="g1067">
        <path
           id="path1069"
           style="fill:none;stroke:#f59a23;stroke-width:1.83907;stroke-linecap:round;stroke-linejoin:round;stroke-miterlimit:10;stroke-dasharray:none;stroke-opacity:1"
           d="m 453.808,16.25049 163.1593,75.9555" />
      </g>
      <g
         transform="matrix(0.5454546,0,0,-0.5454546,65.83008,793.1904)"
         id="g1071">
        <path
           id="path1073"
           style="fill:none;stroke:#f59a23;stroke-width:1.83907;stroke-linecap:round;stroke-linejoin:round;stroke-miterlimit:10;stroke-dasharray:none;stroke-opacity:1"
           d="M 616.9673,92.20599 540.9058,255.593" />
      </g>
      <g
         transform="matrix(0.5454546,0,0,-0.5454546,65.83008,793.1904)"
         id="g1075">
        <path
           id="path1077"
           style="fill:none;stroke:#f59a23;stroke-width:1.83907;stroke-linecap:round;stroke-linejoin:round;stroke-miterlimit:10;stroke-dasharray:none;stroke-opacity:1"
           d="M 377.2564,180.6904 540.9058,255.593" />
      </g>
      <g
         transform="matrix(0.5454546,0,0,-0.5454546,65.83008,793.1904)"
         id="g1079">
        <path
           id="path1081"
           style="fill:none;stroke:#f59a23;stroke-width:1.83907;stroke-linecap:round;stroke-linejoin:round;stroke-miterlimit:10;stroke-dasharray:none;stroke-opacity:1"
           d="M 507.8735,42.16962 431.9632,205.2319" />
      </g>
      <g
         transform="matrix(0.5454546,0,0,-0.5454546,65.83008,793.1904)"
         id="g1083">
        <path
           id="path1085"
           style="fill:none;stroke:#f59a23;stroke-width:1.83907;stroke-linecap:round;stroke-linejoin:round;stroke-miterlimit:10;stroke-dasharray:none;stroke-opacity:1"
           d="M 563.0509,67.76355 487.7924,230.4119" />
      </g>
      <g
         transform="matrix(0.5454546,0,0,-0.5454546,65.83008,793.1904)"
         id="g1087">
        <path
           id="path1089"
           style="fill:none;stroke:#f59a23;stroke-width:1.83907;stroke-linecap:round;stroke-linejoin:round;stroke-miterlimit:10;stroke-dasharray:none;stroke-opacity:1"
           d="M 430.0988,71.10834 591.6409,145.9493" />
      </g>
      <g
         transform="matrix(0.5454546,0,0,-0.5454546,65.83008,793.1904)"
         id="g1091">
        <path
           id="path1093"
           style="fill:none;stroke:#f59a23;stroke-width:1.83907;stroke-linecap:round;stroke-linejoin:round;stroke-miterlimit:10;stroke-dasharray:none;stroke-opacity:1"
           d="m 403.8301,126.5512 162.4009,74.879" />
      </g>
      <g
         transform="matrix(0.5454546,0,0,-0.5454546,65.83008,793.1904)"
         id="g1095">
        <path
           id="path1097"
           style="fill:none;stroke:#f59a23;stroke-width:1.83907;stroke-linecap:round;stroke-linejoin:round;stroke-miterlimit:10;stroke-dasharray:none;stroke-opacity:1"
           d="m 467.6049,52.23425 c -0.143,-0.32101 -0.2165,-0.45938 -0.2203,-0.4151 -0.003,0.03152 -0.01,0.11031 -0.0204,0.23638 -0.0109,0.12606 0.0111,0.29901 0.066,0.51884 0.0549,0.21982 0.1055,0.53443 0.152,0.94383 0.0463,0.40941 0.0712,1.06674 0.0747,1.972 0.003,0.90525 0.0619,1.67709 0.1755,2.31553 0.1137,0.63842 0.1972,1.0488 0.2507,1.23112 0.0809,0.27559 0.1949,0.44471 0.3421,0.50734" />
      </g>
      <g
         transform="matrix(0.5454546,0,0,-0.5454546,65.83008,793.1904)"
         id="g1099">
        <path
           id="path1101"
           style="fill:none;stroke:#f59a23;stroke-width:1.83907;stroke-linecap:round;stroke-linejoin:round;stroke-miterlimit:10;stroke-dasharray:none;stroke-opacity:1"
           d="m 463.3435,57.965 c 0.2513,-0.3207 0.6281,-0.58741 1.1303,-0.80013 0.5022,-0.21272 0.9858,-0.39364 1.4508,-0.54277 0.4649,-0.14913 1.0974,-0.3119 1.8974,-0.48831 1.1814,-0.26052 2.5956,-0.46416 4.2424,-0.61092" />
      </g>
      <g
         transform="matrix(0.5454546,0,0,-0.5454546,65.83008,793.1904)"
         id="g1103">
        <path
           id="path1105"
           style="fill:none;stroke:#f59a23;stroke-width:1.83907;stroke-linecap:round;stroke-linejoin:round;stroke-miterlimit:10;stroke-dasharray:none;stroke-opacity:1"
           d="m 522.5999,77.93689 c 0.1497,0.68093 0.2387,1.4899 0.267,2.42691 0.0283,0.93701 0.0619,1.85596 0.1005,2.75684 0.0387,0.90087 0.0619,1.58122 0.0695,2.04103 0.008,0.45981 0.0689,0.69118 0.1839,0.69413" />
      </g>
      <g
         transform="matrix(0.5454546,0,0,-0.5454546,65.83008,793.1904)"
         id="g1107">
        <path
           id="path1109"
           style="fill:none;stroke:#f59a23;stroke-width:1.83907;stroke-linecap:round;stroke-linejoin:round;stroke-miterlimit:10;stroke-dasharray:none;stroke-opacity:1"
           d="m 519.369,84.26089 c -0.1164,-0.18192 -0.1362,-0.36293 -0.0591,-0.54303 0.0528,-0.12349 0.2118,-0.2832 0.477,-0.47914 0.2651,-0.19593 0.6218,-0.39879 1.07,-0.60859 0.4483,-0.20981 0.9295,-0.38895 1.4438,-0.53742 0.5143,-0.14847 1.065,-0.27307 1.6522,-0.37382 0.8544,-0.1466 2.1742,-0.41829 3.9595,-0.81508" />
      </g>
      <g
         transform="matrix(0.5454546,0,0,-0.5454546,65.83008,793.1904)"
         id="g1111">
        <path
           id="path1113"
           style="fill:none;stroke:#f59a23;stroke-width:1.83907;stroke-linecap:round;stroke-linejoin:round;stroke-miterlimit:10;stroke-dasharray:none;stroke-opacity:1"
           d="m 577.1766,103.3765 c -0.2217,0.2353 -0.2358,0.6289 -0.0423,1.1809 0.1935,0.5519 0.3319,0.9694 0.4153,1.2523 0.0834,0.2829 0.1493,0.7118 0.1977,1.2865 0.0484,0.5747 0.0645,1.0491 0.0482,1.423 -0.0163,0.374 -0.0137,0.669 0.008,0.885 0.0312,0.3139 0.1909,0.5234 0.4791,0.6286" />
      </g>
      <g
         transform="matrix(0.5454546,0,0,-0.5454546,65.83008,793.1904)"
         id="g1115">
        <path
           id="path1117"
           style="fill:none;stroke:#f59a23;stroke-width:1.83907;stroke-linecap:round;stroke-linejoin:round;stroke-miterlimit:10;stroke-dasharray:none;stroke-opacity:1"
           d="m 574.0403,109.5008 c -0.1208,-0.1864 -0.1374,-0.3779 -0.0499,-0.5744 0.06,-0.1346 0.216,-0.3192 0.4682,-0.5539 0.2521,-0.2346 0.8138,-0.6096 1.685,-1.1248 0.8711,-0.5152 1.5542,-0.8758 2.0493,-1.0819 0.7177,-0.2988 1.984,-0.5967 3.7989,-0.8938" />
      </g>
      <g
         transform="matrix(0.5454546,0,0,-0.5454546,65.83008,793.1904)"
         id="g1119">
        <path
           id="path1121"
           style="fill:none;stroke:#f59a23;stroke-width:1.83907;stroke-linecap:round;stroke-linejoin:round;stroke-miterlimit:10;stroke-dasharray:none;stroke-opacity:1"
           d="m 441.097,108.2339 c 0.1697,-0.5397 0.359,-0.8369 0.5677,-0.8918 0.1459,-0.0383 0.2541,0.1746 0.3247,0.6388 0.0707,0.4642 0.1225,0.943 0.1555,1.4363 0.033,0.4933 0.0711,0.8591 0.1143,1.0972 0.0629,0.3462 0.2416,0.8643 0.5363,1.5544" />
      </g>
      <g
         transform="matrix(0.5454546,0,0,-0.5454546,65.83008,793.1904)"
         id="g1123">
        <path
           id="path1125"
           style="fill:none;stroke:#f59a23;stroke-width:1.83907;stroke-linecap:round;stroke-linejoin:round;stroke-miterlimit:10;stroke-dasharray:none;stroke-opacity:1"
           d="m 439.3187,113.3 c -0.1305,-0.149 -0.1495,-0.3244 -0.0568,-0.5261 0.0926,-0.2017 0.2931,-0.398 0.6014,-0.5888 0.3082,-0.1908 0.8403,-0.444 1.5962,-0.7596 0.7559,-0.3155 1.5734,-0.6329 2.4525,-0.9521 0.8791,-0.3192 1.4494,-0.5303 1.7107,-0.6334 0.3759,-0.1482 1.2684,-0.335 2.6775,-0.5604" />
      </g>
      <g
         transform="matrix(0.5454546,0,0,-0.5454546,65.83008,793.1904)"
         id="g1127">
        <path
           id="path1129"
           style="fill:none;stroke:#f59a23;stroke-width:1.83907;stroke-linecap:round;stroke-linejoin:round;stroke-miterlimit:10;stroke-dasharray:none;stroke-opacity:1"
           d="m 443.2141,111.9964 c 0.0744,0.3516 0.0949,0.7284 0.0617,1.1304 -0.0507,0.6135 0.0138,1.0965 0.1936,1.449" />
      </g>
      <g
         transform="matrix(0.5454546,0,0,-0.5454546,65.83008,793.1904)"
         id="g1131">
        <path
           id="path1133"
           style="fill:none;stroke:#f59a23;stroke-width:1.83907;stroke-linecap:round;stroke-linejoin:round;stroke-miterlimit:10;stroke-dasharray:none;stroke-opacity:1"
           d="m 494.8036,137.3664 c -0.2474,0.0251 -0.3815,0.0387 -0.4022,0.0408 -0.0145,0.002 -0.0114,-0.002 0.01,-0.0115 0.0208,-0.009 0.1222,-0.0537 0.3039,-0.1336 0.1818,-0.08 0.7611,-0.4343 1.7379,-1.0632 0.9769,-0.6288 1.7672,-1.1071 2.3709,-1.4348 0.6038,-0.3277 1.0477,-0.5252 1.3319,-0.5925 0.4296,-0.1017 0.8008,-0.1014 1.1137,9e-4" />
      </g>
      <g
         transform="matrix(0.5454546,0,0,-0.5454546,65.83008,793.1904)"
         id="g1135">
        <path
           id="path1137"
           style="fill:none;stroke:#f59a23;stroke-width:1.83907;stroke-linecap:round;stroke-linejoin:round;stroke-miterlimit:10;stroke-dasharray:none;stroke-opacity:1"
           d="m 495.9022,132.2293 c -0.2343,-0.1091 -0.2152,0.3046 0.0574,1.2409 0.2725,0.9364 0.4686,1.6266 0.5883,2.0704 0.1196,0.4438 0.2547,1.0272 0.4053,1.7503 0.1506,0.7231 0.2688,1.2109 0.3545,1.4633 0.1234,0.3633 0.5727,0.6896 1.348,0.9787" />
      </g>
      <g
         transform="matrix(0.5454546,0,0,-0.5454546,65.83008,793.1904)"
         id="g1139">
        <path
           id="path1141"
           style="fill:none;stroke:#f59a23;stroke-width:1.83907;stroke-linecap:round;stroke-linejoin:round;stroke-miterlimit:10;stroke-dasharray:none;stroke-opacity:1"
           d="m 551.5881,159.7406 c 0.1327,-0.0725 0.2386,0.2077 0.3179,0.8404 0.0793,0.6328 0.1776,1.1871 0.295,1.663 0.1754,0.7111 0.2757,1.4503 0.3009,2.2175" />
      </g>
      <g
         transform="matrix(0.5454546,0,0,-0.5454546,65.83008,793.1904)"
         id="g1143">
        <path
           id="path1145"
           style="fill:none;stroke:#f59a23;stroke-width:1.83907;stroke-linecap:round;stroke-linejoin:round;stroke-miterlimit:10;stroke-dasharray:none;stroke-opacity:1"
           d="m 549.0658,163.6767 c -0.062,-0.4174 0.0705,-0.6767 0.3975,-0.7782 0.2294,-0.0712 0.6951,-0.0905 1.3972,-0.0578 0.7021,0.0327 1.2768,0.0285 1.7241,-0.0124 0.4473,-0.0409 0.8793,-0.1083 1.2959,-0.202 0.6047,-0.136 1.5308,-0.5174 2.7783,-1.1444" />
      </g>
      <g
         transform="matrix(0.5454546,0,0,-0.5454546,65.83008,793.1904)"
         id="g1147">
        <path
           id="path1149"
           style="fill:none;stroke:#f59a23;stroke-width:1.83907;stroke-linecap:round;stroke-linejoin:round;stroke-miterlimit:10;stroke-dasharray:none;stroke-opacity:1"
           d="m 526.7614,214.4887 c 0.2203,0.4474 0.3477,0.8646 0.3821,1.2518 0.0233,0.2621 0.0263,0.5589 0.009,0.8902 -0.0174,0.3314 -0.0519,0.6651 -0.1034,1.001 -0.0516,0.336 -0.1225,0.7071 -0.2128,1.1135 -0.0902,0.4064 -0.0749,0.7476 0.0458,1.0236" />
      </g>
      <g
         transform="matrix(0.5454546,0,0,-0.5454546,65.83008,793.1904)"
         id="g1151">
        <path
           id="path1153"
           style="fill:none;stroke:#f59a23;stroke-width:1.83907;stroke-linecap:round;stroke-linejoin:round;stroke-miterlimit:10;stroke-dasharray:none;stroke-opacity:1"
           d="m 523.2714,219.2946 c -0.1112,-0.1503 -0.0728,-0.305 0.1151,-0.4639 0.1321,-0.1119 0.4224,-0.28 0.8706,-0.5045 0.4483,-0.2245 0.9027,-0.4337 1.3632,-0.6277 0.4605,-0.194 1.232,-0.4517 2.3144,-0.7731 1.6838,-0.5 2.9556,-1.0064 3.8154,-1.5193" />
      </g>
      <g
         transform="matrix(0.5454546,0,0,-0.5454546,65.83008,793.1904)"
         id="g1155">
        <path
           id="path1157"
           style="fill:none;stroke:#f59a23;stroke-width:1.83907;stroke-linecap:round;stroke-linejoin:round;stroke-miterlimit:10;stroke-dasharray:none;stroke-opacity:1"
           d="m 471.1761,188.6238 -0.1884,-0.2966 0.005,0.008 c 0.018,0.0275 0.0627,0.096 0.1344,0.2056 0.0717,0.1096 0.1652,0.5979 0.2806,1.4647 0.1154,0.8668 0.2105,1.4905 0.2854,1.8712 0.0749,0.3806 0.1523,0.715 0.2323,1.0029 0.1175,0.4229 0.3144,0.9508 0.5905,1.5835" />
      </g>
      <g
         transform="matrix(0.5454546,0,0,-0.5454546,65.83008,793.1904)"
         id="g1159">
        <path
           id="path1161"
           style="fill:none;stroke:#f59a23;stroke-width:1.83907;stroke-linecap:round;stroke-linejoin:round;stroke-miterlimit:10;stroke-dasharray:none;stroke-opacity:1"
           d="m 468.7672,192.367 c 0.5371,-0.4217 1.3078,-0.8399 2.3119,-1.2545 0.6509,-0.2687 1.2231,-0.4586 1.7166,-0.5696 0.7224,-0.1626 1.7218,-0.2935 2.9981,-0.3928" />
      </g>
      <g
         transform="matrix(0.5454546,0,0,-0.5454546,65.83008,793.1904)"
         id="g1163">
        <path
           id="path1165"
           style="fill:none;stroke:#f59a23;stroke-width:1.83907;stroke-linecap:round;stroke-linejoin:round;stroke-miterlimit:10;stroke-dasharray:none;stroke-opacity:1"
           d="m 415.6717,162.9217 c 0.0187,-0.2784 0.0291,-0.432 0.0311,-0.4609 10e-4,-0.0203 -0.001,-0.0177 -0.007,0.008 -0.006,0.0256 -0.0298,0.1286 -0.0717,0.3091 -0.0418,0.1805 -0.0289,0.5894 0.0389,1.2268 0.0678,0.6373 0.1154,1.1804 0.1431,1.6293 0.0276,0.4488 0.0655,0.8537 0.1138,1.2146 0.0706,0.5271 0.3311,1.1891 0.7817,1.9858" />
      </g>
      <g
         transform="matrix(0.5454546,0,0,-0.5454546,65.83008,793.1904)"
         id="g1167">
        <path
           id="path1169"
           style="fill:none;stroke:#f59a23;stroke-width:1.83907;stroke-linecap:round;stroke-linejoin:round;stroke-miterlimit:10;stroke-dasharray:none;stroke-opacity:1"
           d="m 412.698,167.6756 c -0.2534,-0.0479 -0.2759,-0.1969 -0.0676,-0.447 0.1528,-0.1834 0.5919,-0.4045 1.3172,-0.6631 0.7253,-0.2586 1.3803,-0.4544 1.9648,-0.5874 0.5846,-0.133 1.233,-0.3055 1.9452,-0.5174 1.0379,-0.3088 2.586,-0.8088 4.6443,-1.4998" />
      </g>
      <g
         transform="matrix(0.5454546,0,0,-0.5454546,0,841.68)"
         id="g1171">
        <path
           id="path1173"
           style="fill:none;stroke:#007aff;stroke-width:1.8189;stroke-linecap:round;stroke-linejoin:round;stroke-miterlimit:10;stroke-dasharray:none;stroke-opacity:1"
           d="m 419.6342,115.6588 c -1.3914,0.4869 -2.24,0.8234 -2.5457,1.0096 -0.2131,0.1298 -0.2992,0.1341 -0.2585,0.0127 0.0408,-0.1214 0.1427,-0.4247 0.3057,-0.9102 0.163,-0.4854 1.0999,-1.7223 2.8107,-3.7107 1.7108,-1.9884 3.0083,-3.4567 3.8923,-4.4048 0.8841,-0.9482 1.8142,-1.8477 2.7905,-2.6985 0.9761,-0.8508 2.1257,-1.738 3.4487,-2.6617 1.3229,-0.9236 3.3731,-2.105 6.1507,-3.54398 2.7775,-1.43902 4.5723,-2.34673 5.3843,-2.72314 0.8121,-0.37642 1.7564,-0.75385 2.833,-1.1323 1.0767,-0.37845 2.2429,-0.74179 3.4987,-1.09004 1.2558,-0.34825 3.0342,-0.76356 5.3351,-1.24594 2.3009,-0.48238 5.0789,-0.98444 8.3341,-1.50619 3.2551,-0.52175 5.8919,-0.89188 7.9104,-1.1104 2.0184,-0.21853 3.6746,-0.33099 4.9684,-0.33739 1.2938,-0.0064 2.7216,0.05946 4.2832,0.19757 1.5615,0.13812 4.1522,0.2104 7.7718,0.21686 3.6197,0.0065 6.2758,0.29117 7.9686,0.85418 1.6927,0.563 3.1228,0.92178 4.2903,1.07634 1.1674,0.15455 2.2035,0.41591 3.1081,0.78408 0.9046,0.36816 1.8881,0.9021 2.9505,1.6018 1.0624,0.69971 2.0556,1.249 2.9795,1.64785 0.9239,0.39886 2.1845,0.84566 3.7816,1.34038 1.5971,0.49473 3.0298,1.12726 4.298,1.89761 1.2682,0.77034 2.4729,1.32611 3.6141,1.66741 1.1412,0.3412 2.0518,0.0939 2.7318,-0.7418" />
      </g>
      <g
         transform="matrix(0.5454546,0,0,-0.5454546,0,841.68)"
         id="g1175">
        <path
           id="path1177"
           style="fill:none;stroke:#007aff;stroke-width:1.8189;stroke-linecap:round;stroke-linejoin:round;stroke-miterlimit:10;stroke-dasharray:none;stroke-opacity:1"
           d="m 524.9396,97.13708 c -0.3316,-1.91851 -0.1302,-2.48322 0.6042,-1.69412 0.534,0.5738 1.2722,1.75474 2.2145,3.54282 0.9423,1.78812 1.5548,3.12142 1.8374,3.99992 0.2826,0.8785 0.4323,1.8677 0.4489,2.9675 0.0165,1.0997 -0.1866,1.9114 -0.6094,2.435 -0.4227,0.5236 -0.9291,0.9477 -1.5192,1.2724 -0.5901,0.3247 -1.6425,0.6166 -3.1572,0.8756 -2.2368,0.3825 -4.7571,0.2377 -7.561,-0.4343" />
      </g>
      <g
         transform="matrix(0.5454546,0,0,-0.5454546,0,841.68)"
         id="g1179">
        <path
           id="path1181"
           style="fill:none;stroke:#007aff;stroke-width:1.8189;stroke-linecap:round;stroke-linejoin:round;stroke-miterlimit:10;stroke-dasharray:none;stroke-opacity:1"
           d="m 432.6227,64.94817 c 0.0517,4.79247 -0.0429,8.08913 -0.2838,9.88997 -0.1664,1.24486 -0.3768,1.76196 -0.6311,1.55129 -0.2544,-0.21067 -0.417,-1.20053 -0.488,-2.96958 -0.071,-1.76904 -0.1068,-5.56608 -0.1075,-11.39111 l -0.0661,-7.47233 -0.024,0.21422 c -0.0593,0.98628 -0.0355,1.80781 0.0712,2.46459 0.1068,0.65678 0.4287,1.48065 0.9656,2.4716 0.537,0.99095 1.0585,1.61453 1.5647,1.87073 0.7387,0.37393 1.7862,0.51557 3.1426,0.42492" />
      </g>
      <g
         transform="matrix(0.5454546,0,0,-0.5454546,0,841.68)"
         id="g1183">
        <path
           id="path1185"
           style="fill:none;stroke:#007aff;stroke-width:1.8189;stroke-linecap:round;stroke-linejoin:round;stroke-miterlimit:10;stroke-dasharray:none;stroke-opacity:1"
           d="m 446.6902,66.70525 c -0.5948,-0.85901 -1.4104,-1.12367 -2.4466,-0.79398 -0.7193,0.22886 -1.2582,0.72049 -1.6167,1.4749 -0.3585,0.75441 -0.5824,1.62493 -0.6717,2.61154 -0.0892,0.98661 -0.0983,1.89472 -0.0271,2.72432 0.0712,0.8296 0.334,1.46611 0.7883,1.90954 0.4544,0.44342 1.0697,0.65197 1.8459,0.62565 0.7763,-0.02632 1.492,-0.43838 2.1473,-1.23616 0.6552,-0.79779 1.2278,-1.71083 1.7176,-2.73912 0.4899,-1.02829 0.7907,-1.87071 0.9026,-2.52726 0.1119,-0.65654 0.1734,-1.36808 0.1846,-2.13464 0.0112,-0.76655 -0.1128,-1.38341 -0.3721,-1.85057 -0.2592,-0.46716 -0.6764,-0.84083 -1.2516,-1.12101 -0.8382,-0.40829 -1.5921,-0.35728 -2.2615,0.15305" />
      </g>
      <g
         transform="matrix(0.5454546,0,0,-0.5454546,0,841.68)"
         id="g1187">
        <path
           id="path1189"
           style="fill:none;stroke:#007aff;stroke-width:1.8189;stroke-linecap:round;stroke-linejoin:round;stroke-miterlimit:10;stroke-dasharray:none;stroke-opacity:1"
           d="m 470.1619,39.6148 c -0.3252,-0.21594 -0.7333,-0.0815 -1.2244,0.40334 -0.3398,0.33543 -0.7049,1.76444 -1.0954,4.28703 -0.3905,2.52259 -0.7007,4.84079 -0.9306,6.95459 -0.2299,2.1138 -0.498,4.39514 -0.8043,6.84401 -0.3064,2.44887 -0.7051,5.23668 -1.1962,8.36345 -0.4911,3.12677 -0.9023,4.75596 -1.2335,4.88756 -0.3312,0.13161 -0.7548,-0.18248 -1.2705,-0.94226 -0.5158,-0.75978 -1.2568,-1.71085 -2.2229,-2.8532 -0.9661,-1.14235 -1.9547,-2.16114 -2.9658,-3.05638 -1.0111,-0.89524 -1.8123,-1.57787 -2.4034,-2.0479 -0.5912,-0.47002 -0.9024,-0.71751 -0.9338,-0.74248 -0.0314,-0.02496 -0.0352,-0.03012 -0.0115,-0.01548 0.0238,0.01465 0.2593,0.15981 0.7065,0.4355 0.4472,0.2757 0.9355,0.50093 1.4647,0.67569 0.5293,0.17477 1.6535,0.31182 3.3725,0.41114 2.5078,0.14491 5.9595,-0.42221 10.355,-1.70136" />
      </g>
      <g
         transform="matrix(0.5454546,0,0,-0.5454546,0,841.68)"
         id="g1191">
        <path
           id="path1193"
           style="fill:none;stroke:#007aff;stroke-width:1.8189;stroke-linecap:round;stroke-linejoin:round;stroke-miterlimit:10;stroke-dasharray:none;stroke-opacity:1"
           d="m 481.7797,62.9085 c -0.4163,-0.95829 -1.0006,-1.47248 -1.7528,-1.54258 -0.5208,-0.04853 -1.0391,-0.0077 -1.5549,0.1224 -0.5157,0.13012 -1.1545,0.51324 -1.9161,1.14935 -0.7616,0.63611 -1.2795,1.31274 -1.5534,2.02989 -0.2739,0.71716 -0.4379,1.48958 -0.492,2.31727 -0.0541,0.82768 -0.0338,1.55576 0.0609,2.18424 0.0947,0.62847 0.3705,1.02669 0.8272,1.19467 0.4567,0.16798 1.0216,0.10517 1.6947,-0.18843 0.6732,-0.2936 1.3805,-0.94593 2.1221,-1.95698 0.7416,-1.01105 1.3658,-2.09312 1.8725,-3.2462 0.5067,-1.15308 0.8804,-2.20673 1.1211,-3.16093 0.2407,-0.95422 0.3718,-1.47364 0.3931,-1.55829 0.0214,-0.08464 0.0325,-0.03974 0.0334,0.13468 8e-4,0.17442 0.006,1.24481 0.0161,3.21116 0.01,1.96635 0.0281,3.43787 0.0548,4.41457 0.0267,0.9767 0.2617,1.96946 0.7049,2.9783 0.4433,1.00884 0.9827,1.67063 1.6181,1.98537 0.6355,0.31473 1.3036,0.39593 2.0042,0.24359 0.7006,-0.15234 1.538,-0.78008 2.512,-1.88324 0.9741,-1.10316 1.959,-2.45509 2.9547,-4.0558 0.9957,-1.60071 2.0373,-3.40729 3.1249,-5.41974 1.0875,-2.01245 2.0894,-4.1356 3.0059,-6.36946 0.9165,-2.23386 1.6441,-4.46377 2.183,-6.68973 0.5389,-2.22596 0.9651,-4.50596 1.2787,-6.84001 0.3137,-2.33404 0.473,-3.96754 0.478,-4.9005 0.005,-0.93295 0.008,-1.4767 0.009,-1.63123 9e-4,-0.15454 -0.0134,-0.19927 -0.0429,-0.13419 -0.0294,0.06507 -0.1328,0.29404 -0.3104,0.68691 -0.1775,0.39287 -0.4869,1.42112 -0.9281,3.08475 -0.4412,1.66363 -0.9576,3.77517 -1.5491,6.33461 -0.5915,2.55944 -1.1638,5.23125 -1.7169,8.01545 -0.5531,2.78419 -1.1201,6.02335 -1.701,9.71746 -0.5808,3.69412 -0.8991,5.97696 -0.9549,6.84852 -0.0558,0.87156 -0.0853,1.33071 -0.0882,1.37745 l -0.003,0.03416 -0.001,-0.03782 c 0,-0.04918 -10e-5,-0.53229 -4e-4,-1.44934 -4e-4,-0.91704 -0.1207,-2.03106 -0.361,-3.34203 -0.2403,-1.31098 -0.5527,-2.54017 -0.9372,-3.68758 -0.3845,-1.1474 -0.7913,-2.12815 -1.2205,-2.94224 -0.4292,-0.81409 -0.6616,-1.25493 -0.6973,-1.32252 l -0.0346,-0.07062 0.01,0.01338 c 0.0192,0.02943 0.1443,0.22142 0.3754,0.57595 0.231,0.35453 0.8604,0.83135 1.8882,1.43045 1.5077,0.87877 3.5761,1.50643 6.2051,1.88297" />
      </g>
      <g
         transform="matrix(0.5454546,0,0,-0.5454546,0,841.68)"
         id="g1195">
        <path
           id="path1197"
           style="fill:none;stroke:#007aff;stroke-width:1.8189;stroke-linecap:round;stroke-linejoin:round;stroke-miterlimit:10;stroke-dasharray:none;stroke-opacity:1"
           d="m 515.2639,63.12868 c -1.013,-0.52187 -1.7965,-0.14875 -2.3504,1.11938 -0.554,1.26812 -1.0046,2.47777 -1.3519,3.62895 -0.5094,1.6885 -0.9306,3.9503 -1.2636,6.78539" />
      </g>
      <g
         transform="matrix(0.5454546,0,0,-0.5454546,0,841.68)"
         id="g1199">
        <path
           id="path1201"
           style="fill:none;stroke:#007aff;stroke-width:1.8189;stroke-linecap:round;stroke-linejoin:round;stroke-miterlimit:10;stroke-dasharray:none;stroke-opacity:1"
           d="m 518.2232,52.96561 c -0.4774,0 -0.7323,0 -0.7646,0" />
      </g>
      <g
         transform="matrix(0.5454546,0,0,-0.5454546,0,841.68)"
         id="g1203">
        <path
           id="path1205"
           style="fill:none;stroke:#007aff;stroke-width:1.8189;stroke-linecap:round;stroke-linejoin:round;stroke-miterlimit:10;stroke-dasharray:none;stroke-opacity:1"
           d="m 525.18,64.90688 c -0.7948,-0.33912 -1.6213,0.06404 -2.4797,1.20947 -0.5926,0.7909 -0.9699,1.57405 -1.1319,2.34945 -0.1619,0.7754 -0.2665,1.77798 -0.3136,3.00775 -0.0472,1.22977 0.0458,1.95583 0.279,2.17818 0.2331,0.22236 0.6019,0.33326 1.1062,0.33269 0.5043,-5.7e-4 1.0518,-0.33993 1.6426,-1.01808 0.5908,-0.67815 1.1957,-1.6603 1.8148,-2.94646 0.619,-1.28615 1.0032,-2.28302 1.1527,-2.99061 0.1494,-0.70759 0.2204,-1.70883 0.2128,-3.00373 -0.008,-1.2949 -0.2194,-2.15284 -0.6354,-2.57381 -0.5922,-0.59943 -1.1542,-0.68087 -1.686,-0.24431" />
      </g>
      <g
         transform="matrix(0.5454546,0,0,-0.5454546,0,841.68)"
         id="g1207">
        <path
           id="path1209"
           style="fill:none;stroke:#007aff;stroke-width:1.8189;stroke-linecap:round;stroke-linejoin:round;stroke-miterlimit:10;stroke-dasharray:none;stroke-opacity:1"
           d="m 536.4878,62.71048 c -0.5731,0.49606 -1.0555,1.47693 -1.4474,2.94261 -0.2524,0.94422 -0.4965,2.15946 -0.7321,3.64574 -0.2356,1.48628 -0.3038,2.1789 -0.2046,2.07786 0.0992,-0.10102 0.3474,-0.3536 0.7444,-0.75772 0.397,-0.40413 1.0397,-1.18322 1.928,-2.33728 0.8883,-1.15406 1.6906,-2.1142 2.4069,-2.88044 0.7164,-0.76625 1.3172,-1.33037 1.8027,-1.69236 0.4855,-0.362 0.8827,-0.58863 1.1916,-0.6799 0.3089,-0.09127 0.5956,-0.02381 0.8601,0.20236 0.2645,0.22618 0.4834,0.76949 0.6567,1.62995 0.1733,0.86045 0.262,1.69579 0.266,2.506 0.006,1.15998 -0.5908,4.46621 -1.7894,9.9187" />
      </g>
      <g
         transform="matrix(0.6091424,0,0,-0.6389346,234.5585,822.9766)"
         id="g1211" />
      <g
         transform="matrix(5.856017,0,0,-0.5454546,226.8324,793.3054)"
         id="g1213" />
      <g
         transform="matrix(1.090041,0,0,-0.5454546,318.0613,765.4632)"
         id="g1215" />
      <g
         transform="matrix(0.7384208,0,0,0.5454546,157.0284,746.7742)"
         id="g1217" />
      <g
         transform="matrix(0.7347701,0,0,0.5454546,190.26,746.6428)"
         id="g1219" />
      <g
         transform="matrix(0.650002,0,0,0.5454546,222.7437,746.7563)"
         id="g1221" />
      <g
         transform="matrix(0.7384235,0,0,0.5454546,303.8524,746.7545)"
         id="g1223" />
      <g
         transform="matrix(0.7347701,0,0,0.5454546,337.084,746.6231)"
         id="g1225" />
      <g
         transform="matrix(0.7154112,0,0,-0.5454546,348.5254,751.1809)"
         id="g1227" />
      <g
         transform="matrix(0.6499966,0,0,0.5454546,369.5678,746.7366)"
         id="g1229" />
      <g
         transform="matrix(1.57232,0,0,0.5454546,304.8501,731.1995)"
         id="g1231" />
      <g
         transform="matrix(0.9092178,0,0,0.5454546,378.3426,733.6076)"
         id="g1233" />
      <g
         transform="matrix(0.912065,0,0,0.5454546,157.5336,714.2517)"
         id="g1235" />
      <g
         transform="matrix(0.9591077,0,0,0.5454546,189.6512,714.651)"
         id="g1237" />
      <g
         transform="matrix(1.125194,0,0,0.5454546,222.8332,714.3565)"
         id="g1239" />
      <g
         transform="matrix(0.9520144,0,0,0.5454546,304.3576,714.2321)"
         id="g1241" />
      <g
         transform="matrix(0.752652,0,0,-0.5454546,334.9901,721.6561)"
         id="g1243" />
      <g
         transform="matrix(1.125198,0,0,0.5454546,369.6572,714.3368)"
         id="g1245" />
      <g
         transform="matrix(1.127837,0,0,0.5454546,290.2292,701.5062)"
         id="g1247" />
      <g
         transform="matrix(1.387802,0,0,0.5454546,364.7682,703.7178)"
         id="g1249" />
      <g
         transform="matrix(1.082179,0,0,0.5454546,321.0197,687.5026)"
         id="g1251" />
      <g
         transform="matrix(0.7869356,0,0,0.5454546,157.0355,681.5637)"
         id="g1253" />
      <g
         transform="matrix(0.7822068,0,0,0.5454546,190.2814,681.8817)"
         id="g1255" />
      <g
         transform="matrix(0.7059197,0,0,0.5454546,222.9359,681.4906)"
         id="g1257" />
      <g
         transform="matrix(0.7869382,0,0,0.5454546,303.8595,681.5441)"
         id="g1259" />
      <g
         transform="matrix(0.7822068,0,0,0.5454546,337.1054,681.862)"
         id="g1261" />
      <g
         transform="matrix(0.7059224,0,0,0.5454546,369.7599,681.4709)"
         id="g1263" />
      <g
         transform="matrix(1.129613,0,0,0.5454546,350.6583,673.5998)"
         id="g1265" />
    </g>
  </g>
</svg>
