<?xml version="1.0" encoding="UTF-8" standalone="no"?>
<svg
   xmlns:dc="http://purl.org/dc/elements/1.1/"
   xmlns:cc="http://creativecommons.org/ns#"
   xmlns:rdf="http://www.w3.org/1999/02/22-rdf-syntax-ns#"
   xmlns:svg="http://www.w3.org/2000/svg"
   xmlns="http://www.w3.org/2000/svg"
   viewBox="0 0 366.66666 284"
   height="284"
   width="366.66666"
   xml:space="preserve"
   id="svg833"
   version="1.1">
  <metadata
     id="metadata839">
    <rdf:RDF>
      <cc:Work
         rdf:about="">
        <dc:format>image/svg+xml</dc:format>
        <dc:type
           rdf:resource="http://purl.org/dc/dcmitype/StillImage" />
        <dc:title></dc:title>
      </cc:Work>
    </rdf:RDF>
  </metadata>
  <defs
     id="defs837">
    <clipPath
       id="clipPath851"
       clipPathUnits="userSpaceOnUse">
      <path
         id="path849"
         d="M 0,0 H 455.04 V 588.451 H 0 Z" />
    </clipPath>
  </defs>
  <g
     transform="matrix(1.3333333,0,0,-1.3333333,0,284)"
     id="g841">
    <g
       transform="translate(-47,-335)"
       id="g843">
      <g
         id="g845">
        <g
           clip-path="url(#clipPath851)"
           id="g847">
          <g
             id="g853" />
          <g
             id="g855">
            <g
               transform="matrix(0.5454546,0,0,-0.5454546,-0.3284454,589.7648)"
               id="g857">
              <path
                 id="path859"
                 style="fill:none;stroke:#d20000;stroke-width:1.55905;stroke-linecap:butt;stroke-linejoin:miter;stroke-miterlimit:10;stroke-dasharray:none;stroke-opacity:1"
                 d="m 159.9073,288.3238 c 6.9946,6.0441 7.7651,16.614 1.721,23.6085 -6.044,6.9946 -16.6139,7.7651 -23.6085,1.721 -6.9945,-6.0441 -7.765,-16.6139 -1.721,-23.6085 6.0441,-6.9945 16.614,-7.7651 23.6085,-1.721 z" />
            </g>
            <path
               id="path861"
               style="fill:#d20000;fill-opacity:0.1;fill-rule:nonzero;stroke:none"
               d="m 86.89374,432.4972 c 3.81521,-3.2967 4.23549,-9.0621 0.93873,-12.8773 -3.29676,-3.8152 -9.06215,-4.2355 -12.87736,-0.9388 -3.81521,3.2968 -4.23549,9.0622 -0.93873,12.8774 3.29676,3.8152 9.06215,4.2355 12.87736,0.9387 z" />
            <g
               transform="matrix(0.5454546,0,0,-0.5454546,0,588.451)"
               id="g863">
              <path
                 id="path865"
                 style="fill:none;stroke:#007aff;stroke-width:1.55905;stroke-linecap:round;stroke-linejoin:round;stroke-miterlimit:10;stroke-dasharray:none;stroke-opacity:1"
                 d="M 462.2147,135.7069 V 462.1646" />
            </g>
            <g
               transform="matrix(0.5454546,0,0,-0.5454546,0,588.451)"
               id="g867">
              <path
                 id="path869"
                 style="fill:none;stroke:#007aff;stroke-width:1.55905;stroke-linecap:round;stroke-linejoin:round;stroke-miterlimit:10;stroke-dasharray:none;stroke-opacity:1"
                 d="m 491.875,136.5805 -0.3269,324.3841" />
            </g>
            <g
               transform="matrix(0.5454546,0,0,-0.5454546,0,588.451)"
               id="g871">
              <path
                 id="path873"
                 style="fill:none;stroke:#007aff;stroke-width:1.55905;stroke-linecap:round;stroke-linejoin:round;stroke-miterlimit:10;stroke-dasharray:none;stroke-opacity:1"
                 d="m 462.7668,253.4162 27.909,-0.3715" />
            </g>
            <g
               transform="matrix(0.5454546,0,0,-0.5454546,0,588.451)"
               id="g875">
              <path
                 id="path877"
                 style="fill:none;stroke:#007aff;stroke-width:1.55905;stroke-linecap:round;stroke-linejoin:round;stroke-miterlimit:10;stroke-dasharray:none;stroke-opacity:1"
                 d="m 462.8094,223.3888 28.367,-0.2277" />
            </g>
            <g
               transform="matrix(0.5454546,0,0,-0.5454546,0,588.451)"
               id="g879">
              <path
                 id="path881"
                 style="fill:none;stroke:#007aff;stroke-width:1.55905;stroke-linecap:round;stroke-linejoin:round;stroke-miterlimit:10;stroke-dasharray:none;stroke-opacity:1"
                 d="m 463.4752,192.9061 27.8077,0.2516" />
            </g>
            <g
               transform="matrix(0.5454546,0,0,-0.5454546,0,588.451)"
               id="g883">
              <path
                 id="path885"
                 style="fill:none;stroke:#007aff;stroke-width:1.55905;stroke-linecap:round;stroke-linejoin:round;stroke-miterlimit:10;stroke-dasharray:none;stroke-opacity:1"
                 d="m 461.9147,163.4667 29.805,0.1039" />
            </g>
            <g
               transform="matrix(0.5454546,0,0,-0.5454546,0,588.451)"
               id="g887">
              <path
                 id="path889"
                 style="fill:none;stroke:#007aff;stroke-width:1.55905;stroke-linecap:round;stroke-linejoin:round;stroke-miterlimit:10;stroke-dasharray:none;stroke-opacity:1"
                 d="m 461.872,133.3355 30.098,-0.1039" />
            </g>
            <g
               transform="matrix(0.5454546,0,0,-0.5454546,0,588.451)"
               id="g891">
              <path
                 id="path893"
                 style="fill:none;stroke:#007aff;stroke-width:1.55905;stroke-linecap:round;stroke-linejoin:round;stroke-miterlimit:10;stroke-dasharray:none;stroke-opacity:1"
                 d="m 491.8135,133.3778 c -0.0484,0.2815 -0.0726,0.7048 -0.0725,1.27 0,0.3591 -0.0142,0.6204 -0.0425,0.7837 -0.0284,0.1634 -0.0461,0.4063 -0.0533,0.7286 -0.007,0.3224 0.0165,0.5339 0.0709,0.6348 0.0544,0.1008 0.0819,0.2241 0.0825,0.37 6e-4,0.1459 -0.003,0.2126 -0.0106,0.2002 -0.0111,-0.0178 -0.0458,-0.0737 -0.1041,-0.1679" />
            </g>
            <g
               transform="matrix(0.5454546,0,0,-0.5454546,0,588.451)"
               id="g895">
              <path
                 id="path897"
                 style="fill:none;stroke:#007aff;stroke-width:1.55905;stroke-linecap:round;stroke-linejoin:round;stroke-miterlimit:10;stroke-dasharray:none;stroke-opacity:1"
                 d="m 461.5631,133.5831 c 0.1513,-0.0958 0.2273,0.2669 0.228,1.0881 7e-4,0.8213 0.0467,1.3444 0.1379,1.5694" />
            </g>
            <g
               transform="matrix(0.5454546,0,0,-0.5454546,0,588.451)"
               id="g899">
              <path
                 id="path901"
                 style="fill:none;stroke:#007aff;stroke-width:1.55905;stroke-linecap:round;stroke-linejoin:round;stroke-miterlimit:10;stroke-dasharray:none;stroke-opacity:1"
                 d="m 462.0212,463.1933 30.1352,-0.5832" />
            </g>
            <g
               transform="matrix(0.5454546,0,0,-0.5454546,0,588.451)"
               id="g903">
              <path
                 id="path905"
                 style="fill:none;stroke:#007aff;stroke-width:1.55905;stroke-linecap:round;stroke-linejoin:round;stroke-miterlimit:10;stroke-dasharray:none;stroke-opacity:1"
                 d="m 463.2462,433.2898 28.058,-0.04" />
            </g>
            <g
               transform="matrix(0.5454546,0,0,-0.5454546,0,588.451)"
               id="g907">
              <path
                 id="path909"
                 style="fill:none;stroke:#007aff;stroke-width:1.55905;stroke-linecap:round;stroke-linejoin:round;stroke-miterlimit:10;stroke-dasharray:none;stroke-opacity:1"
                 d="m 462.7083,403.7418 28.4468,-0.791" />
            </g>
            <g
               transform="matrix(0.5454546,0,0,-0.5454546,0,588.451)"
               id="g911">
              <path
                 id="path913"
                 style="fill:none;stroke:#007aff;stroke-width:1.55905;stroke-linecap:round;stroke-linejoin:round;stroke-miterlimit:10;stroke-dasharray:none;stroke-opacity:1"
                 d="m 462.687,372.7797 27.5147,0.6231" />
            </g>
            <g
               transform="matrix(0.5454546,0,0,-0.5454546,0,588.451)"
               id="g915">
              <path
                 id="path917"
                 style="fill:none;stroke:#007aff;stroke-width:1.55905;stroke-linecap:round;stroke-linejoin:round;stroke-miterlimit:10;stroke-dasharray:none;stroke-opacity:1"
                 d="m 462.1863,343.0439 h 28.6173" />
            </g>
            <g
               transform="matrix(0.5454546,0,0,-0.5454546,0,588.451)"
               id="g919">
              <path
                 id="path921"
                 style="fill:none;stroke:#007aff;stroke-width:1.55905;stroke-linecap:round;stroke-linejoin:round;stroke-miterlimit:10;stroke-dasharray:none;stroke-opacity:1"
                 d="m 461.185,313.4759 30.1192,-0.1878" />
            </g>
            <g
               transform="matrix(0.5454546,0,0,-0.5454546,0,588.451)"
               id="g923">
              <path
                 id="path925"
                 style="fill:none;stroke:#007aff;stroke-width:1.55905;stroke-linecap:round;stroke-linejoin:round;stroke-miterlimit:10;stroke-dasharray:none;stroke-opacity:1"
                 d="m 462.4153,283.3646 28.9475,0.1039" />
            </g>
            <g
               transform="matrix(0.5454546,0,0,-0.5454546,0,588.451)"
               id="g927">
              <path
                 id="path929"
                 style="fill:none;stroke:#f59a23;stroke-width:1.55905;stroke-linecap:round;stroke-linejoin:round;stroke-miterlimit:10;stroke-dasharray:none;stroke-opacity:1"
                 d="m 250.4042,209.3756 c -0.2314,0.0983 -0.4458,0.3456 -0.6434,0.7419 -0.1975,0.3963 -0.3466,0.7645 -0.4474,1.1044 -0.1008,0.34 -0.3194,0.8796 -0.6559,1.619 -0.3366,0.7393 -0.9219,2.1953 -1.7562,4.3678 -0.8342,2.1726 -1.4193,3.7075 -1.7551,4.605 -0.3358,0.8974 -0.6584,1.7959 -0.9679,2.6955 -0.3094,0.8996 -0.5968,1.7882 -0.8621,2.6658 -0.2653,0.8775 -0.5091,1.7651 -0.7314,2.6627 -0.2224,0.8976 -0.4381,1.8485 -0.6472,2.8527 -0.2091,1.0041 -0.3924,2.0303 -0.5497,3.0786 -0.1574,1.0482 -0.2618,1.9784 -0.3131,2.7908 -0.0513,0.8123 -0.0988,1.7024 -0.1424,2.6704 -0.0436,0.968 -0.0663,1.9845 -0.0679,3.0497 -0.002,1.0651 0.0272,2.0083 0.0865,2.8294 0.0594,0.8212 0.1958,1.6366 0.4094,2.4462 0.2136,0.8097 0.4527,1.6254 0.7173,2.4473 0.2646,0.8218 0.5496,1.5987 0.8549,2.3305 0.3053,0.7318 0.6764,1.4169 1.1134,2.0552 0.4369,0.6383 0.9145,1.1985 1.4329,1.6806 0.5183,0.4821 1.3314,1.1514 2.4394,2.0079 1.1079,0.8564 2.4465,2.0124 4.0158,3.4677 1.5693,1.4554 2.6005,2.4395 3.0936,2.9523 0.4931,0.5128 0.9557,1.0206 1.3877,1.5236 0.432,0.5029 0.803,0.9586 1.1132,1.3671 0.3102,0.4085 0.6603,0.958 1.0503,1.6485 0.3899,0.6905 0.7118,1.3849 0.9656,2.0832 0.2538,0.6982 0.4655,1.4095 0.635,2.1339 0.1695,0.7244 0.3384,1.4988 0.5066,2.3232 0.1683,0.8245 0.3186,1.6884 0.4512,2.5918 0.1325,0.9034 0.2514,1.8408 0.3566,2.8122 0.1052,0.9714 0.214,2.4096 0.3264,4.3146 0.1125,1.905 0.1753,3.5472 0.1884,4.9268 0.0132,1.3795 0.0205,5.5733 0.0219,12.5812 0.002,7.0079 0.0704,11.6528 0.2066,13.9345 0.1362,2.2817 0.2266,3.8369 0.2712,4.6657 0.0446,0.8287 0.0672,1.6607 0.0676,2.4962 5e-4,0.8355 -0.0453,1.6415 -0.1372,2.4179 -0.092,0.7763 -0.1985,1.4856 -0.3196,2.1276 -0.1211,0.6421 -0.3408,1.4194 -0.6594,2.332 -0.3185,0.9125 -0.8428,2.154 -1.5728,3.7243 -0.7301,1.5704 -1.479,3.1883 -2.2466,4.8537 -0.7676,1.6655 -1.5188,3.222 -2.2536,4.6695 -0.7348,1.4475 -1.4802,2.8828 -2.2362,4.306 -0.756,1.4232 -1.2943,2.4472 -1.6148,3.072 -0.3206,0.6248 -0.742,1.4893 -1.2644,2.5935 -0.5224,1.1041 -1.0784,2.3364 -1.668,3.6968 -0.5897,1.3604 -0.9855,2.3899 -1.1874,3.0886 -0.202,0.6987 -0.3944,1.6347 -0.5772,2.808 -0.1829,1.1734 -0.3969,2.3654 -0.6421,3.5761 -0.2452,1.2107 -0.4264,2.3901 -0.5435,3.5382 -0.1172,1.1481 -0.1902,2.0389 -0.2192,2.6722 -0.0289,0.6334 -0.045,1.9572 -0.0482,3.9715 -0.003,2.0142 0.1137,4.1763 0.3507,6.4861 0.237,2.3098 0.4061,3.8833 0.5072,4.7205 0.1012,0.8372 0.3037,2.0312 0.6076,3.5822 0.3039,1.5509 0.5437,2.7004 0.7193,3.4485 0.1756,0.7481 0.3598,1.4833 0.5523,2.2055 0.1926,0.7223 0.5066,1.7668 0.9419,3.1335 0.4353,1.3668 0.8294,2.6149 1.1823,3.7443 0.3529,1.1295 0.7042,2.0981 1.054,2.9059 0.3497,0.8078 0.6658,1.4452 0.9484,1.9123 0.2826,0.4671 0.716,1.0213 1.3003,1.6628 0.5844,0.6414 1.3706,1.4381 2.3586,2.3901 0.988,0.9519 1.7216,1.6765 2.2006,2.1736 0.4791,0.4971 0.9798,0.9908 1.5024,1.481 0.5225,0.4902 1.0888,0.9745 1.6987,1.453 0.61,0.4784 1.1591,0.8683 1.6472,1.1698 0.4882,0.3015 1.2209,0.6586 2.198,1.0713 0.9772,0.4127 1.9137,0.7555 2.8095,1.0282 0.8959,0.2728 1.8529,0.5441 2.871,0.8139 1.0181,0.2697 2.0423,0.5282 3.0726,0.7755 1.0303,0.2472 2.1236,0.4811 3.2797,0.7016 1.1561,0.2206 2.3542,0.3997 3.5941,0.5374 1.2399,0.1378 2.5136,0.2425 3.8213,0.3141 1.3076,0.0716 3.3211,0.1113 6.0404,0.1192 2.7193,0.008 4.7866,0.006 6.2018,-0.005 1.4152,-0.011 2.824,-0.0422 4.2265,-0.0934 1.4025,-0.0513 2.7351,-0.0957 3.9977,-0.1331 1.2626,-0.0375 2.4815,-0.098 3.6566,-0.1817 1.1752,-0.0836 2.354,-0.2042 3.5365,-0.3616 1.1825,-0.1575 2.3831,-0.3375 3.6019,-0.5402 1.2188,-0.2026 2.4395,-0.4175 3.6619,-0.6447 1.2225,-0.2271 2.4866,-0.5023 3.7925,-0.8253 1.3059,-0.3231 2.6463,-0.6397 4.0213,-0.9498 1.3751,-0.3101 2.7196,-0.6252 4.0335,-0.9453 1.314,-0.3202 2.6343,-0.6878 3.961,-1.1029 1.3266,-0.4151 2.7,-0.8637 4.1201,-1.3458 1.4201,-0.482 2.8271,-0.984 4.221,-1.5061 1.3938,-0.5221 3.3573,-1.2989 5.8903,-2.3304 2.5331,-1.0315 4.3758,-1.7922 5.5283,-2.2821 1.1524,-0.49 2.2609,-0.9786 3.3254,-1.4659 1.0645,-0.4873 2.0668,-0.9811 3.0069,-1.4815 0.94,-0.5004 1.8397,-1.0192 2.699,-1.5565 0.8594,-0.5373 1.6628,-1.0586 2.4103,-1.564 0.7474,-0.5054 1.4255,-0.9802 2.0342,-1.4246 0.6087,-0.4443 1.1809,-0.9078 1.7164,-1.3906 0.5355,-0.4827 1.0451,-0.9796 1.5288,-1.4906 0.4836,-0.5111 0.9114,-1.018 1.2831,-1.5207 0.3717,-0.5028 0.68,-0.9996 0.9248,-1.4904 0.2448,-0.4907 0.4676,-1.1304 0.6684,-1.9191 0.2007,-0.7886 0.3726,-1.7398 0.5155,-2.8535 0.1428,-1.1138 0.2967,-2.2431 0.4617,-3.3879 0.1649,-1.1449 0.4079,-2.6487 0.729,-4.5117 0.321,-1.8629 0.5786,-3.3306 0.7726,-4.4032 0.194,-1.0726 0.3306,-1.9504 0.4097,-2.6333 0.0792,-0.6828 0.1172,-1.5122 0.114,-2.4879 -0.003,-0.9758 -0.029,-1.695 -0.0775,-2.1578 -0.0486,-0.4627 -0.0756,-1.187 -0.0809,-2.1731 -0.005,-0.986 -0.0199,-1.7292 -0.0437,-2.2297 -0.0238,-0.5004 -0.1003,-1.3539 -0.2296,-2.5603 -0.1293,-1.2065 -0.2371,-2.3646 -0.3236,-3.4744 -0.0864,-1.1097 -0.2087,-2.0645 -0.3668,-2.8643 -0.158,-0.7999 -0.3252,-1.5068 -0.5014,-2.1209 -0.1762,-0.614 -0.3532,-1.2766 -0.531,-1.9876 -0.1778,-0.7111 -0.3394,-1.5294 -0.4847,-2.4548 -0.1453,-0.9255 -0.249,-1.8806 -0.311,-2.8653 -0.062,-0.9847 -0.1258,-1.949 -0.1913,-2.8929 -0.0655,-0.9439 -0.1513,-1.8844 -0.2573,-2.8215 -0.106,-0.937 -0.2184,-1.7775 -0.3372,-2.5214 -0.1188,-0.744 -0.2301,-1.5291 -0.334,-2.3555 -0.1038,-0.8264 -0.1728,-1.6514 -0.2069,-2.4749 -0.0341,-0.8235 -0.0529,-1.6703 -0.0563,-2.5402 -0.003,-0.87 0.0407,-1.73 0.1323,-2.5801 0.0916,-0.8501 0.2058,-1.7048 0.3425,-2.5641 0.1368,-0.8593 0.3049,-2.0724 0.5044,-3.6393 0.1996,-1.5669 0.3277,-2.7361 0.3842,-3.5076 0.0566,-0.7716 0.0981,-1.5374 0.1245,-2.2976 0.0264,-0.7602 0.0409,-1.5365 0.0436,-2.3289 0.003,-0.7925 -0.0538,-1.5642 -0.1692,-2.3154 -0.1154,-0.7511 -0.3492,-1.8295 -0.7012,-3.235 -0.3521,-1.4055 -0.6666,-2.7291 -0.9437,-3.9706 -0.277,-1.2415 -0.4734,-2.2827 -0.5892,-3.1237 -0.1158,-0.841 -0.1867,-2.0109 -0.2127,-3.5097 -0.0261,-1.4989 -0.0169,-2.577 0.0276,-3.2344 0.0445,-0.6574 0.1387,-1.3315 0.2826,-2.0225 0.1439,-0.6909 0.3342,-1.3824 0.5711,-2.0745 0.2369,-0.692 0.4932,-1.3919 0.7691,-2.0997 0.2758,-0.7077 0.561,-1.3795 0.8556,-2.0154 0.2946,-0.6359 0.6019,-1.2526 0.9221,-1.8502 0.3202,-0.5975 0.6535,-1.1865 1,-1.7669 0.3464,-0.5804 0.7314,-1.1818 1.1549,-1.8043 0.4234,-0.6225 0.8652,-1.2183 1.3254,-1.7874 0.4602,-0.5691 0.93,-1.1163 1.4093,-1.6415 0.4794,-0.5252 1.1711,-1.3276 2.0752,-2.4072 0.9041,-1.0797 1.5696,-1.9119 1.9963,-2.4968 0.4268,-0.5848 1.2345,-1.8677 2.4231,-3.8485 1.1886,-1.9809 2.1562,-3.567 2.9027,-4.7584 0.7465,-1.1914 1.3239,-2.1693 1.7321,-2.9336 0.4083,-0.7644 0.7732,-1.4757 1.0949,-2.1339 0.3217,-0.6582 0.6143,-1.344 0.8778,-2.0572 0.2635,-0.7133 0.5079,-1.4471 0.733,-2.2015 0.2251,-0.7543 0.429,-1.5052 0.6117,-2.2525 0.1827,-0.7474 0.3766,-1.511 0.5818,-2.2911 0.2052,-0.78 0.3936,-1.5572 0.5655,-2.3316 0.1718,-0.7743 0.3165,-1.5264 0.4342,-2.2561 0.1177,-0.7298 0.2266,-1.7555 0.3269,-3.0772 0.1003,-1.3218 0.1707,-2.3764 0.2112,-3.1639 0.0406,-0.7875 0.0631,-1.9846 0.0675,-3.5915 0.005,-1.6069 -0.0229,-2.7979 -0.0822,-3.573 -0.0593,-0.7751 -0.2494,-2.0109 -0.5704,-3.7074 -0.321,-1.6965 -0.5845,-3.0233 -0.7906,-3.9802 -0.2061,-0.957 -0.4102,-1.8187 -0.6121,-2.585 -0.202,-0.7664 -0.4407,-1.5294 -0.716,-2.2891 -0.2753,-0.7597 -0.578,-1.4901 -0.9081,-2.1912 -0.3301,-0.7012 -0.8707,-1.7568 -1.6216,-3.1668 -0.7509,-1.4101 -1.3434,-2.4934 -1.7774,-3.2502 -0.434,-0.7567 -0.8937,-1.4966 -1.3791,-2.2198 -0.4854,-0.7231 -0.9438,-1.3533 -1.375,-1.8906 -0.4312,-0.5373 -0.9457,-1.1331 -1.5436,-1.7876 -0.5978,-0.6544 -1.5811,-1.7725 -2.9498,-3.3543 -1.3686,-1.5819 -2.6451,-3.0587 -3.8293,-4.4305 -1.1843,-1.3719 -2.0784,-2.3644 -2.6825,-2.9776 -0.6041,-0.6132 -1.2315,-1.1874 -1.8822,-1.7226 -0.6507,-0.5352 -1.3334,-1.0387 -2.0482,-1.5105 -0.7147,-0.4718 -1.4312,-0.9159 -2.1494,-1.3324 -0.7181,-0.4166 -2.2147,-1.2142 -4.4896,-2.3929 -2.275,-1.1787 -3.764,-1.9359 -4.4671,-2.2717 -0.7031,-0.3357 -1.4265,-0.6472 -2.1702,-0.9344 -0.7437,-0.2872 -1.4998,-0.5553 -2.2683,-0.8043 -0.7686,-0.249 -1.9315,-0.5883 -3.4889,-1.018 -1.5574,-0.4296 -3.2531,-0.9014 -5.0869,-1.4154 -1.8339,-0.5139 -3.2151,-0.8879 -4.1438,-1.1218 -0.9286,-0.2339 -1.8175,-0.423 -2.6668,-0.5673 -0.8493,-0.1443 -1.7332,-0.2704 -2.6517,-0.3783 -0.9186,-0.1079 -2.3431,-0.2413 -4.2735,-0.4002 -1.9305,-0.1589 -3.3604,-0.2824 -4.2897,-0.3704 -0.9294,-0.088 -1.8291,-0.1887 -2.6993,-0.3021 -0.8702,-0.1134 -1.7136,-0.2447 -2.5304,-0.394 -0.8167,-0.1492 -1.6498,-0.3252 -2.499,-0.5278 -0.8493,-0.2027 -1.6353,-0.4195 -2.3581,-0.6505 -0.7229,-0.2309 -1.4085,-0.4602 -2.0569,-0.6878 -0.6484,-0.2276 -1.5752,-0.5362 -2.7803,-0.9257 -1.2051,-0.3894 -2.3607,-0.8539 -3.4668,-1.3933 -1.1061,-0.5394 -1.9494,-0.981 -2.5298,-1.3247 -0.5804,-0.3436 -1.7108,-1.0931 -3.3911,-2.2484 -1.6803,-1.1552 -2.7961,-1.9132 -3.3472,-2.2739 -0.551,-0.3607 -1.4229,-0.8946 -2.6155,-1.6018 -1.1927,-0.7071 -2.4068,-1.4393 -3.6424,-2.1966 -1.2356,-0.7573 -2.1795,-1.316 -2.8318,-1.676 -0.6522,-0.3601 -1.3121,-0.6971 -1.9795,-1.0112 -0.6674,-0.3141 -1.3441,-0.6128 -2.0301,-0.8961 -0.686,-0.2833 -1.2995,-0.5157 -1.8405,-0.697 -0.5411,-0.1814 -1.11,-0.339 -1.707,-0.4729 -0.597,-0.1338 -1.4706,-0.2577 -2.6208,-0.3716 -1.1502,-0.114 -2.2386,-0.1733 -3.2653,-0.178 -1.0266,-0.005 -1.762,0.0452 -2.206,0.1497 -0.4441,0.1046 -0.8796,0.2377 -1.3067,0.3995 -0.4271,0.1617 -1.0594,0.4565 -1.897,0.8843 -0.8375,0.4279 -1.4214,0.7343 -1.7515,0.9194 -0.3302,0.1851 -0.7209,0.4438 -1.1722,0.776 -0.4513,0.3323 -1.0546,0.8259 -1.81,1.481 -0.7553,0.655 -1.4992,1.3641 -2.2314,2.1274 -0.7323,0.7632 -1.4569,1.559 -2.1738,2.3874 -0.7169,0.8284 -1.2937,1.5223 -1.7304,2.0817 -0.4367,0.5593 -0.9515,1.2787 -1.5443,2.158 -0.5928,0.8793 -1.2346,1.7694 -1.9253,2.6704 -0.6906,0.9009 -1.2043,1.6069 -1.541,2.1179 -0.3366,0.511 -0.6389,1.0123 -0.907,1.504 -0.268,0.4916 -0.6259,1.2014 -1.0738,2.1294 -0.4479,0.928 -0.7789,1.5941 -0.9929,1.9984 -0.214,0.4043 -0.4296,0.8469 -0.6468,1.3278 -0.2172,0.481 -0.4242,0.9891 -0.6209,1.5244 -0.1968,0.5354 -0.3806,1.0901 -0.5516,1.6643 -0.1709,0.5741 -0.3228,1.1502 -0.4556,1.7283 -0.1328,0.578 -0.2971,1.4644 -0.493,2.6591 -0.1958,1.1947 -0.3517,2.0754 -0.4675,2.642 -0.1159,0.5667 -0.2597,1.122 -0.4315,1.6659 -0.1718,0.5439 -0.4028,1.2026 -0.6931,1.9759 -0.2904,0.7734 -0.6308,1.7065 -1.0213,2.7996 -0.3904,1.093 -0.6669,1.5607 -0.8292,1.4032" />
            </g>
            <g
               transform="matrix(0.5454546,0,0,-0.5454546,0,588.451)"
               id="g931">
              <path
                 id="path933"
                 style="fill:none;stroke:#d20000;stroke-width:1.55905;stroke-linecap:round;stroke-linejoin:round;stroke-miterlimit:10;stroke-dasharray:none;stroke-opacity:1"
                 d="m 146.4289,316.666 c -0.2866,-0.049 -0.4436,-0.0758 -0.4708,-0.0805 -0.0192,-0.003 0.002,-0.007 0.0627,-0.011 0.061,-0.004 0.3261,-0.0221 0.7956,-0.0538 0.4694,-0.0317 1.0089,0.0404 1.6187,0.2164 0.6097,0.1759 1.1227,0.3646 1.5389,0.5659 0.4163,0.2013 0.8773,0.4635 1.3832,0.7866 0.5059,0.3231 1.0925,0.6389 1.7597,0.9474 0.6672,0.3085 1.2143,0.5914 1.6412,0.8485 0.4268,0.2571 1.0643,0.5856 1.9125,0.9853 0.8481,0.3997 1.4747,0.7162 1.8797,0.9495 0.4051,0.2332 0.908,0.5216 1.5088,0.8651 0.6008,0.3436 1.1253,0.6535 1.5733,0.9297 0.4481,0.2762 0.6827,0.6277 0.7038,1.0543" />
            </g>
            <g
               transform="matrix(0.5454546,0,0,-0.5454546,0,588.451)"
               id="g935">
              <path
                 id="path937"
                 style="fill:none;stroke:#d20000;stroke-width:1.55905;stroke-linecap:round;stroke-linejoin:round;stroke-miterlimit:10;stroke-dasharray:none;stroke-opacity:1"
                 d="m 161.8448,322.3319 c -0.003,0.2843 0.1872,0.491 0.5694,0.6203 0.3823,0.1292 0.8954,0.3868 1.5391,0.7728 0.6438,0.3859 1.4146,0.7882 2.3125,1.2069 0.8979,0.4187 1.4753,0.7058 1.7322,0.8613 0.2569,0.1554 0.4307,0.2606 0.5215,0.3155" />
            </g>
            <g
               transform="matrix(0.5454546,0,0,-0.5454546,0,588.451)"
               id="g939">
              <path
                 id="path941"
                 style="fill:none;stroke:#d20000;stroke-width:1.55905;stroke-linecap:round;stroke-linejoin:round;stroke-miterlimit:10;stroke-dasharray:none;stroke-opacity:1"
                 d="m 138.7754,285.3769 c 0.1025,-0.2515 0.5939,-0.654 1.4742,-1.2074 0.8803,-0.5534 1.8791,-1.133 2.9963,-1.7388 1.1173,-0.6059 1.9548,-1.0761 2.5126,-1.4105 0.5578,-0.3344 1.4185,-0.879 2.5823,-1.6337 1.1637,-0.7546 2.2729,-1.4252 3.3275,-2.0116 1.0546,-0.5863 1.8841,-1.0305 2.4884,-1.3324 0.6044,-0.3019 1.5483,-0.8328 2.8316,-1.5927 1.2832,-0.7599 2.2297,-1.3408 2.8394,-1.7426 0.6097,-0.4018 1.2321,-0.7774 1.8672,-1.1268 0.635,-0.3494 1.0678,-0.6114 1.2984,-0.786 0.2306,-0.1745 0.4424,-0.3019 0.6354,-0.3821 0.193,-0.0802 0.3039,-0.1263 0.3327,-0.1383 0.0288,-0.0119 0.034,-0.0124 0.0155,-10e-4 -0.0263,0.0156 -0.1594,0.0947 -0.3991,0.2373" />
            </g>
            <g
               transform="matrix(0.5454546,0,0,-0.5454546,0,588.451)"
               id="g943">
              <path
                 id="path945"
                 style="fill:none;stroke:#d20000;stroke-width:1.55905;stroke-linecap:round;stroke-linejoin:round;stroke-miterlimit:10;stroke-dasharray:none;stroke-opacity:1"
                 d="m 164.4222,270.8613 c 1.1497,-0.3286 2.2183,-0.7839 3.2057,-1.3659 0.6609,-0.3896 1.2686,-0.7816 1.8231,-1.1758 0.5545,-0.3943 1.0144,-0.715 1.3795,-0.9622 0.3651,-0.2473 0.6936,-0.3089 0.9856,-0.185" />
            </g>
            <g
               transform="matrix(0.5454546,0,0,-0.5454546,0,588.451)"
               id="g947">
              <path
                 id="path949"
                 style="fill:none;stroke:#d20000;stroke-width:1.55905;stroke-linecap:round;stroke-linejoin:round;stroke-miterlimit:10;stroke-dasharray:none;stroke-opacity:1"
                 d="m 172.5142,266.206 c -0.1526,0.3293 -0.2303,1.0784 -0.2331,2.2472 -0.003,1.1689 -0.0579,2.245 -0.1653,3.2282 -0.1074,0.9832 -0.1884,1.7683 -0.243,2.3553 -0.0547,0.587 -0.1142,1.5565 -0.1787,2.9083 -0.0644,1.3519 -0.1361,2.6632 -0.2151,3.934 -0.0789,1.2708 -0.1315,2.7808 -0.1576,4.5299 -0.0262,1.7492 -0.0636,2.9718 -0.1122,3.668 -0.0487,0.6962 -0.1759,2.1042 -0.3816,4.2242 -0.2057,2.1199 -0.3486,3.8351 -0.4285,5.1456 -0.0799,1.3104 -0.1215,3.6339 -0.1247,6.9705 -0.003,3.3366 -0.0114,6.0259 -0.0246,8.0679 -0.0132,2.0421 -0.0454,3.7761 -0.0967,5.202 -0.0513,1.4259 -0.0776,2.6176 -0.0791,3.5753 -0.002,0.9576 0.0431,1.799 0.1338,2.5243 0.0907,0.7252 0.15,1.4094 0.178,2.0524 0.028,0.643 0.0773,1.0756 0.1481,1.2977 0.0707,0.2221 0.1079,0.3391 0.1117,0.3509 0.004,0.0119 0.003,0.0124 -0.004,0.002 -0.006,-0.0107 -0.0668,-0.1164 -0.1821,-0.3172 -0.1153,-0.2008 -0.4251,-0.6277 -0.9294,-1.2808 -0.5042,-0.6531 -0.9224,-1.113 -1.2545,-1.3797 -0.4855,-0.3899 -1.133,-0.5498 -1.9426,-0.4795" />
            </g>
            <g
               transform="matrix(0.5454546,0,0,-0.5454546,0,588.451)"
               id="g951">
              <path
                 id="path953"
                 style="fill:none;stroke:#7ec636;stroke-width:1.55905;stroke-linecap:round;stroke-linejoin:round;stroke-miterlimit:10;stroke-dasharray:none;stroke-opacity:1"
                 d="M 168.8061,269.0613 459.136,133.4929" />
            </g>
            <g
               transform="matrix(0.5454546,0,0,-0.5454546,0,588.451)"
               id="g955">
              <path
                 id="path957"
                 style="fill:none;stroke:#7ec636;stroke-width:1.55905;stroke-linecap:round;stroke-linejoin:round;stroke-miterlimit:10;stroke-dasharray:none;stroke-opacity:1"
                 d="m 171.6638,298.8819 289.0543,-2.6995" />
            </g>
            <g
               transform="matrix(0.5454546,0,0,-0.5454546,0,588.451)"
               id="g959">
              <path
                 id="path961"
                 style="fill:none;stroke:#7ec636;stroke-width:1.55905;stroke-linecap:round;stroke-linejoin:round;stroke-miterlimit:10;stroke-dasharray:none;stroke-opacity:1"
                 d="M 170.853,327.0412 461.6081,461.9866" />
            </g>
            <g
               transform="matrix(0.5454546,0,0,-0.5454546,0,588.451)"
               id="g963">
              <path
                 id="path965"
                 style="fill:none;stroke:#7ec636;stroke-width:1.55905;stroke-linecap:round;stroke-linejoin:round;stroke-miterlimit:10;stroke-dasharray:none;stroke-opacity:1"
                 d="m 171.6243,303.2797 287.047,27.351" />
            </g>
            <g
               transform="matrix(0.5454546,0,0,-0.5454546,0,588.451)"
               id="g967">
              <path
                 id="path969"
                 style="fill:none;stroke:#7ec636;stroke-width:1.55905;stroke-linecap:round;stroke-linejoin:round;stroke-miterlimit:10;stroke-dasharray:none;stroke-opacity:1"
                 d="m 171.3474,308.1002 287.4821,53.3522" />
            </g>
            <g
               transform="matrix(0.5454546,0,0,-0.5454546,0,588.451)"
               id="g971">
              <path
                 id="path973"
                 style="fill:none;stroke:#7ec636;stroke-width:1.55905;stroke-linecap:round;stroke-linejoin:round;stroke-miterlimit:10;stroke-dasharray:none;stroke-opacity:1"
                 d="M 170.8134,315.1975 458.7108,386.141" />
            </g>
            <g
               transform="matrix(0.5454546,0,0,-0.5454546,0,588.451)"
               id="g975">
              <path
                 id="path977"
                 style="fill:none;stroke:#7ec636;stroke-width:1.55905;stroke-linecap:round;stroke-linejoin:round;stroke-miterlimit:10;stroke-dasharray:none;stroke-opacity:1"
                 d="m 170.0421,320.3666 289.0148,95.4838" />
            </g>
            <g
               transform="matrix(0.5454546,0,0,-0.5454546,0,588.451)"
               id="g979">
              <path
                 id="path981"
                 style="fill:none;stroke:#7ec636;stroke-width:1.55905;stroke-linecap:round;stroke-linejoin:round;stroke-miterlimit:10;stroke-dasharray:none;stroke-opacity:1"
                 d="m 173.0877,292.0515 v 0" />
            </g>
            <path
               id="path983"
               style="fill:#7ec636;fill-opacity:0.1;fill-rule:nonzero;stroke:none"
               d="M 94.4115,429.1502 Z" />
            <g
               transform="matrix(0.5454546,0,0,-0.5454546,0,588.451)"
               id="g985">
              <path
                 id="path987"
                 style="fill:none;stroke:#7ec636;stroke-width:1.55905;stroke-linecap:round;stroke-linejoin:round;stroke-miterlimit:10;stroke-dasharray:none;stroke-opacity:1"
                 d="M 171.733,292.2073 459.9469,267.1331" />
            </g>
            <g
               transform="matrix(0.5454546,0,0,-0.5454546,0,588.451)"
               id="g989">
              <path
                 id="path991"
                 style="fill:none;stroke:#7ec636;stroke-width:1.55905;stroke-linecap:round;stroke-linejoin:round;stroke-miterlimit:10;stroke-dasharray:none;stroke-opacity:1"
                 d="M 172.089,286.304 459.8282,236.8823" />
            </g>
            <g
               transform="matrix(0.5454546,0,0,-0.5454546,0,588.451)"
               id="g993">
              <path
                 id="path995"
                 style="fill:none;stroke:#7ec636;stroke-width:1.55905;stroke-linecap:round;stroke-linejoin:round;stroke-miterlimit:10;stroke-dasharray:none;stroke-opacity:1"
                 d="M 172.3956,280.5564 459.2547,209.1457" />
            </g>
            <g
               transform="matrix(0.5454546,0,0,-0.5454546,0,588.451)"
               id="g997">
              <path
                 id="path999"
                 style="fill:none;stroke:#7ec636;stroke-width:1.55905;stroke-linecap:round;stroke-linejoin:round;stroke-miterlimit:10;stroke-dasharray:none;stroke-opacity:1"
                 d="M 174.1359,272.6878 460.1051,179.9406" />
            </g>
            <g
               transform="matrix(0.5454546,0,0,-0.5454546,0,588.451)"
               id="g1001">
              <path
                 id="path1003"
                 style="fill:none;stroke:#f59a23;stroke-width:1.55905;stroke-linecap:round;stroke-linejoin:round;stroke-miterlimit:10;stroke-dasharray:none;stroke-opacity:1"
                 d="m 279.137,134.9176 c -0.7254,2.6061 -1.1823,4.4364 -1.3707,5.4908 -0.1301,0.728 -0.377,2.738 -0.7408,6.0299 -0.3639,3.2919 -0.5799,5.2917 -0.6482,5.9994 -0.0682,0.7077 -0.1102,1.3517 -0.1259,1.9319 -0.0158,0.5803 -0.0548,1.1786 -0.1173,1.7949 -0.0625,0.6163 -0.0956,0.9429 -0.0993,0.9798 -0.004,0.037 -0.007,0.0451 -0.009,0.0243 -0.003,-0.0295 -0.0389,-0.3869 -0.108,-1.0721" />
            </g>
            <g
               transform="matrix(0.5454546,0,0,-0.5454546,0,588.451)"
               id="g1005">
              <path
                 id="path1007"
                 style="fill:none;stroke:#f59a23;stroke-width:1.55905;stroke-linecap:round;stroke-linejoin:round;stroke-miterlimit:10;stroke-dasharray:none;stroke-opacity:1"
                 d="m 272.6628,153.698 c -0.1306,0.5422 -0.1961,1.0984 -0.1968,1.6686 -6e-4,0.5702 0.0239,1.3255 0.0738,2.2661 0.0498,0.9406 0.1116,1.6214 0.1854,2.0423 0.0738,0.421 0.1945,0.7515 0.3621,0.9917 0.1676,0.2401 0.3932,0.3955 0.677,0.4662 0.2837,0.0707 0.6429,0.034 1.0777,-0.1102 0.4348,-0.1442 0.975,-0.5595 1.6207,-1.2458 0.6457,-0.6864 1.6401,-1.9156 2.9832,-3.6877 1.3431,-1.7722 2.3163,-3.1144 2.9198,-4.0268 0.9081,-1.3731 1.7064,-2.7495 2.395,-4.1293" />
            </g>
            <g
               transform="matrix(0.5454546,0,0,-0.5454546,0,588.451)"
               id="g1009">
              <path
                 id="path1011"
                 style="fill:none;stroke:#f59a23;stroke-width:1.55905;stroke-linecap:round;stroke-linejoin:round;stroke-miterlimit:10;stroke-dasharray:none;stroke-opacity:1"
                 d="m 274.9268,111.9973 c -0.2686,-0.3552 -0.6511,-0.5581 -1.1476,-0.6085 -0.3354,-0.0341 -0.6589,0.0588 -0.9705,0.2788 -0.3115,0.22 -0.6742,0.5845 -1.0881,1.0938 -0.4138,0.5092 -0.8446,1.1887 -1.2924,2.0383 -0.4478,0.8497 -0.8379,1.8142 -1.1704,2.8937 -0.3326,1.0795 -0.5629,2.1482 -0.6911,3.2062 -0.1282,1.058 -0.169,2.0214 -0.1225,2.8903 0.0465,0.8689 0.2857,1.596 0.7175,2.1813 0.4318,0.5853 0.9778,1.0228 1.638,1.3128 0.6603,0.2899 1.3764,0.426 2.1484,0.4082 0.7721,-0.0177 1.5675,-0.3222 2.3863,-0.9136 0.8188,-0.5914 1.6341,-1.3738 2.4457,-2.3474 0.8117,-0.9735 1.5592,-2.0307 2.2425,-3.1715 0.6834,-1.1409 1.2402,-2.2767 1.6705,-3.4075 0.4302,-1.1309 0.7306,-2.1934 0.9012,-3.1875 0.1706,-0.9941 0.2688,-1.8413 0.2948,-2.5414 0.026,-0.7001 -0.0695,-1.2476 -0.2864,-1.6424 -0.217,-0.3949 -0.498,-0.6699 -0.843,-0.8251 -0.345,-0.1551 -0.7721,-0.2405 -1.2812,-0.256 -0.7396,-0.0225 -1.7055,0.3305 -2.8978,1.059" />
            </g>
            <g
               transform="matrix(0.5454546,0,0,-0.5454546,0,588.451)"
               id="g1013">
              <path
                 id="path1015"
                 style="fill:none;stroke:#f59a23;stroke-width:1.55905;stroke-linecap:round;stroke-linejoin:round;stroke-miterlimit:10;stroke-dasharray:none;stroke-opacity:1"
                 d="m 287.8513,109.1819 c 0.151,0.4055 0.0552,1.7927 -0.2875,4.1615 -0.1987,1.3743 -0.3556,2.517 -0.4707,3.4279 -0.1151,0.911 -0.2184,1.8047 -0.31,2.6811 -0.0916,0.8765 -0.1745,1.8559 -0.2487,2.9381 -0.0741,1.0823 0.029,1.5961 0.3095,1.5415 0.2805,-0.0546 0.6066,-0.2624 0.9784,-0.6236 0.3717,-0.3611 0.7393,-0.7043 1.1028,-1.0297 0.3635,-0.3253 0.7191,-0.5799 1.067,-0.7637 0.3478,-0.1839 0.6726,-0.2961 0.9744,-0.3367 0.3017,-0.0407 0.5656,4e-4 0.7916,0.1232 0.2259,0.1227 0.3858,0.3349 0.4796,0.6364 0.0938,0.3015 0.1454,0.6464 0.1548,1.0348 0.009,0.3883 -0.0552,0.7988 -0.1937,1.2314 -0.1385,0.4327 -0.3303,0.8208 -0.5756,1.1644 -0.2452,0.3436 -0.5373,0.6483 -0.8763,0.9141 -0.339,0.2657 -0.7049,0.4931 -1.0977,0.6821 -0.3928,0.189 -0.7943,0.3274 -1.2044,0.4153 -0.5921,0.1268 -1.6487,-0.01 -3.1697,-0.4099" />
            </g>
            <g
               transform="matrix(0.5454546,0,0,-0.5454546,0,588.451)"
               id="g1017">
              <path
                 id="path1019"
                 style="fill:none;stroke:#f59a23;stroke-width:1.55905;stroke-linecap:round;stroke-linejoin:round;stroke-miterlimit:10;stroke-dasharray:none;stroke-opacity:1"
                 d="m 296.1374,121.5507 c 1.1534,0.9487 1.9669,1.7335 2.4405,2.3544 0.3247,0.4259 0.5775,0.8859 0.7583,1.3801 0.1808,0.4943 0.2921,1.0553 0.3339,1.6832 0.0418,0.6279 -0.0331,1.2914 -0.2247,1.9905 -0.1916,0.6991 -0.512,1.4195 -0.9613,2.1614 -0.4493,0.7418 -0.9904,1.5149 -1.6234,2.3194 -0.6329,0.8044 -1.2373,1.4435 -1.8132,1.9172 -0.5758,0.4738 -1.1358,0.8378 -1.6799,1.0921 -0.5441,0.2543 -0.9946,0.4119 -1.3516,0.4729 -0.357,0.0611 -0.5875,0.0657 -0.6914,0.014 -0.1039,-0.0518 -0.0854,-0.2538 0.0555,-0.606 0.1409,-0.3523 0.4898,-0.7952 1.0467,-1.3288 0.557,-0.5336 1.2237,-1.1163 2.0003,-1.7481 0.7765,-0.6319 1.5908,-1.2686 2.4427,-1.9102 0.8519,-0.6417 1.6453,-1.2894 2.3801,-1.9431 0.7349,-0.6538 1.3245,-1.2158 1.7687,-1.6861 0.4443,-0.4703 0.8805,-1.0675 1.3085,-1.7916 0.428,-0.7241 0.7267,-1.369 0.8962,-1.9346 0.1694,-0.5656 0.27,-1.2381 0.3017,-2.0174 0.0317,-0.7793 -0.0119,-1.18 -0.1308,-1.2023 -0.119,-0.0222 -0.2227,0.2178 -0.3111,0.7203 -0.0885,0.5024 -0.1431,1.0857 -0.1638,1.75 -0.0207,0.6643 0.002,1.29 0.0682,1.8771 0.0661,0.587 0.2208,1.0746 0.4639,1.4626 0.3465,0.5531 1.2037,0.6322 2.5717,0.2374" />
            </g>
            <g
               transform="matrix(0.5454546,0,0,-0.5454546,0,588.451)"
               id="g1021">
              <path
                 id="path1023"
                 style="fill:none;stroke:#f59a23;stroke-width:1.55905;stroke-linecap:round;stroke-linejoin:round;stroke-miterlimit:10;stroke-dasharray:none;stroke-opacity:1"
                 d="m 299.7468,111.5295 c 0.1285,-0.178 0.2571,-0.356 0.3856,-0.534" />
            </g>
            <g
               transform="matrix(0.5454546,0,0,-0.5454546,0,588.451)"
               id="g1025">
              <path
                 id="path1027"
                 style="fill:none;stroke:#f59a23;stroke-width:1.55905;stroke-linecap:round;stroke-linejoin:round;stroke-miterlimit:10;stroke-dasharray:none;stroke-opacity:1"
                 d="m 314.0813,121.2446 c -0.5023,-0.06 -0.9824,-0.0287 -1.4402,0.0939 -0.3074,0.0823 -0.61,0.2366 -0.9078,0.4629 -0.2977,0.2263 -0.5668,0.4842 -0.8072,0.7738 -0.2403,0.2896 -0.4172,0.6177 -0.5306,0.9841 -0.1134,0.3665 -0.1533,0.7408 -0.1198,1.123 0.0335,0.3822 0.2017,0.7948 0.5047,1.238 0.303,0.4431 0.6906,0.8604 1.1629,1.2518 0.4723,0.3914 0.9753,0.6823 1.5091,0.8727 0.77,0.2747 1.8242,0.007 3.1627,-0.8045" />
            </g>
            <g
               transform="matrix(0.5454546,0,0,-0.5454546,0,588.451)"
               id="g1029">
              <path
                 id="path1031"
                 style="fill:none;stroke:#f59a23;stroke-width:1.55905;stroke-linecap:round;stroke-linejoin:round;stroke-miterlimit:10;stroke-dasharray:none;stroke-opacity:1"
                 d="m 323.1398,109.8413 c -0.4777,0.0674 -0.7635,0.4578 -0.8575,1.1711 -0.0648,0.4924 -0.1007,1.6967 -0.1079,3.6128 -0.007,1.9162 -0.0285,3.4783 -0.0642,4.6864 -0.0356,1.2081 -0.079,2.3643 -0.13,3.4685 -0.0511,1.1042 -0.1073,1.9774 -0.1688,2.6196 -0.0614,0.6421 -0.1249,1.0476 -0.1904,1.2164 -0.0655,0.1688 -0.1831,0.2038 -0.3528,0.1049 -0.1696,-0.0988 -0.5777,-0.7398 -1.2241,-1.9229 -0.6463,-1.1832 -1.1346,-2.0684 -1.4647,-2.6558 -0.3301,-0.5874 -0.5236,-0.9769 -0.5806,-1.1683 -0.057,-0.1914 0.2888,-0.3143 1.0376,-0.3688 1.0819,-0.0786 3.0962,-0.4475 6.0431,-1.1067" />
            </g>
            <g
               transform="matrix(0.5454546,0,0,-0.5454546,0,588.451)"
               id="g1033">
              <path
                 id="path1035"
                 style="fill:none;stroke:#f59a23;stroke-width:1.55905;stroke-linecap:round;stroke-linejoin:round;stroke-miterlimit:10;stroke-dasharray:none;stroke-opacity:1"
                 d="m 355.6602,112.7578 c 0.082,-0.2764 0.0177,-0.4013 -0.1929,-0.3745 -0.1516,0.0192 -0.3327,0.1222 -0.5433,0.3091 -0.2107,0.1868 -0.4541,0.4465 -0.7303,0.7789 -0.2762,0.3323 -0.5793,0.7582 -0.9093,1.2776 -0.33,0.5193 -0.5917,0.9902 -0.7851,1.4126 -0.1934,0.4224 -0.3787,1.0521 -0.556,1.889 -0.1773,0.837 -0.2715,1.5707 -0.2826,2.2013 -0.011,0.6306 0.0348,1.2032 0.1375,1.7179 0.1028,0.5147 0.2809,0.9135 0.5344,1.1964 0.2536,0.2828 0.5443,0.4729 0.8722,0.5701 0.4709,0.1397 1.3691,-0.0978 2.6946,-0.7124" />
            </g>
            <g
               transform="matrix(0.5454546,0,0,-0.5454546,0,588.451)"
               id="g1037">
              <path
                 id="path1039"
                 style="fill:none;stroke:#f59a23;stroke-width:1.55905;stroke-linecap:round;stroke-linejoin:round;stroke-miterlimit:10;stroke-dasharray:none;stroke-opacity:1"
                 d="m 360.1265,115.707 c 0.7252,1.3524 1.2889,2.5288 1.6912,3.5292 0.2729,0.6785 0.4796,1.1508 0.6202,1.4169 0.1406,0.266 0.2698,0.4647 0.3877,0.5958 0.1178,0.1312 0.2405,0.2089 0.368,0.2332 0.1811,0.0344 0.4108,-0.2387 0.6892,-0.8193" />
            </g>
            <g
               transform="matrix(0.5454546,0,0,-0.5454546,0,588.451)"
               id="g1041">
              <path
                 id="path1043"
                 style="fill:none;stroke:#f59a23;stroke-width:1.55905;stroke-linecap:round;stroke-linejoin:round;stroke-miterlimit:10;stroke-dasharray:none;stroke-opacity:1"
                 d="m 359.3535,121.6517 c -0.2118,-0.3097 -0.0838,-0.7256 0.3837,-1.2478 0.3219,-0.3595 1.0117,-1.0542 2.0694,-2.0843 1.7873,-1.7405 2.7777,-2.875 2.9712,-3.4034" />
            </g>
            <g
               transform="matrix(0.5454546,0,0,-0.5454546,0,588.451)"
               id="g1045">
              <path
                 id="path1047"
                 style="fill:none;stroke:#f59a23;stroke-width:1.55905;stroke-linecap:round;stroke-linejoin:round;stroke-miterlimit:10;stroke-dasharray:none;stroke-opacity:1"
                 d="m 368.8691,118.3473 c -0.2207,0.1178 -0.4196,0.4857 -0.5965,1.1039 -0.1133,0.3958 -0.2112,0.8393 -0.2937,1.3305 -0.1202,0.7156 -0.1906,1.8021 -0.211,3.2596" />
            </g>
            <g
               transform="matrix(0.5454546,0,0,-0.5454546,0,588.451)"
               id="g1049">
              <path
                 id="path1051"
                 style="fill:none;stroke:#f59a23;stroke-width:1.55905;stroke-linecap:round;stroke-linejoin:round;stroke-miterlimit:10;stroke-dasharray:none;stroke-opacity:1"
                 d="m 372.8965,115.5094 c 0.4035,-0.021 0.6962,0.2919 0.8782,0.9388 0.1259,0.4473 0.202,0.9172 0.2285,1.4096 0.0265,0.4924 0.1527,0.877 0.3787,1.1538" />
            </g>
            <g
               transform="matrix(0.5454546,0,0,-0.5454546,0,588.451)"
               id="g1053">
              <path
                 id="path1055"
                 style="fill:none;stroke:#f59a23;stroke-width:1.55905;stroke-linecap:round;stroke-linejoin:round;stroke-miterlimit:10;stroke-dasharray:none;stroke-opacity:1"
                 d="m 380.765,112.1994 c -0.632,0.4464 -1.1558,1.0268 -1.5713,1.741 -0.2775,0.477 -0.5918,1.0575 -0.9429,1.7415 -0.3511,0.684 -1.043,2.0792 -2.0757,4.1858 -1.0327,2.1065 -1.8954,3.8079 -2.5881,5.1041 -0.6928,1.2963 -1.3527,2.5476 -1.9796,3.7541 -0.627,1.2064 -1.1684,2.344 -1.6242,3.4127 -0.4558,1.0687 -0.7532,1.8077 -0.8922,2.2168 -0.139,0.4092 -0.2319,0.7196 -0.2788,0.9312 -0.047,0.2115 -0.0767,0.3459 -0.0894,0.403" />
            </g>
            <g
               transform="matrix(0.5454546,0,0,-0.5454546,0,588.451)"
               id="g1057">
              <path
                 id="path1059"
                 style="fill:none;stroke:#f59a23;stroke-width:1.55905;stroke-linecap:round;stroke-linejoin:round;stroke-miterlimit:10;stroke-dasharray:none;stroke-opacity:1"
                 d="m 383.1283,108.7343 c 0.1885,-0.1042 0.4282,-0.0123 0.7191,0.2757 0.1991,0.1971 0.4081,0.479 0.6267,0.8458 0.2187,0.3668 0.4072,0.8344 0.5655,1.4028 0.1583,0.5685 0.2751,1.2226 0.3502,1.9625 0.0752,0.7399 0.1169,1.5683 0.1252,2.4854 0.008,0.917 -0.0336,1.753 -0.1254,2.5079 -0.0919,0.7548 -0.2236,1.4392 -0.395,2.0532 -0.2479,0.8874 -1.0981,2.26 -2.5508,4.1179" />
            </g>
            <g
               transform="matrix(0.5454546,0,0,-0.5454546,0,588.451)"
               id="g1061">
              <path
                 id="path1063"
                 style="fill:none;stroke:#d20000;stroke-width:1.55905;stroke-linecap:round;stroke-linejoin:round;stroke-miterlimit:10;stroke-dasharray:none;stroke-opacity:1"
                 d="m 94.81048,211.4786 c -0.33909,-0.3472 -0.48865,-0.333 -0.44869,0.0427 0.02932,0.2755 0.1509,0.6997 0.36476,1.2723 0.21385,0.5727 0.43529,1.2459 0.66433,2.0196 0.22904,0.7736 0.50037,1.6397 0.81399,2.5981 0.31362,0.9584 0.69525,1.9661 1.14488,3.0231 0.44964,1.057 0.95057,2.1244 1.5028,3.2024 0.55224,1.078 1.10515,2.1158 1.65875,3.1136 0.5536,0.9977 1.0672,1.8535 1.5408,2.5673 0.4737,0.7139 0.8795,1.2678 1.2176,1.6618 0.3381,0.394 0.5785,0.6497 0.7213,0.7673 0.1429,0.1176 0.2328,0.1916 0.2699,0.2222" />
            </g>
            <g
               transform="matrix(0.5454546,0,0,-0.5454546,0,588.451)"
               id="g1065">
              <path
                 id="path1067"
                 style="fill:none;stroke:#d20000;stroke-width:1.55905;stroke-linecap:round;stroke-linejoin:round;stroke-miterlimit:10;stroke-dasharray:none;stroke-opacity:1"
                 d="m 88.65925,232.9313 c 0.54992,-0.7275 1.49075,-1.7101 2.8225,-2.9478 0.84569,-0.786 1.82699,-1.7567 2.94389,-2.9122 1.11691,-1.1554 2.30374,-2.4973 3.5605,-4.0256 1.25675,-1.5284 2.48786,-3.1955 3.69336,-5.0014 1.2055,-1.8059 2.3668,-3.4532 3.4841,-4.9421 1.1173,-1.4888 2.1026,-2.707 2.956,-3.6546 0.8533,-0.9476 1.6154,-1.729 2.2863,-2.3443 0.6708,-0.6153 1.1816,-1.0695 1.5324,-1.3625 0.5431,-0.4537 1.009,-0.7594 1.3976,-0.9169" />
            </g>
            <g
               transform="matrix(0.5454546,0,0,-0.5454546,0,588.451)"
               id="g1069">
              <path
                 id="path1071"
                 style="fill:none;stroke:#d20000;stroke-width:1.55905;stroke-linecap:round;stroke-linejoin:round;stroke-miterlimit:10;stroke-dasharray:none;stroke-opacity:1"
                 d="m 110.2675,222.2164 c -0.1569,0.5107 -0.2422,1.1106 -0.2559,1.7999 -0.0137,0.6892 0.004,1.5429 0.054,2.561 0.0497,1.0181 0.088,1.7104 0.1151,2.077 0.0271,0.3667 0.0416,0.5628 0.0435,0.5883 0.002,0.0256 0.007,-0.004 0.016,-0.0891 0.009,-0.0849 0.0762,-0.7365 0.2022,-1.9548 0.126,-1.2183 0.1991,-2.4866 0.2193,-3.8049 0.0202,-1.3183 0.009,-2.2703 -0.0345,-2.8559 -0.0433,-0.5855 -0.0694,-0.9391 -0.0784,-1.0608 -0.009,-0.1216 -0.001,-0.1639 0.0224,-0.1268 0.0239,0.037 0.0935,0.1446 0.2087,0.3229 0.1152,0.1782 0.3133,0.4174 0.5942,0.7175 0.2809,0.3001 0.5734,0.5519 0.8774,0.7554 0.3039,0.2036 0.6402,0.35 1.0088,0.4393 0.5323,0.1291 1.5245,0.0919 2.9767,-0.1115" />
            </g>
            <g
               transform="matrix(0.5454546,0,0,-0.5454546,0,588.451)"
               id="g1073">
              <path
                 id="path1075"
                 style="fill:none;stroke:#d20000;stroke-width:1.55905;stroke-linecap:round;stroke-linejoin:round;stroke-miterlimit:10;stroke-dasharray:none;stroke-opacity:1"
                 d="m 120.6945,223.715 c 0.1002,-0.6444 0.0318,-1.0174 -0.2054,-1.119 -0.1667,-0.0713 -0.3501,-0.0556 -0.5501,0.0473 -0.2,0.1029 -0.4257,0.3153 -0.6771,0.637 -0.2514,0.3218 -0.4994,0.7535 -0.744,1.2952 -0.2447,0.5417 -0.4549,1.1066 -0.6307,1.6947 -0.1757,0.5882 -0.2783,1.1141 -0.3078,1.5778 -0.0294,0.4638 -0.0278,0.8112 0.005,1.0422 0.0326,0.231 0.1425,0.3692 0.3297,0.4146 0.1872,0.0453 0.4237,-0.0332 0.7094,-0.2356 0.2857,-0.2023 0.5941,-0.6029 0.9252,-1.2016 0.3312,-0.5987 0.629,-1.1894 0.8935,-1.7721 0.2645,-0.5827 0.5052,-1.0501 0.7221,-1.4021 0.2168,-0.352 0.4182,-0.2814 0.604,0.2116 0.1858,0.4931 0.3599,0.9251 0.5223,1.2961 0.1624,0.371 0.3393,0.6963 0.5305,0.9759 0.2774,0.4055 0.7922,0.6456 1.5445,0.7202" />
            </g>
            <g
               transform="matrix(0.5454546,0,0,-0.5454546,0,588.451)"
               id="g1077">
              <path
                 id="path1079"
                 style="fill:none;stroke:#d20000;stroke-width:1.55905;stroke-linecap:round;stroke-linejoin:round;stroke-miterlimit:10;stroke-dasharray:none;stroke-opacity:1"
                 d="m 128.375,221.8816 c -0.3828,0.8827 -0.5943,1.6199 -0.6343,2.2118 -0.0273,0.4042 0.0392,0.7433 0.1997,1.0173 0.1604,0.274 0.44,0.4414 0.8387,0.5022 0.5756,0.0877 1.4163,-0.2108 2.5223,-0.8956" />
            </g>
            <g
               transform="matrix(0.5454546,0,0,-0.5454546,0,588.451)"
               id="g1081">
              <path
                 id="path1083"
                 style="fill:none;stroke:#d20000;stroke-width:1.55905;stroke-linecap:round;stroke-linejoin:round;stroke-miterlimit:10;stroke-dasharray:none;stroke-opacity:1"
                 d="m 133.9806,221.0812 c 0.1573,0.6371 0.0641,1.4305 -0.2795,2.3801 -0.2257,0.6235 -0.5293,1.4003 -0.9108,2.3304 -0.3815,0.9301 -0.793,1.8476 -1.2346,2.7527 -0.4416,0.9051 -1.1762,2.1896 -2.2037,3.8535 -1.0275,1.664 -1.936,3.1051 -2.7255,4.3234 -1.1505,1.7752 -2.9413,4.4105 -5.3724,7.9059" />
            </g>
            <g
               transform="matrix(0.5454546,0,0,-0.5454546,0,588.451)"
               id="g1085">
              <path
                 id="path1087"
                 style="fill:none;stroke:#d20000;stroke-width:1.55905;stroke-linecap:round;stroke-linejoin:round;stroke-miterlimit:10;stroke-dasharray:none;stroke-opacity:1"
                 d="m 156.3172,209.7572 c -0.089,-0.429 -0.3669,-0.6462 -0.8336,-0.6517 -0.4668,-0.005 -0.8929,0.0908 -1.2782,0.2888 -0.3853,0.1979 -0.8345,0.5093 -1.3477,0.934 -0.5131,0.4247 -0.9749,0.8664 -1.3851,1.3249 -0.4103,0.4585 -0.7294,0.9476 -0.9573,1.4674 -0.2279,0.5197 -0.3609,1.0759 -0.399,1.6686 -0.0382,0.5927 0.0242,1.1111 0.187,1.5552 0.1628,0.4441 0.4199,0.8563 0.7714,1.2367 0.3515,0.3804 0.9256,0.9007 1.7222,1.5611 0.7966,0.6603 1.3301,1.1874 1.6006,1.5811 0.2704,0.3938 0.4533,0.8239 0.5485,1.2904 0.0953,0.4666 0.1359,0.9201 0.1217,1.3605 -0.0143,0.4405 -0.1659,0.8619 -0.4551,1.2641 -0.2892,0.4022 -0.6929,0.8252 -1.2112,1.2688 -0.5183,0.4436 -1.0452,0.8163 -1.5807,1.118 -0.5354,0.3018 -1.0829,0.5496 -1.6426,0.7434 -0.5596,0.1939 -1.0608,0.3054 -1.5036,0.3347 -0.4428,0.0292 -0.8613,0.0331 -1.2557,0.0116 -0.3943,-0.0216 -0.6853,-0.1024 -0.8731,-0.2425 -0.267,-0.1992 -0.2349,-0.6692 0.0963,-1.4098" />
            </g>
            <g
               transform="matrix(0.5454546,0,0,-0.5454546,0,588.451)"
               id="g1089">
              <path
                 id="path1091"
                 style="fill:none;stroke:#d20000;stroke-width:1.55905;stroke-linecap:round;stroke-linejoin:round;stroke-miterlimit:10;stroke-dasharray:none;stroke-opacity:1"
                 d="m 161.0614,221.6643 c 0.1434,-0.6853 0.0744,-1.0637 -0.207,-1.1352 -0.1987,-0.0505 -0.4638,-0.0549 -0.7951,-0.0132 -0.3314,0.0417 -0.6812,0.2215 -1.0496,0.5393 -0.3683,0.3179 -0.7358,0.7112 -1.1023,1.18 -0.3665,0.4689 -0.6421,0.9587 -0.8267,1.4696 -0.1845,0.511 -0.3023,1.0534 -0.3534,1.6273 -0.0511,0.574 -0.0392,1.1377 0.0358,1.6912 0.075,0.5536 0.2557,0.9971 0.542,1.3306 0.2864,0.3334 0.6293,0.5513 1.0287,0.6536 0.3995,0.1023 0.8164,0.0952 1.2509,-0.0214 0.4345,-0.1166 0.8707,-0.4121 1.3087,-0.8865 0.438,-0.4744 0.8169,-1.0012 1.1366,-1.5804 0.3196,-0.5792 0.5537,-1.1573 0.7022,-1.7343 0.1485,-0.577 0.2297,-1.0519 0.2438,-1.4249 0.014,-0.373 0.005,-0.676 -0.0258,-0.9091 -0.0313,-0.233 -0.1031,-0.4208 -0.2156,-0.5634 -0.1124,-0.1425 -0.1775,-0.225 -0.1953,-0.2476 -0.0178,-0.0225 0.016,-0.0129 0.1014,0.029 0.0854,0.042 0.398,0.1953 0.9377,0.4601 0.5397,0.2648 0.9561,0.4375 1.2492,0.5181 0.2931,0.0806 0.5982,0.125 0.9153,0.133 0.317,0.008 0.6249,-0.022 0.9236,-0.0901 0.2987,-0.0682 0.5905,-0.1991 0.8755,-0.3928 0.285,-0.1937 0.6729,-0.5291 1.1636,-1.006 0.4908,-0.477 0.7196,-0.6386 0.6865,-0.4847 -0.0331,0.1539 -0.1159,0.5385 -0.2483,1.154 -0.1324,0.6155 -0.215,1.158 -0.2478,1.6275 -0.0329,0.4695 -0.045,0.9246 -0.0364,1.3654 0.009,0.4407 0.0711,0.8055 0.1877,1.0943 0.1165,0.2888 0.2682,0.4933 0.4548,0.6134 0.1867,0.1201 0.3932,0.1861 0.6195,0.1981 0.2264,0.012 0.4779,-0.0677 0.7547,-0.2393 0.2767,-0.1715 0.6759,-0.6261 1.1975,-1.3635 0.5216,-0.7375 0.869,-1.2862 1.0423,-1.646 0.1733,-0.3599 0.3254,-0.753 0.4562,-1.1796 0.1307,-0.4264 0.2169,-0.7073 0.2583,-0.8425 0.0415,-0.1351 0.0655,-0.1217 0.0719,0.0402 0.006,0.162 0.02,0.4984 0.0405,1.0094 0.0205,0.511 0.055,0.9754 0.1037,1.3933 0.0486,0.4179 0.1392,0.7923 0.2716,1.1233 0.1324,0.3311 0.3388,0.5654 0.619,0.7031 0.2802,0.1376 0.6197,0.1967 1.0186,0.1771 0.3988,-0.0196 0.8095,-0.1584 1.2321,-0.4162 0.4225,-0.2578 0.8678,-0.5197 1.3358,-0.7857 0.4681,-0.2659 0.8478,-0.4601 1.1393,-0.5825 0.2914,-0.1223 0.5411,-0.1964 0.7491,-0.2221 0.208,-0.0257 0.3486,0.066 0.422,0.2749 0.0734,0.2089 0.1256,0.5496 0.1566,1.0221 0.0311,0.4725 0.0363,0.9571 0.0157,1.4538 -0.0206,0.4967 -0.0749,0.8918 -0.1629,1.1854 -0.088,0.2936 -0.1385,0.3987 -0.1513,0.3154 -0.0129,-0.0833 -0.0451,-0.2917 -0.0966,-0.625 -0.0515,-0.3333 -0.078,-1.0932 -0.0795,-2.2797 -0.002,-1.1864 0.0895,-2.5545 0.2731,-4.1042 0.1836,-1.5497 0.3047,-2.4526 0.3632,-2.7086 0.0584,-0.256 0.2267,-0.22 0.5046,0.1081 0.278,0.328 0.5181,0.5964 0.7205,0.8051 0.2925,0.3017 0.889,0.5166 1.7894,0.6448" />
            </g>
            <g
               transform="matrix(0.5454546,0,0,-0.5454546,0,588.451)"
               id="g1093">
              <path
                 id="path1095"
                 style="fill:none;stroke:#d20000;stroke-width:1.55905;stroke-linecap:round;stroke-linejoin:round;stroke-miterlimit:10;stroke-dasharray:none;stroke-opacity:1"
                 d="m 191.6636,217.7808 c -0.2357,-0.0411 -0.5737,0.1649 -1.014,0.618 -0.286,0.2944 -0.6169,0.6699 -0.9925,1.1265 -0.3757,0.4566 -0.7559,0.968 -1.1405,1.5343 -0.3847,0.5663 -0.706,1.1269 -0.964,1.6819 -0.258,0.555 -0.4414,1.0282 -0.5503,1.4197 -0.1088,0.3915 -0.1692,0.8219 -0.1812,1.2912 -0.012,0.4693 0.0754,0.8072 0.2622,1.0135 0.1868,0.2063 0.4987,0.3376 0.9356,0.3938 0.437,0.0563 0.9146,0.0805 1.4329,0.0728 0.5184,-0.008 1.023,-0.052 1.5139,-0.1329 0.7176,-0.1182 1.6165,-0.4809 2.6969,-1.0882" />
            </g>
            <g
               transform="matrix(0.5454546,0,0,-0.5454546,0,588.451)"
               id="g1097">
              <path
                 id="path1099"
                 style="fill:none;stroke:#d20000;stroke-width:1.55905;stroke-linecap:round;stroke-linejoin:round;stroke-miterlimit:10;stroke-dasharray:none;stroke-opacity:1"
                 d="m 198.5896,218.9756 c -0.1542,0.4158 0.0158,0.6425 0.5102,0.6801 0.4943,0.0375 0.9023,-0.0197 1.2239,-0.1716 0.3216,-0.152 0.6365,-0.3568 0.9445,-0.6145 0.3081,-0.2577 0.6006,-0.5441 0.8776,-0.8591 0.277,-0.315 0.5036,-0.6218 0.6796,-0.9202 0.176,-0.2985 0.2868,-0.6008 0.3323,-0.9068 0.0454,-0.3061 0.0164,-0.5677 -0.087,-0.7849 -0.1034,-0.2172 -0.3056,-0.3833 -0.6067,-0.4985 -0.301,-0.1151 -0.6461,-0.1496 -1.0351,-0.1032 -0.3891,0.0463 -0.7648,0.2286 -1.127,0.547 -0.3623,0.3183 -0.6831,0.7248 -0.9626,1.2194 -0.2795,0.4946 -0.4806,1.0036 -0.6035,1.5269 -0.1229,0.5234 -0.1905,1.0371 -0.2028,1.541 -0.0123,0.504 0.1026,0.9603 0.3446,1.3689 0.2421,0.4086 0.5265,0.7324 0.8533,0.9712 0.3267,0.2389 0.815,0.4484 1.4647,0.6284 0.9415,0.2608 2.3862,0.0907 4.3342,-0.5104" />
            </g>
            <g
               transform="matrix(0.5454546,0,0,-0.5454546,0,588.451)"
               id="g1101">
              <path
                 id="path1103"
                 style="fill:none;stroke:#d20000;stroke-width:1.55905;stroke-linecap:round;stroke-linejoin:round;stroke-miterlimit:10;stroke-dasharray:none;stroke-opacity:1"
                 d="m 140.3113,241.7312 c -0.3063,0.1014 -0.6819,0.4863 -1.1267,1.1547 -0.2825,0.4245 -0.5892,0.965 -0.9201,1.6215 -0.3308,0.6565 -0.6522,1.4459 -0.9641,2.3681 -0.3119,0.9222 -0.5873,1.9378 -0.8262,3.0468 -0.2388,1.109 -0.4162,2.2985 -0.532,3.5686 -0.1159,1.27 -0.1796,2.5926 -0.1912,3.9678 -0.0115,1.3751 -0.012,2.7044 -0.001,3.9877 0.0107,1.2833 0.0848,2.482 0.2224,3.5959 0.1375,1.114 0.3185,2.1605 0.5428,3.1396 0.2244,0.979 0.4635,1.928 0.7173,2.8469 0.2538,0.9189 0.5151,1.8181 0.7837,2.6976 0.2686,0.8795 0.5439,1.7103 0.8259,2.4924 0.4134,1.1466 1.1673,1.855 2.2616,2.1253" />
            </g>
            <g
               transform="matrix(0.5454546,0,0,-0.5454546,-60.74308,603.5362)"
               id="g1105">
              <path
                 id="path1107"
                 style="fill:none;stroke:#007aff;stroke-width:1.55905;stroke-linecap:round;stroke-linejoin:round;stroke-miterlimit:10;stroke-dasharray:none;stroke-opacity:1"
                 d="m 529.9955,107.6333 c -0.184,0 -0.3245,0.1889 -0.4215,0.5667 -0.097,0.3778 -0.1406,0.796 -0.1306,1.2547 0.01,0.4588 0.125,1.0114 0.3455,1.658 0.2206,0.6466 0.5213,1.4127 0.9023,2.2983 0.381,0.8857 0.7418,1.8478 1.0825,2.8863 0.3407,1.0386 0.6378,2.1716 0.8915,3.399 0.2535,1.2274 0.4687,2.3942 0.6453,3.5003 0.1766,1.1062 0.3316,2.0561 0.465,2.8497 0.1334,0.7937 0.2646,1.3859 0.3936,1.7768 0.129,0.3908 0.316,0.6468 0.5609,0.768 0.3444,0.1703 0.596,-0.4302 0.755,-1.8015" />
            </g>
            <g
               transform="matrix(0.5454546,0,0,-0.5454546,-60.74308,603.5362)"
               id="g1109">
              <path
                 id="path1111"
                 style="fill:none;stroke:#007aff;stroke-width:1.55905;stroke-linecap:round;stroke-linejoin:round;stroke-miterlimit:10;stroke-dasharray:none;stroke-opacity:1"
                 d="m 522.9649,131.1279 c 0.1187,-0.8157 0.481,-1.6501 1.0871,-2.5034 0.606,-0.8534 1.3572,-1.8238 2.2534,-2.9115 0.8963,-1.0876 1.9054,-2.2998 3.0274,-3.6367 1.122,-1.3369 2.2552,-2.7664 3.3997,-4.2884 1.1445,-1.522 2.507,-3.32 4.0873,-5.3942 1.5804,-2.0741 2.7088,-3.5647 3.3853,-4.4718 0.6764,-0.9072 1.3077,-1.6633 1.8938,-2.2683" />
            </g>
            <g
               transform="matrix(0.5454546,0,0,-0.5454546,-60.74308,603.5362)"
               id="g1113">
              <path
                 id="path1115"
                 style="fill:none;stroke:#007aff;stroke-width:1.55905;stroke-linecap:round;stroke-linejoin:round;stroke-miterlimit:10;stroke-dasharray:none;stroke-opacity:1"
                 d="m 540.5738,123.143 c 0.2356,1.1952 0.383,2.1252 0.4421,2.79 0.0405,0.455 0.0628,0.9132 0.0669,1.3748 0.004,0.4615 -0.0117,0.8639 -0.047,1.207 -0.0354,0.3431 -0.0542,0.5253 -0.0563,0.5464 -0.002,0.0211 -0.003,0.0191 -0.003,-0.006 -10e-5,-0.0252 -9e-4,-0.2418 -0.002,-0.65 -0.002,-0.4082 0.0318,-0.8819 0.1001,-1.421 0.0681,-0.5391 0.1422,-1.2513 0.2221,-2.1367 0.0799,-0.8854 0.1422,-1.8377 0.1869,-2.8569 0.0447,-1.0191 0.1154,-1.6945 0.2123,-2.0259 0.0968,-0.3315 0.2344,-0.508 0.4128,-0.5296 0.1783,-0.0217 0.404,0.0187 0.6769,0.1211 0.273,0.1024 0.5744,0.28 0.9042,0.5328 0.3299,0.2527 0.6686,0.4963 1.016,0.7307 0.3475,0.2344 0.7121,0.409 1.094,0.5236 0.3818,0.1147 0.8169,0.1783 1.3053,0.1909 0.4885,0.0126 0.9488,-0.0733 1.381,-0.2579 0.4321,-0.1845 0.8033,-0.3839 1.1135,-0.5982 0.3102,-0.2142 0.5643,-0.4145 0.7626,-0.601 0.1981,-0.1864 0.2588,-0.2675 0.182,-0.2432 -0.0769,0.0243 -0.269,0.085 -0.5765,0.1821 -0.3074,0.0971 -0.6511,0.2855 -1.031,0.5651 -0.38,0.2796 -0.8058,0.6898 -1.2774,1.2305 -0.4717,0.5407 -0.915,1.2459 -1.33,2.1157 -0.4149,0.8697 -0.6726,1.6039 -0.7729,2.2024 -0.1003,0.5985 -0.1555,1.0956 -0.1656,1.4914 -0.01,0.3958 0.0542,0.6536 0.1927,0.7733 0.1384,0.1196 0.3776,0.082 0.7177,-0.1129 0.3402,-0.195 0.7528,-0.6037 1.2377,-1.2261 0.485,-0.6224 0.9311,-1.2941 1.3386,-2.0149 0.4074,-0.7208 0.8263,-1.5129 1.2566,-2.3763 0.4304,-0.8634 0.6957,-1.3634 0.7959,-1.4998 0.1002,-0.1365 0.2664,-0.0552 0.4985,0.2437 0.2321,0.299 0.5261,0.8038 0.882,1.5143 0.3559,0.7105 0.6322,1.2032 0.8289,1.4782 0.2893,0.4044 0.7297,0.7233 1.3211,0.9567" />
            </g>
            <g
               transform="matrix(0.5454546,0,0,-0.5454546,-60.74308,603.5362)"
               id="g1117">
              <path
                 id="path1119"
                 style="fill:none;stroke:#007aff;stroke-width:1.55905;stroke-linecap:round;stroke-linejoin:round;stroke-miterlimit:10;stroke-dasharray:none;stroke-opacity:1"
                 d="m 559.7493,119.744 c -0.2488,0.3894 -0.3818,1.0009 -0.3991,1.8347 -0.0174,0.8337 -0.0142,1.4074 0.01,1.7211 0.0237,0.3136 0.0768,0.5952 0.1593,0.8446 0.1186,0.3586 0.5846,0.698 1.398,1.0181" />
            </g>
            <g
               transform="matrix(0.5454546,0,0,-0.5454546,-60.74308,603.5362)"
               id="g1121">
              <path
                 id="path1123"
                 style="fill:none;stroke:#007aff;stroke-width:1.55905;stroke-linecap:round;stroke-linejoin:round;stroke-miterlimit:10;stroke-dasharray:none;stroke-opacity:1"
                 d="m 585.3699,115.9617 c -0.1759,2.1969 -0.334,4.6991 -0.4744,7.5066 -0.1404,2.8076 -0.2294,4.693 -0.2672,5.6563 -0.0378,0.9632 -0.0764,1.7422 -0.1157,2.3369 -0.0394,0.5947 -0.0762,0.9632 -0.1105,1.1054 -0.0343,0.1423 -0.0541,0.2243 -0.0593,0.2461 -0.005,0.0218 -0.009,-0.0311 -0.0114,-0.1587 -0.002,-0.1276 -0.011,-0.6078 -0.0261,-1.4407 -0.0151,-0.8329 -0.0227,-1.8501 -0.0228,-3.0518 -2e-4,-1.2017 -0.0344,-2.5456 -0.1026,-4.0318 -0.0683,-1.4863 -0.1414,-2.8243 -0.2195,-4.0142 -0.078,-1.1898 -0.1209,-2.0245 -0.1287,-2.5039 -0.008,-0.4794 0.0413,-1.4428 0.1473,-2.8902 0.106,-1.4474 0.3498,-2.7996 0.7312,-4.0568 0.3814,-1.2572 0.8166,-2.2779 1.3057,-3.0622 0.489,-0.7842 1.0368,-1.4236 1.6434,-1.9181 0.6066,-0.4945 1.2755,-0.8888 2.0065,-1.183 0.7311,-0.2942 1.4699,-0.4615 2.2164,-0.5021 0.7465,-0.0405 1.4582,0.1808 2.135,0.664 0.6769,0.4832 1.3562,1.1483 2.0379,1.9953 0.6818,0.8471 1.2941,1.7869 1.8369,2.8194 0.5428,1.0325 0.9689,2.0865 1.2783,3.162 0.3094,1.0755 0.527,2.1876 0.6529,3.3364 0.1259,1.1488 0.1536,2.3602 0.0831,3.6343 -0.0705,1.274 -0.3643,2.5877 -0.8816,3.941 -0.5173,1.3533 -1.1845,2.5782 -2.0016,3.6746 -0.8171,1.0965 -1.747,2.0177 -2.7899,2.7637 -1.0428,0.7459 -2.1207,1.3242 -3.2336,1.7347 -1.1129,0.4106 -2.1418,0.6586 -3.0866,0.7442 -0.9449,0.0855 -1.6737,0.0292 -2.1865,-0.1692 -0.7381,-0.2855 -1.2772,-1.1688 -1.6175,-2.6498" />
            </g>
            <g
               transform="matrix(0.5454546,0,0,-0.5454546,-60.74308,603.5362)"
               id="g1125">
              <path
                 id="path1127"
                 style="fill:none;stroke:#007aff;stroke-width:1.55905;stroke-linecap:round;stroke-linejoin:round;stroke-miterlimit:10;stroke-dasharray:none;stroke-opacity:1"
                 d="m 601.3325,125.2849 c 0.4314,-0.0559 0.8246,-0.0375 1.1796,0.055 0.2395,0.0625 0.5448,0.0969 0.9159,0.1031 0.371,0.006 0.7723,-0.0537 1.204,-0.1799 0.4316,-0.1262 0.8425,-0.3691 1.2328,-0.7288 0.3903,-0.3597 0.7019,-0.7591 0.935,-1.198 0.2331,-0.4389 0.3577,-0.8092 0.3738,-1.111 0.0161,-0.3017 -0.1427,-0.5261 -0.4764,-0.6732 -0.3337,-0.1471 -0.6745,-0.204 -1.0222,-0.1708 -0.3476,0.0333 -0.8664,0.3272 -1.5564,0.8817 -0.69,0.5545 -1.2298,1.1624 -1.6196,1.8236 -0.3897,0.6611 -0.6501,1.314 -0.781,1.9586 -0.131,0.6446 -0.1452,1.2361 -0.0426,1.7744 0.1026,0.5384 0.386,0.9802 0.8501,1.3255 0.4641,0.3453 1.0383,0.5519 1.7225,0.6198 0.9823,0.0975 2.5563,-0.7426 4.7219,-2.5201" />
            </g>
            <g
               transform="matrix(0.5454546,0,0,-0.5454546,-60.74308,603.5362)"
               id="g1129">
              <path
                 id="path1131"
                 style="fill:none;stroke:#007aff;stroke-width:1.55905;stroke-linecap:round;stroke-linejoin:round;stroke-miterlimit:10;stroke-dasharray:none;stroke-opacity:1"
                 d="m 617.9814,106.7063 c -0.1922,0.3938 -0.3281,1.1234 -0.4077,2.1889 -0.0796,1.0654 -0.2094,2.1002 -0.3894,3.1044 -0.1801,1.0042 -0.417,2.0827 -0.7109,3.2355 -0.2939,1.1528 -0.6009,2.3086 -0.921,3.4673 -0.3201,1.1587 -0.7018,2.6282 -1.1451,4.4085 -0.4431,1.7803 -0.7068,2.8128 -0.7908,3.0974 -0.084,0.2846 -0.1644,0.2688 -0.2412,-0.0473 -0.0768,-0.3161 -0.2687,-1.1064 -0.5759,-2.3709 -0.3071,-1.2644 -0.4807,-1.9964 -0.5208,-2.1959 -0.0401,-0.1995 -0.0652,-0.3241 -0.0752,-0.3738 -0.01,-0.0498 0.003,-0.0579 0.0392,-0.0244 0.036,0.0335 0.1264,0.1175 0.2711,0.2519 0.1446,0.1343 0.4068,0.2973 0.7866,0.4888 0.3797,0.1915 0.8259,0.3257 1.3385,0.4027 0.5126,0.077 1.0853,0.0615 1.718,-0.0465 0.6326,-0.108 1.2698,-0.3521 1.9116,-0.7322 0.6417,-0.3801 1.1741,-0.7805 1.5972,-1.2012 0.4231,-0.4207 0.7137,-0.7678 0.8717,-1.0412 0.158,-0.2735 0.1409,-0.4521 -0.0515,-0.5358 -0.1924,-0.0836 -0.5348,0.1279 -1.0274,0.6348 -0.4925,0.5069 -0.8677,0.9845 -1.1254,1.4329 -0.2577,0.4484 -0.487,1.0131 -0.6878,1.6943 -0.2008,0.6811 -0.3112,1.2704 -0.3313,1.7679 -0.0287,0.7122 0.6271,1.4164 1.9675,2.1126" />
            </g>
            <g
               transform="matrix(0.5454546,0,0,-0.5454546,-60.74308,603.5362)"
               id="g1133">
              <path
                 id="path1135"
                 style="fill:none;stroke:#007aff;stroke-width:1.55905;stroke-linecap:round;stroke-linejoin:round;stroke-miterlimit:10;stroke-dasharray:none;stroke-opacity:1"
                 d="m 627.5854,121.6919 c -0.533,-0.1628 -1.0234,-0.1331 -1.4713,0.089 -0.3045,0.1511 -0.6424,0.4089 -1.0138,0.7735 -0.3714,0.3646 -0.7018,0.7841 -0.9914,1.2587 -0.2895,0.4746 -0.5347,0.9848 -0.7357,1.5306 -0.201,0.5458 -0.3293,1.0652 -0.385,1.5581 -0.0558,0.4929 -0.0686,0.9319 -0.0386,1.3172 0.0301,0.3852 0.1801,0.7017 0.4501,0.9493 0.2699,0.2477 0.6617,0.395 1.1752,0.4421 0.7338,0.0671 2.3112,-0.8554 4.732,-2.7677" />
            </g>
            <g
               transform="matrix(0.5454546,0,0,-0.5454546,-60.74308,603.5362)"
               id="g1137">
              <path
                 id="path1139"
                 style="fill:none;stroke:#007aff;stroke-width:1.55905;stroke-linecap:round;stroke-linejoin:round;stroke-miterlimit:10;stroke-dasharray:none;stroke-opacity:1"
                 d="m 640.8171,104.9634 c -0.9099,1.0157 -1.7283,2.4506 -2.4551,4.3047 -0.4751,1.2118 -0.9677,2.509 -1.478,3.8917 -0.5103,1.3827 -0.9823,2.7617 -1.416,4.137 -0.4337,1.3753 -0.7538,2.7113 -0.9604,4.0079 -0.2065,1.2967 -0.3201,2.4437 -0.3407,3.4411 -0.0207,0.9974 -0.0143,1.6961 0.0193,2.0962 0.0335,0.4001 0.1158,0.609 0.2467,0.6268 0.1309,0.0177 0.2535,-0.2702 0.3679,-0.8639 0.1143,-0.5936 0.1384,-1.2598 0.0724,-1.9986 -0.0662,-0.7388 -0.3176,-1.5089 -0.7543,-2.3103 -0.4368,-0.8014 -0.9203,-1.4625 -1.4504,-1.9831 -0.5302,-0.5207 -1.0072,-0.8593 -1.4311,-1.016 -0.4238,-0.1566 -0.7206,-0.2428 -0.8906,-0.2584 -0.17,-0.0157 -0.2149,0 -0.1347,0.0471 0.0802,0.0471 0.2805,0.1648 0.6011,0.3532 0.3207,0.1884 0.7905,0.3727 1.4096,0.553 0.619,0.1804 1.2028,0.3196 1.7512,0.4177 0.8506,0.1522 1.5369,0.2422 2.059,0.2699" />
            </g>
            <g
               transform="matrix(0.5454546,0,0,-0.5454546,-60.74308,603.5362)"
               id="g1141">
              <path
                 id="path1143"
                 style="fill:none;stroke:#007aff;stroke-width:1.55905;stroke-linecap:round;stroke-linejoin:round;stroke-miterlimit:10;stroke-dasharray:none;stroke-opacity:1"
                 d="m 642.7164,120.8942 c -0.4224,0.0612 -0.8174,0.2108 -1.185,0.4489 -0.246,0.1593 -0.491,0.3514 -0.7351,0.5765 -0.2442,0.2251 -0.4763,0.5157 -0.6965,0.872 -0.2202,0.3562 -0.3991,0.7668 -0.5369,1.2319 -0.1377,0.465 -0.2135,0.941 -0.2272,1.428 -0.0138,0.4871 0.0543,0.9218 0.2042,1.3042 0.1499,0.3824 0.4118,0.6451 0.7858,0.7879 0.3739,0.1428 0.8688,0.129 1.4847,-0.0414 0.6159,-0.1704 1.2156,-0.5188 1.7993,-1.0454 0.5837,-0.5265 1.0382,-1.0653 1.3636,-1.6163 0.3253,-0.551 0.5304,-1.1295 0.6151,-1.7354 0.0847,-0.6059 0.1171,-1.1032 0.0971,-1.4918 -0.0293,-0.5683 -0.2742,-0.9734 -0.7347,-1.2153" />
            </g>
            <g
               transform="matrix(0.5454546,0,0,-0.5454546,-60.74308,603.5362)"
               id="g1145">
              <path
                 id="path1147"
                 style="fill:none;stroke:#007aff;stroke-width:1.55905;stroke-linecap:round;stroke-linejoin:round;stroke-miterlimit:10;stroke-dasharray:none;stroke-opacity:1"
                 d="m 649.7098,120.7908 c 0.1581,1.3444 0.1162,2.935 -0.1257,4.7717 -0.1584,1.2031 -0.2639,2.0977 -0.3164,2.684 -0.0525,0.5862 -0.0837,0.9344 -0.0935,1.0446 -0.01,0.1101 0,0.1407 0.0295,0.0915 0.0296,-0.0491 0.123,-0.2044 0.2803,-0.4659 0.1573,-0.2615 0.401,-0.8416 0.7311,-1.7404 0.3302,-0.8987 0.5874,-1.8903 0.7717,-2.9747 0.1843,-1.0844 0.2916,-2.1613 0.3219,-3.2309 0.0303,-1.0696 0.004,-2.0504 -0.0786,-2.9423 -0.0827,-0.8919 -0.1744,-1.4859 -0.2752,-1.7819 -0.1008,-0.2961 -0.1539,-0.452 -0.1592,-0.4676 -0.005,-0.0157 0.005,-0.004 0.0301,0.0359 0.0254,0.0397 0.278,0.4343 0.7581,1.1839 0.48,0.7496 0.9202,1.3497 1.3206,1.8004 0.5821,0.6553 1.6459,1.205 3.1913,1.6492" />
            </g>
            <g
               transform="matrix(0.5454546,0,0,-0.5454546,12.47043,621.035)"
               id="g1149">
              <path
                 id="path1151"
                 style="fill:none;stroke:#007aff;stroke-width:1.55905;stroke-linecap:round;stroke-linejoin:round;stroke-miterlimit:10;stroke-dasharray:none;stroke-opacity:1"
                 d="m 534.6329,153.2652 c -0.0425,-0.1476 -0.0651,-0.2263 -0.068,-0.2363 -0.002,-0.007 -0.002,0.0246 -10e-5,0.0949 0.002,0.0703 0.013,0.4813 0.0333,1.233 0.0204,0.7517 0.0313,2.067 0.0328,3.946 10e-4,1.879 -0.0668,3.5911 -0.2048,5.1361 -0.1379,1.5451 -0.2655,3.1554 -0.3829,4.831 -0.1173,1.6755 -0.1893,2.9503 -0.2159,3.8245 -0.0266,0.8741 -0.0407,1.3344 -0.0421,1.3809 l -10e-4,0.0184 -0.001,-0.1424 c 0,-0.129 -10e-5,-1.408 -3e-4,-3.837 -1e-4,-2.4289 -0.0301,-4.3721 -0.0901,-5.8294 -0.0598,-1.4573 -0.0911,-2.9981 -0.0938,-4.6222 -0.003,-1.6242 0.0241,-2.7202 0.0804,-3.288 0.0564,-0.5678 0.1728,-1.3132 0.3493,-2.236 0.1765,-0.9228 0.3216,-1.5936 0.4354,-2.0124 0.1138,-0.4187 0.2283,-0.7648 0.3435,-1.038 0.1152,-0.2733 0.3125,-0.5475 0.5919,-0.8228 0.2793,-0.2752 0.6681,-0.4873 1.1665,-0.6363 0.4983,-0.149 0.9953,-0.2022 1.4907,-0.1596 0.4955,0.0427 0.8717,0.1531 1.1287,0.3312 0.2569,0.1782 0.4917,0.3975 0.7042,0.6578 0.2126,0.2603 0.3874,0.5659 0.5243,0.9168 0.137,0.3508 0.2464,0.7118 0.3284,1.0828 0.0819,0.3711 0.1329,0.7654 0.1529,1.1829 0.0201,0.4176 -0.003,0.8041 -0.0692,1.1596 -0.0662,0.3554 -0.2448,0.7886 -0.5357,1.2996 -0.2909,0.511 -0.6113,0.947 -0.9613,1.3081 -0.35,0.361 -0.716,0.6819 -1.0981,0.9628 -0.382,0.2808 -0.7598,0.4931 -1.1333,0.6369 -0.3734,0.1438 -0.7642,0.2228 -1.1723,0.2372 -0.4082,0.0144 -0.8062,-0.0589 -1.1941,-0.2199 -0.3879,-0.161 -0.7065,-0.3418 -0.956,-0.5426 -0.3636,-0.2927 -0.5225,-0.693 -0.4768,-1.201" />
            </g>
            <g
               transform="matrix(0.5454546,0,0,-0.5454546,12.47043,621.035)"
               id="g1153">
              <path
                 id="path1155"
                 style="fill:none;stroke:#007aff;stroke-width:1.55905;stroke-linecap:round;stroke-linejoin:round;stroke-miterlimit:10;stroke-dasharray:none;stroke-opacity:1"
                 d="m 547.4285,143.4684 c -0.2931,0.0712 -0.589,0.3655 -0.8877,0.8829 -0.2987,0.5175 -0.5503,1.0657 -0.7547,1.6449 -0.2045,0.5791 -0.4588,1.4935 -0.7632,2.7433 -0.3042,1.2498 -0.5233,2.3489 -0.6572,3.2974 -0.1338,0.9485 -0.2051,1.7062 -0.2138,2.2731 -0.009,0.5668 0.1317,1.2435 0.4215,2.0299 0.2898,0.7865 0.6287,1.4448 1.0166,1.9751 0.5694,0.7783 1.458,1.3728 2.6659,1.7833" />
            </g>
            <g
               transform="matrix(0.5454546,0,0,-0.5454546,12.47043,621.035)"
               id="g1157">
              <path
                 id="path1159"
                 style="fill:none;stroke:#007aff;stroke-width:1.55905;stroke-linecap:round;stroke-linejoin:round;stroke-miterlimit:10;stroke-dasharray:none;stroke-opacity:1"
                 d="m 559.2054,144.5512 c -0.5476,0.1548 -1.1298,0.4503 -1.7465,0.8865 -0.6168,0.4362 -1.0679,0.7688 -1.3532,0.9976 -0.2853,0.2289 -0.5071,0.4445 -0.6655,0.6471 -0.1583,0.2025 -0.2452,0.3702 -0.2606,0.5031 -0.0155,0.1329 0.0457,0.2405 0.1836,0.3228 0.1379,0.0822 0.5814,0.1112 1.3305,0.0869 0.749,-0.0244 1.2562,-0.064 1.5215,-0.119 0.2653,-0.055 0.36,-0.046 0.2839,0.0269 -0.076,0.0729 -0.266,0.2552 -0.57,0.5469 -0.3041,0.2916 -0.7126,0.6345 -1.2258,1.0286 -0.5131,0.3941 -0.9746,0.7646 -1.3843,1.1114 -0.4097,0.3468 -0.7448,0.6588 -1.0053,0.936 -0.2605,0.2772 -0.4426,0.5822 -0.5463,0.915 -0.1037,0.3329 0.0502,0.608 0.4617,0.8253 0.4116,0.2174 0.6369,0.5072 0.6758,0.8696 0.0389,0.3624 0.0201,0.898 -0.0563,1.6068 -0.0764,0.7089 -0.1414,1.1389 -0.195,1.29 -0.0537,0.1511 0.0305,0.2296 0.2524,0.2356 0.3172,0.008 1.2686,-0.28 2.8541,-0.8656" />
            </g>
            <g
               transform="matrix(0.5454546,0,0,-0.5454546,12.47043,621.035)"
               id="g1161">
              <path
                 id="path1163"
                 style="fill:none;stroke:#007aff;stroke-width:1.55905;stroke-linecap:round;stroke-linejoin:round;stroke-miterlimit:10;stroke-dasharray:none;stroke-opacity:1"
                 d="m 563.497,141.5773 c -0.2092,-0.2749 -0.3434,-0.4512 -0.4025,-0.529 -0.0411,-0.054 0.0294,0.1478 0.2114,0.6053 0.182,0.4576 0.5245,1.3185 1.0274,2.5827 0.5028,1.2642 0.8374,2.2079 1.0037,2.8312 0.1663,0.6233 0.2846,1.2683 0.3549,1.9349 0.0703,0.6667 0.097,1.5884 0.0803,2.7653 -0.0167,1.1769 -0.2112,2.2925 -0.5837,3.3468 -0.3725,1.0544 -0.8444,2.057 -1.4156,3.0079 -0.5712,0.9509 -1.1227,1.7398 -1.6544,2.3666 -0.5318,0.6268 -0.9118,1.0472 -1.14,1.2612 -0.2282,0.214 -0.6726,0.523 -1.3332,0.9271 -0.9782,0.5983 -2.0513,0.8331 -3.2195,0.7044" />
            </g>
            <g
               transform="matrix(0.5454546,0,0,-0.5454546,0,588.451)"
               id="g1165">
              <path
                 id="path1167"
                 style="fill:none;stroke:#f59a23;stroke-width:1.55905;stroke-linecap:round;stroke-linejoin:round;stroke-miterlimit:10;stroke-dasharray:none;stroke-opacity:1"
                 d="m 331.836,135.6569 c -0.5221,0.5519 -0.7355,0.6795 -0.64,0.3828 0.069,-0.2146 0.2416,-0.7511 0.5178,-1.6096 0.2761,-0.8584 0.5649,-1.7793 0.8664,-2.7627 0.3015,-0.9835 0.6407,-2.044 1.0178,-3.1816 0.3771,-1.1376 0.8105,-2.7166 1.3004,-4.737 0.4898,-2.0204 0.9611,-3.7309 1.4139,-5.1316 0.4527,-1.4007 0.8348,-2.6398 1.1462,-3.7172 0.3114,-1.0775 0.5227,-1.849 0.6338,-2.3146 0.1112,-0.4656 0.2455,-0.8391 0.4031,-1.1205 0.1576,-0.2815 0.2553,-0.4559 0.2931,-0.5235 0.0378,-0.0676 0.0559,-0.0542 0.0542,0.0401 -0.002,0.0943 -0.006,0.3378 -0.0129,0.7306 -0.007,0.3928 -0.1472,1.3834 -0.4207,2.9717 -0.2734,1.5883 -0.4449,2.6217 -0.5144,3.1002 -0.0696,0.4785 -0.1212,1.1773 -0.155,2.0965 -0.0337,0.9193 0.0137,1.5332 0.1421,1.8419 0.1284,0.3086 0.28,0.5246 0.4548,0.6478 0.1748,0.1232 0.4602,0.1744 0.856,0.1535 0.3958,-0.0209 0.7032,-0.131 0.9221,-0.3303 0.219,-0.1994 0.467,-0.477 0.744,-0.8329 0.277,-0.3558 0.5569,-0.7718 0.8397,-1.248 0.2829,-0.4761 0.5422,-0.9626 0.7782,-1.4597 0.2359,-0.497 0.506,-1.2033 0.8103,-2.1188 0.3043,-0.9156 0.5447,-1.6972 0.7212,-2.3448 0.1765,-0.6476 0.3274,-1.2646 0.4528,-1.8509 0.1253,-0.5863 0.193,-0.8416 0.2029,-0.7661 0.01,0.0756 0.0346,0.2644 0.0742,0.5666 0.0396,0.3022 -0.008,0.8502 -0.1439,1.644 -0.1356,0.7939 -0.2113,1.9391 -0.2273,3.4357 -0.0159,1.4966 0.0113,2.5311 0.0817,3.1034 0.0987,0.8019 0.4142,1.1423 0.9466,1.021" />
            </g>
            <g
               transform="matrix(0.5454546,0,0,-0.5454546,-60.74308,603.5362)"
               id="g1169">
              <path
                 id="path1171"
                 style="fill:none;stroke:#007aff;stroke-width:1.55905;stroke-linecap:round;stroke-linejoin:round;stroke-miterlimit:10;stroke-dasharray:none;stroke-opacity:1"
                 d="m 566.3831,118.9232 c -0.451,0.2313 -0.7406,0.6133 -0.8688,1.1462 -0.1283,0.5329 -0.3548,1.0754 -0.6796,1.6274 -0.3248,0.5521 -0.8008,1.2405 -1.428,2.0654 -0.6272,0.8249 -1.1488,1.5823 -1.5649,2.2723 -0.4161,0.6901 -0.8743,1.6276 -1.3745,2.8127 -0.5002,1.1851 -0.9254,2.0581 -1.2756,2.6189 -0.3503,0.5608 -0.74,1.134 -1.1692,1.7194 -0.4293,0.5854 -0.8568,1.2002 -1.2826,1.8444 -0.4259,0.6442 -0.9862,1.563 -1.6811,2.7564 -0.6947,1.1934 -1.1937,2.114 -1.4968,2.7617 -0.3032,0.6477 -0.6376,1.5829 -1.0033,2.8056 -0.3658,1.2228 -0.6883,2.1643 -0.9677,2.8246 -0.2794,0.6603 -0.7447,1.498 -1.396,2.513 -0.6513,1.015 -1.2246,1.9548 -1.7199,2.8195 -0.4953,0.8647 -0.9095,1.6275 -1.2427,2.2885 -0.3333,0.661 -0.5086,1.009 -0.5262,1.0438 -0.0176,0.0349 -0.0121,0.0331 0.0163,-0.005 0.0404,-0.0542 0.5949,-0.799 1.6636,-2.2342" />
            </g>
            <g
               transform="matrix(0.5454546,0,0,-0.5454546,0,588.451)"
               id="g1173">
              <path
                 id="path1175"
                 style="fill:none;stroke:#007aff;stroke-width:1.55905;stroke-linecap:round;stroke-linejoin:round;stroke-miterlimit:10;stroke-dasharray:none;stroke-opacity:1"
                 d="m 486.8209,110.0253 c -0.1669,-0.1582 -0.2874,0.1302 -0.3616,0.8652 -0.0742,0.735 -0.2133,1.5851 -0.4173,2.5502 -0.2039,0.9651 -0.5119,1.9822 -0.9239,3.0514 -0.412,1.0691 -0.7619,2.1099 -1.0499,3.1224 -0.2879,1.0125 -0.5577,1.892 -0.8095,2.6385 -0.382,1.1326 -0.701,2.1748 -0.9571,3.1267" />
            </g>
            <g
               transform="matrix(0.5454546,0,0,-0.5454546,0,588.451)"
               id="g1177">
              <path
                 id="path1179"
                 style="fill:none;stroke:#007aff;stroke-width:1.55905;stroke-linecap:round;stroke-linejoin:round;stroke-miterlimit:10;stroke-dasharray:none;stroke-opacity:1"
                 d="m 476.6472,120.565 c 0.4316,0.2928 0.77,0.761 1.0151,1.4047 0.2451,0.6437 0.4813,1.408 0.7087,2.2929 0.2273,0.8849 0.4166,1.6867 0.5679,2.4054 0.1513,0.7186 0.3072,1.2433 0.4675,1.574 0.1603,0.3307 0.3859,0.6181 0.677,0.8621 0.291,0.2441 0.5225,0.3881 0.6945,0.4322 0.1719,0.044 0.5705,-0.3164 1.1959,-1.0813 0.6253,-0.7649 1.1508,-1.3746 1.5765,-1.8291 0.6081,-0.6494 3.0749,-2.4182 7.4006,-5.3064" />
            </g>
            <g
               transform="matrix(0.5454546,0,0,-0.5454546,0,588.451)"
               id="g1181">
              <path
                 id="path1183"
                 style="fill:none;stroke:#d20000;stroke-width:1.55905;stroke-linecap:round;stroke-linejoin:round;stroke-miterlimit:10;stroke-dasharray:none;stroke-opacity:1"
                 d="m 132.9669,275.3232 c -0.7804,0.3968 -1.1681,0.74 -1.1629,1.0296 0.004,0.2029 0.1959,0.5237 0.5768,0.9622 0.3809,0.4386 0.8982,0.8231 1.5517,1.1535 0.6536,0.3305 1.509,0.6035 2.5662,0.8191 1.0572,0.2156 1.9608,0.3977 2.7108,0.5463 0.75,0.1486 1.2857,0.2325 1.6071,0.2517 0.3215,0.0191 0.7237,-0.7017 1.2066,-2.1627 0.483,-1.4609 0.8135,-2.6301 0.9918,-3.5076 0.1782,-0.8775 0.3386,-1.5605 0.4811,-2.0489 0.2072,-0.7099 0.6384,-1.8051 1.2936,-3.2858" />
            </g>
            <g
               transform="matrix(0.5913272,0,0,-0.6023487,224.0853,546.3322)"
               id="g1185" />
            <g
               transform="matrix(0.8727209,0,0,0.5454546,243.9176,535.6098)"
               id="g1187" />
            <g
               transform="matrix(0.6024212,0,0,-0.802378,257.279,547.2675)"
               id="g1189" />
            <g
               transform="matrix(0.8663265,0,0,-0.5454546,315.5502,544.569)"
               id="g1191" />
            <g
               transform="matrix(0.5721838,0,0,-0.7229957,145.9608,529.3224)"
               id="g1193" />
            <g
               transform="matrix(0.5790297,0,0,-0.6065309,180.1491,528.418)"
               id="g1195" />
            <g
               transform="matrix(0.546153,0,0,-0.6528542,208.1805,529.6518)"
               id="g1197" />
            <g
               transform="matrix(1.104135,0,0,-0.5454546,237.0207,539.0942)"
               id="g1199" />
            <g
               transform="matrix(0.8529007,0,0,0.5454546,251.3365,514.1935)"
               id="g1201" />
            <g
               transform="matrix(1.330015,0,0,-0.5454546,259.5642,528.9918)"
               id="g1203" />
            <g
               transform="matrix(1.02389,0,0,-0.5454546,148.1921,515.2848)"
               id="g1205" />
            <g
               transform="matrix(1.83177,0,0,-0.5454546,47.9344,477.1541)"
               id="g1207" />
            <g
               transform="matrix(0.5957732,0,0,-0.7172764,71.46366,498.7645)"
               id="g1209" />
          </g>
        </g>
      </g>
    </g>
  </g>
</svg>
